<?xml version="1.0" encoding="UTF-8" standalone="no"?>
<svg
   width="345"
   height="475"
   viewBox="0 0 345 475"
   id="svg2"
   version="1.1"
   xml:space="preserve"
   sodipodi:docname="taylors_guide_to_scales_cover.svg"
   inkscape:version="1.4.3 (0d15f75, 2025-12-25)"
   xmlns:inkscape="http://www.inkscape.org/namespaces/inkscape"
   xmlns:sodipodi="http://sodipodi.sourceforge.net/DTD/sodipodi-0.dtd"
   xmlns:xlink="http://www.w3.org/1999/xlink"
   xmlns="http://www.w3.org/2000/svg"
   xmlns:svg="http://www.w3.org/2000/svg"
   xmlns:rdf="http://www.w3.org/1999/02/22-rdf-syntax-ns#"
   xmlns:cc="http://creativecommons.org/ns#"
   xmlns:dc="http://purl.org/dc/elements/1.1/"><sodipodi:namedview
     id="namedview1"
     pagecolor="#ffffff"
     bordercolor="#000000"
     borderopacity="0.25"
     inkscape:showpageshadow="2"
     inkscape:pageopacity="0.0"
     inkscape:pagecheckerboard="0"
     inkscape:deskcolor="#d1d1d1"
     inkscape:zoom="1.0000001"
     inkscape:cx="214.99998"
     inkscape:cy="343.99997"
     inkscape:window-width="1512"
     inkscape:window-height="921"
     inkscape:window-x="0"
     inkscape:window-y="33"
     inkscape:window-maximized="0"
     inkscape:current-layer="svg2"
     showgrid="false"><inkscape:grid
       id="grid1"
       units="px"
       originx="0"
       originy="0"
       spacingx="1"
       spacingy="1"
       empcolor="#0099e5"
       empopacity="0.30196078"
       color="#0099e5"
       opacity="0.14901961"
       empspacing="5"
       enabled="true"
       visible="false" /></sodipodi:namedview><defs
     id="defs4"><rect
       x="-4.9999995"
       y="0"
       width="245.99998"
       height="117.99999"
       id="rect3" /><linearGradient
       id="linearGradient1"
       inkscape:collect="always"><stop
         style="stop-color:#f8bc7c;stop-opacity:1;"
         offset="0.14733543"
         id="stop1" /><stop
         style="stop-color:#f6a87e;stop-opacity:1;"
         offset="0.72100312"
         id="stop2" /></linearGradient><filter
       style="color-interpolation-filters:sRGB"
       id="filter8603"
       x="-0.013057905"
       width="1.0261158"
       y="-0.011089376"
       height="1.0221788"><feGaussianBlur
         stdDeviation="2.164541"
         id="feGaussianBlur8605" /></filter><linearGradient
       inkscape:collect="always"
       xlink:href="#linearGradient1"
       id="linearGradient2"
       x1="205.44968"
       y1="54.360893"
       x2="205.44968"
       y2="404.97623"
       gradientUnits="userSpaceOnUse"
       gradientTransform="matrix(0.83456622,0,0,0.98361163,12.988301,2.6965807)" /></defs><metadata
     id="metadata7"><rdf:RDF><cc:Work
         rdf:about=""><dc:format>image/svg+xml</dc:format><dc:type
           rdf:resource="http://purl.org/dc/dcmitype/StillImage" /></cc:Work></rdf:RDF></metadata><rect
     y="7.4445648"
     x="-1.9279591"
     height="468.45724"
     width="397.83551"
     id="rect4502"
     style="color:#000000;clip-rule:nonzero;display:inline;overflow:visible;visibility:visible;isolation:auto;mix-blend-mode:normal;color-interpolation:sRGB;color-interpolation-filters:linearRGB;solid-color:#000000;solid-opacity:1;fill:#b4c1de;fill-opacity:1;fill-rule:nonzero;stroke:none;stroke-width:2;stroke-linecap:butt;stroke-linejoin:miter;stroke-miterlimit:4;stroke-dasharray:none;stroke-dashoffset:0;stroke-opacity:1;filter:url(#filter8603);color-rendering:auto;image-rendering:auto;shape-rendering:auto;text-rendering:auto;enable-background:accumulate"
     ry="2.2321417"
     transform="matrix(0.84286059,0,0,0.9703082,6.3785754,8.0629708)" /><rect
     y="0"
     x="13.360042"
     height="452.03195"
     width="331.63995"
     id="rect4504"
     style="color:#000000;clip-rule:nonzero;display:inline;overflow:visible;visibility:visible;isolation:auto;mix-blend-mode:normal;color-interpolation:sRGB;color-interpolation-filters:linearRGB;solid-color:#000000;solid-opacity:1;fill:#971b45;fill-opacity:1;fill-rule:nonzero;stroke:#000000;stroke-width:0.736121;stroke-linecap:butt;stroke-linejoin:miter;stroke-miterlimit:4;stroke-dasharray:none;stroke-dashoffset:0;stroke-opacity:1;color-rendering:auto;image-rendering:auto;shape-rendering:auto;text-rendering:auto;enable-background:accumulate" /><rect
     y="25.413038"
     x="35.143806"
     height="403.37643"
     width="289.61169"
     id="rect1"
     style="color:#000000;clip-rule:nonzero;display:inline;overflow:visible;visibility:visible;isolation:auto;mix-blend-mode:normal;color-interpolation:sRGB;color-interpolation-filters:linearRGB;solid-color:#000000;solid-opacity:1;fill:url(#linearGradient2);fill-opacity:1;fill-rule:nonzero;stroke:none;stroke-width:0.648611;stroke-linecap:butt;stroke-linejoin:miter;stroke-miterlimit:4;stroke-dasharray:none;stroke-dashoffset:0;stroke-opacity:1;color-rendering:auto;image-rendering:auto;shape-rendering:auto;text-rendering:auto;enable-background:accumulate" /><circle
     style="fill:#493746;fill-opacity:1;stroke:none;stroke-width:0.639304;stroke-dasharray:none;stroke-opacity:1"
     id="circle4"
     cx="248.01794"
     cy="251.40648"
     r="2.8720195" /><circle
     style="fill:#493746;fill-opacity:1;stroke:none;stroke-width:0.639304;stroke-dasharray:none;stroke-opacity:1"
     id="circle6"
     cx="216.69841"
     cy="127.87764"
     r="2.8720198"
     transform="rotate(15)" /><circle
     style="fill:#493746;fill-opacity:1;stroke:none;stroke-width:0.639304;stroke-dasharray:none;stroke-opacity:1"
     id="circle7"
     cx="176.21744"
     cy="323.20694"
     r="2.8720195" /><circle
     style="fill:#493746;fill-opacity:1;stroke:none;stroke-width:0.639304;stroke-dasharray:none;stroke-opacity:1"
     id="circle8"
     cx="104.41696"
     cy="251.40648"
     r="2.8720195" /><circle
     style="fill:#493746;fill-opacity:1;stroke:none;stroke-width:0.639304;stroke-dasharray:none;stroke-opacity:1"
     id="circle10"
     cx="350.11255"
     cy="129.61568"
     r="2.8720198"
     transform="rotate(29.999999)" /><circle
     style="fill:#493746;fill-opacity:1;stroke:none;stroke-width:0.639304;stroke-dasharray:none;stroke-opacity:1"
     id="circle11"
     cx="278.31204"
     cy="57.815189"
     r="2.8720198"
     transform="rotate(29.999999)" /><circle
     style="fill:#493746;fill-opacity:1;stroke:none;stroke-width:0.639304;stroke-dasharray:none;stroke-opacity:1"
     id="circle12"
     cx="278.31204"
     cy="201.4162"
     r="2.8720198"
     transform="rotate(29.999999)" /><circle
     style="fill:#493746;fill-opacity:1;stroke:none;stroke-width:0.639304;stroke-dasharray:none;stroke-opacity:1"
     id="circle13"
     cx="206.51158"
     cy="129.61568"
     r="2.8720198"
     transform="rotate(29.999999)" /><circle
     style="fill:#493746;fill-opacity:1;stroke:none;stroke-width:0.639304;stroke-dasharray:none;stroke-opacity:1"
     id="circle15"
     cx="98.706093"
     cy="305.83313"
     r="2.8720198"
     transform="rotate(-29.999999)" /><circle
     style="fill:#493746;fill-opacity:1;stroke:none;stroke-width:0.639304;stroke-dasharray:none;stroke-opacity:1"
     id="circle16"
     cx="26.905613"
     cy="234.03262"
     r="2.8720198"
     transform="rotate(-29.999999)" /><circle
     style="fill:#493746;fill-opacity:1;stroke:none;stroke-width:0.639304;stroke-dasharray:none;stroke-opacity:1"
     id="circle17"
     cx="26.905613"
     cy="377.63364"
     r="2.8720198"
     transform="rotate(-29.999999)" /><circle
     style="fill:#493746;fill-opacity:1;stroke:none;stroke-width:0.639304;stroke-dasharray:none;stroke-opacity:1"
     id="circle18"
     cx="-44.89492"
     cy="305.83313"
     r="2.8720198"
     transform="rotate(-29.999999)" /><circle
     style="fill:none;fill-opacity:0.99511;stroke:#493746;stroke-width:2;stroke-dasharray:none;stroke-opacity:1"
     id="path7"
     cx="176.21744"
     cy="251.40648"
     r="71.800491" /><path
     style="fill:none;fill-opacity:1;stroke:#b32050;stroke-width:2;stroke-dasharray:none;stroke-opacity:1"
     d="m 176.21744,179.60598 -35.90023,133.98154 98.08129,-98.0813 -133.98154,35.90025 133.98154,35.90024 -98.08129,-98.08129 35.90024,133.98154 35.90025,-133.98154 -98.08129,98.08129 133.98153,-35.90024 -133.98153,-35.90025 98.08129,98.0813 z"
     id="path17" /><g
     id="text2"
     style="font-weight:800;font-size:37.3333px;font-family:Avenir;-inkscape-font-specification:'Avenir Ultra-Bold';text-align:center;text-anchor:middle;fill:#481212;stroke-width:0.8"
     aria-label="Taylor's Guide &#10;to Scales"><path
       d="M 60.165315,74.72001 H 52.623988 V 69.568015 H 73.530637 V 74.72001 H 65.98931 v 21.279982 h -5.823995 z m 23.25861,19.002651 h -0.07467 q -0.933332,1.455999 -2.501331,2.090665 -1.530665,0.634666 -3.247997,0.634666 -1.269333,0 -2.463998,-0.373333 -1.157333,-0.336 -2.053332,-1.045332 -0.895999,-0.709333 -1.418665,-1.754666 -0.522666,-1.045332 -0.522666,-2.426664 0,-1.567999 0.559999,-2.650665 0.597333,-1.082665 1.567999,-1.791998 1.007999,-0.709333 2.277331,-1.082666 1.269332,-0.410666 2.613331,-0.597333 1.381332,-0.186666 2.725331,-0.224 1.381332,-0.03733 2.538665,-0.03733 0,-1.493332 -1.082666,-2.351998 -1.045332,-0.895999 -2.501331,-0.895999 -1.381332,0 -2.538665,0.597333 -1.119999,0.559999 -2.015998,1.567998 l -2.986664,-3.06133 q 1.567999,-1.455999 3.658663,-2.165332 2.090665,-0.746666 4.330663,-0.746666 2.463998,0 4.031997,0.634666 1.605332,0.597333 2.538665,1.791999 0.970665,1.194665 1.343998,2.949331 0.373333,1.717331 0.373333,3.994663 v 9.221325 h -5.151995 z m -1.381332,-5.674662 q -0.634667,0 -1.605332,0.07467 -0.933333,0.03733 -1.829332,0.298666 -0.858666,0.261333 -1.493332,0.783999 -0.597333,0.522667 -0.597333,1.455999 0,1.007999 0.858666,1.493332 0.858666,0.485333 1.791998,0.485333 0.821333,0 1.567999,-0.224 0.783999,-0.223999 1.381332,-0.634666 0.597333,-0.410666 0.933333,-1.045332 0.373333,-0.634666 0.373333,-1.493332 V 88.047999 Z M 102.5386,98.949323 q -0.56,1.455997 -1.08266,2.575997 -0.52267,1.12 -1.344,1.86667 -0.784002,0.784 -2.016001,1.15733 -1.231999,0.41066 -3.247997,0.41066 -2.165331,0 -4.18133,-0.67199 l 0.746666,-4.592001 q 1.269333,0.560001 2.613331,0.560001 0.933333,0 1.530666,-0.224 0.597333,-0.186668 0.970666,-0.597334 0.410666,-0.373333 0.671999,-0.933332 0.261333,-0.56 0.56,-1.306666 l 0.410666,-1.045332 -7.951993,-18.293318 h 6.047994 l 4.666663,11.98399 h 0.0747 l 3.99466,-11.98399 h 5.74933 z m 10.37865,-31.173307 h 5.59999 v 28.223976 h -5.59999 z m 8.96,19.151984 q 0,-2.165331 0.784,-3.919997 0.784,-1.754665 2.128,-2.986664 1.38133,-1.269332 3.21066,-1.941331 1.86667,-0.672 3.95733,-0.672 2.09067,0 3.92,0.672 1.86667,0.671999 3.21066,1.941331 1.38134,1.231999 2.16534,2.986664 0.784,1.754666 0.784,3.919997 0,2.165332 -0.784,3.919997 -0.784,1.754665 -2.16534,3.023997 -1.34399,1.231999 -3.21066,1.903999 -1.82933,0.671999 -3.92,0.671999 -2.09066,0 -3.95733,-0.671999 -1.82933,-0.672 -3.21066,-1.903999 -1.344,-1.269332 -2.128,-3.023997 -0.784,-1.754665 -0.784,-3.919997 z m 5.6,0 q 0,2.053332 1.15733,3.322664 1.19467,1.269332 3.32266,1.269332 2.128,0 3.28533,-1.269332 1.19467,-1.269332 1.19467,-3.322664 0,-2.053331 -1.19467,-3.322664 -1.15733,-1.269332 -3.28533,-1.269332 -2.12799,0 -3.32266,1.269332 -1.15733,1.269333 -1.15733,3.322664 z m 17.84533,-9.071992 h 5.6 v 2.911997 h 0.0747 q 0.896,-1.679998 2.128,-2.501331 1.232,-0.858666 3.09867,-0.858666 0.48533,0 0.97066,0.03733 0.48534,0.03733 0.896,0.149333 v 5.114662 q -0.59733,-0.186666 -1.19466,-0.261333 -0.56,-0.112 -1.19467,-0.112 -1.60533,0 -2.53866,0.448 -0.93334,0.447999 -1.456,1.269332 -0.48534,0.783999 -0.63467,1.903998 -0.14933,1.119999 -0.14933,2.463998 v 7.57866 h -5.6 z m 16.38931,-8.287993 h 4.704 v 10.527991 h -4.704 z m 20.12264,13.626655 q -1.232,-1.530665 -3.248,-1.530665 -0.70933,0 -1.38133,0.335999 -0.672,0.336 -0.672,1.157333 0,0.671999 0.672,1.007999 0.70933,0.298666 1.75466,0.559999 1.08267,0.224 2.27733,0.522667 1.232,0.261333 2.27733,0.858665 1.08267,0.597333 1.75467,1.642666 0.70933,1.007999 0.70933,2.725331 0,1.754665 -0.784,2.911997 -0.74666,1.119999 -1.94133,1.829332 -1.19466,0.671999 -2.688,0.933333 -1.49333,0.298666 -2.94933,0.298666 -1.904,0 -3.84533,-0.522666 -1.94133,-0.56 -3.28533,-1.941332 l 3.39733,-3.770663 q 0.784,0.970665 1.71733,1.493332 0.97067,0.485333 2.24,0.485333 0.97067,0 1.75467,-0.261333 0.784,-0.298667 0.784,-1.045333 0,-0.709333 -0.70934,-1.045332 -0.672,-0.373333 -1.75466,-0.597333 -1.04533,-0.261333 -2.27733,-0.522666 -1.19467,-0.298667 -2.27733,-0.858666 -1.04534,-0.56 -1.75467,-1.567999 -0.672,-1.045332 -0.672,-2.762664 0,-1.605332 0.63467,-2.762665 0.672,-1.157332 1.71733,-1.903998 1.08267,-0.746666 2.464,-1.082666 1.38133,-0.373333 2.79999,-0.373333 1.792,0 3.62134,0.522666 1.82933,0.522667 3.09866,1.866666 z m 42.70924,10.938657 q -2.576,1.343999 -5.376,1.941332 -2.79999,0.597333 -5.71199,0.597333 -3.09867,0 -5.712,-0.970666 -2.61333,-0.970666 -4.51733,-2.762664 -1.90399,-1.829332 -2.98666,-4.40533 -1.04533,-2.575998 -1.04533,-5.749328 0,-3.173331 1.04533,-5.749329 1.08267,-2.575998 2.98666,-4.367996 1.904,-1.829332 4.51733,-2.799998 2.61333,-0.970666 5.712,-0.970666 3.17333,0 5.82399,0.784 2.688,0.746666 4.704,2.613331 l -4.10666,4.479996 q -1.19467,-1.231999 -2.688,-1.866665 -1.49333,-0.634666 -3.73333,-0.634666 -1.86667,0 -3.39733,0.634666 -1.49333,0.634666 -2.576,1.791998 -1.08267,1.12 -1.68,2.687998 -0.56,1.567999 -0.56,3.397331 0,1.866665 0.56,3.434663 0.59733,1.530666 1.68,2.687998 1.08267,1.119999 2.576,1.754665 1.53066,0.634666 3.39733,0.634666 1.904,0 3.28533,-0.410666 1.38133,-0.448 2.20266,-0.895999 v -4.29333 h -4.74133 v -5.375995 h 10.34133 z m 21.87731,1.866665 h -5.376 v -2.463998 h -0.0747 q -0.29867,0.522667 -0.784,1.045333 -0.448,0.522666 -1.12,0.933332 -0.672,0.410667 -1.53067,0.672 -0.85866,0.261333 -1.86666,0.261333 -2.128,0 -3.472,-0.634666 -1.30667,-0.672 -2.05333,-1.829332 -0.70933,-1.157332 -0.97067,-2.725331 -0.224,-1.567999 -0.224,-3.39733 V 77.856008 h 5.6 v 8.885326 q 0,0.783999 0.0373,1.642665 0.0747,0.821332 0.336,1.530665 0.29867,0.709333 0.85867,1.157333 0.59733,0.447999 1.68,0.447999 1.08266,0 1.75466,-0.373333 0.672,-0.410666 1.008,-1.045332 0.37333,-0.672 0.48533,-1.493332 0.112,-0.821333 0.112,-1.717332 v -9.034659 h 5.6 z m 4.03199,-18.143984 h 5.59999 v 18.143984 h -5.59999 z m -0.448,-5.711995 q 0,-1.343999 0.93333,-2.277332 0.97066,-0.970666 2.31466,-0.970666 1.344,0 2.27733,0.970666 0.97067,0.933333 0.97067,2.277332 0,1.343999 -0.97067,2.314664 -0.93333,0.933333 -2.27733,0.933333 -1.344,0 -2.31466,-0.933333 -0.93333,-0.970665 -0.93333,-2.314664 z m 29.11998,23.855979 h -5.152 v -2.389331 h -0.0747 q -0.336,0.485333 -0.896,1.007999 -0.52267,0.485333 -1.26934,0.895999 -0.70933,0.410667 -1.60533,0.672 -0.85866,0.261333 -1.792,0.261333 -2.01599,0 -3.65866,-0.671999 -1.64267,-0.709333 -2.83733,-1.941332 -1.15733,-1.269332 -1.792,-2.986664 -0.63467,-1.717332 -0.63467,-3.770664 0,-1.903998 0.56,-3.62133 0.59734,-1.754665 1.64267,-3.098664 1.08267,-1.343999 2.61333,-2.127998 1.53067,-0.821333 3.472,-0.821333 1.75466,0 3.24799,0.56 1.53067,0.522666 2.50134,1.829332 h 0.0747 V 67.776016 h 5.6 z m -5.152,-9.071992 q 0,-2.053331 -1.19466,-3.322664 -1.15734,-1.269332 -3.28533,-1.269332 -2.128,0 -3.32267,1.269332 -1.15733,1.269333 -1.15733,3.322664 0,2.053332 1.15733,3.322664 1.19467,1.269332 3.32267,1.269332 2.12799,0 3.28533,-1.269332 1.19466,-1.269332 1.19466,-3.322664 z m 26.80528,5.935995 q -1.344,1.717332 -3.39733,2.650664 -2.05334,0.933333 -4.256,0.933333 -2.09067,0 -3.95733,-0.671999 -1.82933,-0.672 -3.21066,-1.903999 -1.344,-1.269332 -2.128,-3.023997 -0.784,-1.754665 -0.784,-3.919997 0,-2.165331 0.784,-3.919997 0.784,-1.754665 2.128,-2.986664 1.38133,-1.269332 3.21066,-1.941331 1.86666,-0.672 3.95733,-0.672 1.94133,0 3.50933,0.672 1.60533,0.671999 2.688,1.941331 1.12,1.231999 1.71733,2.986664 0.59733,1.754666 0.59733,3.919997 v 1.754665 H 288.645 q 0.336,1.605332 1.456,2.575998 1.12,0.933333 2.76267,0.933333 1.38133,0 2.31466,-0.597333 0.97067,-0.634666 1.68,-1.605332 z M 296.037,84.874669 q 0.0373,-1.418666 -0.93334,-2.426665 -0.97066,-1.007999 -2.50133,-1.007999 -0.93333,0 -1.64266,0.298666 -0.70934,0.298667 -1.232,0.784 -0.48533,0.447999 -0.784,1.082665 -0.26133,0.597333 -0.29867,1.269333 z"
       id="path4" /><path
       d="m 119.11454,129.00263 h -4.928 v 6.048 q 0,0.74666 0.0747,1.38133 0.0747,0.59733 0.336,1.04533 0.26133,0.448 0.784,0.70933 0.56,0.224 1.456,0.224 0.448,0 1.15733,-0.0747 0.74666,-0.112 1.12,-0.448 v 4.66666 q -0.93333,0.336 -1.94133,0.448 -1.008,0.112 -1.97867,0.112 -1.41866,0 -2.61333,-0.29867 -1.19467,-0.29866 -2.09066,-0.93333 -0.896,-0.672 -1.41867,-1.71733 -0.48533,-1.04533 -0.48533,-2.53867 v -8.62399 h -3.584 v -4.48 h 3.584 v -5.37599 h 5.59999 v 5.37599 h 4.928 z m 2.16531,4.592 q 0,-2.16533 0.784,-3.92 0.784,-1.75466 2.128,-2.98666 1.38133,-1.26934 3.21067,-1.94134 1.86666,-0.67199 3.95733,-0.67199 2.09066,0 3.91999,0.67199 1.86667,0.672 3.21067,1.94134 1.38133,1.232 2.16533,2.98666 0.784,1.75467 0.784,3.92 0,2.16533 -0.784,3.91999 -0.784,1.75467 -2.16533,3.024 -1.344,1.232 -3.21067,1.904 -1.82933,0.672 -3.91999,0.672 -2.09067,0 -3.95733,-0.672 -1.82934,-0.672 -3.21067,-1.904 -1.344,-1.26933 -2.128,-3.024 -0.784,-1.75466 -0.784,-3.91999 z m 5.6,0 q 0,2.05333 1.15733,3.32266 1.19467,1.26933 3.32267,1.26933 2.12799,0 3.28533,-1.26933 1.19466,-1.26933 1.19466,-3.32266 0,-2.05333 -1.19466,-3.32267 -1.15734,-1.26933 -3.28533,-1.26933 -2.128,0 -3.32267,1.26933 -1.15733,1.26934 -1.15733,3.32267 z m 42.67197,-10.90133 q -0.70933,-0.896 -1.94133,-1.30666 -1.19467,-0.448 -2.27733,-0.448 -0.63467,0 -1.30667,0.14933 -0.672,0.14933 -1.26933,0.48533 -0.59733,0.29867 -0.97067,0.82134 -0.37333,0.52266 -0.37333,1.26933 0,1.19466 0.896,1.82933 0.896,0.63467 2.24,1.08267 1.38133,0.448 2.94933,0.896 1.568,0.448 2.91199,1.26933 1.38134,0.82133 2.27734,2.20266 0.896,1.38133 0.896,3.696 0,2.20266 -0.82134,3.84533 -0.82133,1.64266 -2.24,2.72533 -1.38133,1.08267 -3.24799,1.60533 -1.82933,0.52267 -3.88267,0.52267 -2.57599,0 -4.77866,-0.784 -2.20266,-0.784 -4.10666,-2.53867 l 4.14399,-4.55466 q 0.896,1.19467 2.24,1.86667 1.38134,0.63466 2.83733,0.63466 0.70934,0 1.41867,-0.14933 0.74667,-0.18667 1.30666,-0.52267 0.59734,-0.336 0.93334,-0.85866 0.37333,-0.52267 0.37333,-1.232 0,-1.19467 -0.93333,-1.86667 -0.896,-0.70933 -2.27733,-1.19466 -1.38134,-0.48533 -2.98667,-0.97067 -1.60533,-0.48533 -2.98666,-1.30666 -1.38133,-0.82134 -2.31467,-2.16533 -0.896,-1.344 -0.896,-3.54667 0,-2.128 0.82134,-3.73333 0.85866,-1.60533 2.23999,-2.688 1.41867,-1.08266 3.248,-1.60533 1.82933,-0.56 3.77067,-0.56 2.23999,0 4.33066,0.63467 2.09066,0.63466 3.77066,2.128 z m 19.93596,7.69066 q -0.41067,-0.59733 -1.15733,-0.97066 -0.74667,-0.41067 -1.60534,-0.41067 -2.12799,0 -3.32266,1.26933 -1.15733,1.26934 -1.15733,3.32267 0,2.05333 1.15733,3.32266 1.19467,1.26933 3.32266,1.26933 0.93334,0 1.60534,-0.41066 0.67199,-0.41067 1.15733,-0.97067 l 3.69599,3.88266 q -1.30666,1.344 -3.09866,1.904 -1.75466,0.52267 -3.36,0.52267 -2.09066,0 -3.95733,-0.672 -1.82933,-0.672 -3.21066,-1.904 -1.344,-1.26933 -2.128,-3.024 -0.784,-1.75466 -0.784,-3.91999 0,-2.16533 0.784,-3.92 0.784,-1.75466 2.128,-2.98666 1.38133,-1.26934 3.21066,-1.94134 1.86667,-0.67199 3.95733,-0.67199 1.60534,0 3.36,0.55999 1.792,0.52267 3.09866,1.86667 z m 17.09867,10.00533 h -0.0747 q -0.93333,1.456 -2.50133,2.09066 -1.53067,0.63467 -3.248,0.63467 -1.26933,0 -2.464,-0.37333 -1.15733,-0.336 -2.05333,-1.04534 -0.896,-0.70933 -1.41866,-1.75466 -0.52267,-1.04533 -0.52267,-2.42667 0,-1.56799 0.56,-2.65066 0.59733,-1.08267 1.568,-1.792 1.008,-0.70933 2.27733,-1.08266 1.26933,-0.41067 2.61333,-0.59734 1.38133,-0.18666 2.72533,-0.224 1.38133,-0.0373 2.53867,-0.0373 0,-1.49333 -1.08267,-2.352 -1.04533,-0.896 -2.50133,-0.896 -1.38133,0 -2.53867,0.59733 -1.12,0.56 -2.01599,1.568 l -2.98667,-3.06133 q 1.568,-1.456 3.65867,-2.16533 2.09066,-0.74666 4.33066,-0.74666 2.464,0 4.03199,0.63466 1.60534,0.59733 2.53867,1.792 0.97066,1.19467 1.344,2.94933 0.37333,1.71733 0.37333,3.99466 v 9.22133 h -5.15199 z m -1.38134,-5.67466 q -0.63466,0 -1.60533,0.0747 -0.93333,0.0373 -1.82933,0.29867 -0.85867,0.26133 -1.49333,0.784 -0.59734,0.52266 -0.59734,1.456 0,1.008 0.85867,1.49333 0.85867,0.48533 1.792,0.48533 0.82133,0 1.568,-0.224 0.784,-0.224 1.38133,-0.63466 0.59733,-0.41067 0.93333,-1.04534 0.37334,-0.63466 0.37334,-1.49333 v -1.19466 z m 10.11735,-20.27199 h 5.59999 v 28.22398 h -5.59999 z m 26.80532,25.08798 q -1.34399,1.71733 -3.39733,2.65067 -2.05333,0.93333 -4.25599,0.93333 -2.09067,0 -3.95733,-0.672 -1.82933,-0.672 -3.21067,-1.904 -1.344,-1.26933 -2.12799,-3.024 -0.784,-1.75466 -0.784,-3.91999 0,-2.16533 0.784,-3.92 0.78399,-1.75466 2.12799,-2.98666 1.38134,-1.26934 3.21067,-1.94134 1.86666,-0.67199 3.95733,-0.67199 1.94133,0 3.50933,0.67199 1.60533,0.672 2.688,1.94134 1.11999,1.232 1.71733,2.98666 0.59733,1.75467 0.59733,3.92 v 1.75466 h -12.99199 q 0.336,1.60533 1.456,2.576 1.12,0.93333 2.76266,0.93333 1.38134,0 2.31467,-0.59733 0.97066,-0.63467 1.68,-1.60533 z m -4.74133,-7.98932 q 0.0373,-1.41867 -0.93333,-2.42667 -0.97066,-1.008 -2.50133,-1.008 -0.93333,0 -1.64266,0.29867 -0.70934,0.29866 -1.232,0.784 -0.48534,0.448 -0.784,1.08266 -0.26134,0.59734 -0.29867,1.26934 z m 19.26396,-1.68 q -1.232,-1.53067 -3.24799,-1.53067 -0.70934,0 -1.38134,0.336 -0.67199,0.336 -0.67199,1.15733 0,0.672 0.67199,1.008 0.70934,0.29867 1.75467,0.56 1.08267,0.224 2.27733,0.52267 1.232,0.26133 2.27733,0.85866 1.08267,0.59734 1.75467,1.64267 0.70933,1.008 0.70933,2.72533 0,1.75467 -0.784,2.912 -0.74666,1.12 -1.94133,1.82933 -1.19467,0.672 -2.688,0.93333 -1.49333,0.29867 -2.94933,0.29867 -1.904,0 -3.84533,-0.52267 -1.94133,-0.56 -3.28533,-1.94133 l 3.39733,-3.77066 q 0.784,0.97066 1.71733,1.49333 0.97067,0.48533 2.24,0.48533 0.97067,0 1.75467,-0.26133 0.784,-0.29867 0.784,-1.04533 0,-0.70934 -0.70934,-1.04534 -0.672,-0.37333 -1.75466,-0.59733 -1.04534,-0.26133 -2.27733,-0.52266 -1.19467,-0.29867 -2.27734,-0.85867 -1.04533,-0.56 -1.75466,-1.568 -0.672,-1.04533 -0.672,-2.76266 0,-1.60534 0.63467,-2.76267 0.672,-1.15733 1.71733,-1.904 1.08266,-0.74666 2.464,-1.08266 1.38133,-0.37333 2.79999,-0.37333 1.792,0 3.62133,0.52266 1.82934,0.52267 3.09867,1.86667 z"
       id="path5" /></g><text
     xml:space="preserve"
     id="text3"
     style="font-weight:800;font-size:48px;font-family:Avenir;-inkscape-font-specification:'Avenir Ultra-Bold';writing-mode:lr-tb;direction:ltr;white-space:pre;shape-inside:url(#rect3);display:inline;fill:#481212;fill-opacity:1;stroke-width:0.8" /><path
     d="m 111.23733,361.13595 v 10.86402 h 2.93068 v -10.86402 h 3.99467 v -2.464 h -10.92002 v 2.464 z m 5.99201,4.18134 q 0.056,-0.93333 0.46667,-1.54934 0.41067,-0.616 1.04534,-0.98933 0.63466,-0.37333 1.41867,-0.52267 0.80266,-0.168 1.60533,-0.168 0.728,0 1.47467,0.112 0.74667,0.0933 1.36267,0.392 0.616,0.29867 1.008,0.84 0.392,0.52267 0.392,1.40001 v 5.02134 q 0,0.65333 0.0747,1.25067 0.0747,0.59733 0.26133,0.896 h -2.688 q -0.0747,-0.224 -0.13067,-0.448 -0.0373,-0.24267 -0.056,-0.48534 -0.63467,0.65334 -1.49333,0.91467 -0.85867,0.26134 -1.75467,0.26134 -0.69067,0 -1.28801,-0.168 -0.59733,-0.168 -1.04533,-0.52267 -0.448,-0.35467 -0.70934,-0.896 -0.24266,-0.54134 -0.24266,-1.28801 0,-0.82133 0.28,-1.344 0.29866,-0.54133 0.74667,-0.85867 0.46666,-0.31733 1.04533,-0.46666 0.59734,-0.168 1.19467,-0.26134 0.59733,-0.0933 1.176,-0.14933 0.57867,-0.056 1.02667,-0.168 0.448,-0.112 0.70933,-0.31734 0.26134,-0.224 0.24267,-0.63466 0,-0.42934 -0.14933,-0.672 -0.13067,-0.26134 -0.37334,-0.392 -0.224,-0.14934 -0.54133,-0.18667 -0.29867,-0.056 -0.65333,-0.056 -0.78401,0 -1.23201,0.336 -0.448,0.336 -0.52266,1.12 z m 6.12268,1.96 q -0.168,0.14934 -0.42933,0.24267 -0.24267,0.0747 -0.54134,0.13067 -0.28,0.056 -0.59733,0.0933 -0.31733,0.0373 -0.63467,0.0933 -0.29867,0.056 -0.59733,0.14933 -0.28,0.0933 -0.504,0.26133 -0.20534,0.14934 -0.336,0.392 -0.13067,0.24267 -0.13067,0.616 0,0.35467 0.13067,0.59734 0.13066,0.24267 0.35466,0.392 0.224,0.13067 0.52267,0.18667 0.29867,0.056 0.616,0.056 0.784,0 1.21334,-0.26134 0.42933,-0.26133 0.63466,-0.616 0.20534,-0.37333 0.24267,-0.74667 0.056,-0.37333 0.056,-0.59733 z m 9.46401,5.91735 4.03201,-10.84535 h -2.74401 l -2.10934,6.60801 h -0.0373 l -2.184,-6.60801 h -2.81868 l 3.37868,9.05335 q 0.112,0.28 0.112,0.59733 0,0.42933 -0.26134,0.784 -0.24266,0.35467 -0.76533,0.41067 -0.392,0.0187 -0.784,-0.0187 -0.392,-0.0373 -0.76534,-0.0747 v 2.18401 q 0.41067,0.0373 0.80267,0.056 0.41067,0.0373 0.82134,0.0373 1.36266,0 2.128,-0.504 0.76533,-0.504 1.19467,-1.68 z m 5.00266,-14.52269 v 13.32802 h 2.65067 v -13.32802 z m 7.09333,8.51201 q 0,-0.57867 0.112,-1.13867 0.112,-0.56 0.37334,-0.98933 0.28,-0.42934 0.728,-0.69067 0.448,-0.28 1.12,-0.28 0.672,0 1.12,0.28 0.46667,0.26133 0.728,0.69067 0.28,0.42933 0.392,0.98933 0.11201,0.56 0.11201,1.13867 0,0.57867 -0.11201,1.13867 -0.112,0.54133 -0.392,0.98933 -0.26133,0.42934 -0.728,0.69067 -0.448,0.26134 -1.12,0.26134 -0.672,0 -1.12,-0.26134 -0.448,-0.26133 -0.728,-0.69067 -0.26134,-0.448 -0.37334,-0.98933 -0.112,-0.56 -0.112,-1.13867 z m -2.65067,0 q 0,1.15734 0.35467,2.09067 0.35467,0.93334 1.008,1.60534 0.65334,0.65333 1.568,1.008 0.91467,0.35467 2.05334,0.35467 1.13867,0 2.05334,-0.35467 0.93333,-0.35467 1.58667,-1.008 0.65333,-0.672 1.008,-1.60534 0.35467,-0.93333 0.35467,-2.09067 0,-1.15733 -0.35467,-2.09067 -0.35467,-0.952 -1.008,-1.60534 -0.65334,-0.672 -1.58667,-1.02666 -0.91467,-0.37334 -2.05334,-0.37334 -1.13867,0 -2.05334,0.37334 -0.91466,0.35466 -1.568,1.02666 -0.65333,0.65334 -1.008,1.60534 -0.35467,0.93334 -0.35467,2.09067 z m 11.70402,-4.83467 v 9.65068 h 2.65067 v -4.34934 q 0,-0.65334 0.13067,-1.21334 0.13067,-0.56 0.42934,-0.97067 0.31733,-0.42933 0.82133,-0.672 0.504,-0.24266 1.232,-0.24266 0.24267,0 0.504,0.0373 0.26134,0.0187 0.448,0.056 v -2.464 q -0.31733,-0.0933 -0.57866,-0.0933 -0.504,0 -0.97067,0.14934 -0.46667,0.14933 -0.87734,0.42933 -0.41066,0.26133 -0.728,0.65333 -0.31733,0.37334 -0.504,0.82134 h -0.0373 v -1.792 z m 12.73069,-3.67734 v 13.32802 h 2.93067 v -5.74934 h 5.39468 v 5.74934 h 2.93067 v -13.32802 h -2.93067 v 5.11467 h -5.39468 v -5.11467 z m 22.60536,13.32802 v -9.65068 h -2.65067 v 5.05867 q 0,1.47467 -0.48534,2.12801 -0.48533,0.63466 -1.568,0.63466 -0.952,0 -1.32534,-0.57866 -0.37333,-0.59734 -0.37333,-1.79201 v -5.45067 h -2.65067 v 5.93601 q 0,0.896 0.14933,1.64267 0.168,0.728 0.56,1.25066 0.392,0.50401 1.064,0.78401 0.69067,0.28 1.75467,0.28 0.84001,0 1.64267,-0.37334 0.80267,-0.37333 1.30667,-1.21333 h 0.056 v 1.344 z m 2.09067,-9.65068 v 9.65068 h 2.65068 v -5.60001 q 0,-0.70934 0.20533,-1.13867 0.20533,-0.448 0.48533,-0.672 0.29867,-0.24267 0.59734,-0.31733 0.31733,-0.0933 0.504,-0.0933 0.63467,0 0.952,0.224 0.336,0.20534 0.46667,0.56 0.14933,0.35467 0.168,0.784 0.0187,0.41067 0.0187,0.84001 v 5.41334 h 2.65068 v -5.37601 q 0,-0.448 0.056,-0.87734 0.0747,-0.448 0.26133,-0.784 0.20533,-0.35466 0.54133,-0.56 0.35467,-0.224 0.91467,-0.224 0.56,0 0.87734,0.18667 0.336,0.18667 0.504,0.504 0.168,0.31733 0.20533,0.74667 0.0373,0.42933 0.0373,0.91467 v 5.46934 h 2.65067 v -6.45868 q 0,-0.93333 -0.26134,-1.58667 -0.26133,-0.672 -0.728,-1.08267 -0.46667,-0.41066 -1.12,-0.59733 -0.65333,-0.18667 -1.41867,-0.18667 -1.008,0 -1.75467,0.48534 -0.728,0.48533 -1.15733,1.12 -0.39201,-0.896 -1.15734,-1.25067 -0.74667,-0.35467 -1.66134,-0.35467 -0.952,0 -1.69867,0.41067 -0.728,0.41067 -1.25066,1.15733 h -0.0373 v -1.30666 z m 16.91204,0 v 9.65068 h 2.65067 v -5.60001 q 0,-0.70934 0.20533,-1.13867 0.20534,-0.448 0.48534,-0.672 0.29866,-0.24267 0.59733,-0.31733 0.31733,-0.0933 0.504,-0.0933 0.63467,0 0.952,0.224 0.336,0.20534 0.46667,0.56 0.14933,0.35467 0.168,0.784 0.0187,0.41067 0.0187,0.84001 v 5.41334 h 2.65067 v -5.37601 q 0,-0.448 0.056,-0.87734 0.0747,-0.448 0.26133,-0.784 0.20534,-0.35466 0.54134,-0.56 0.35466,-0.224 0.91467,-0.224 0.56,0 0.87733,0.18667 0.336,0.18667 0.504,0.504 0.168,0.31733 0.20534,0.74667 0.0373,0.42933 0.0373,0.91467 v 5.46934 h 2.65067 v -6.45868 q 0,-0.93333 -0.26133,-1.58667 -0.26134,-0.672 -0.728,-1.08267 -0.46667,-0.41066 -1.12001,-0.59733 -0.65333,-0.18667 -1.41867,-0.18667 -1.008,0 -1.75467,0.48534 -0.728,0.48533 -1.15733,1.12 -0.392,-0.896 -1.15734,-1.25067 -0.74666,-0.35467 -1.66133,-0.35467 -0.952,0 -1.69867,0.41067 -0.728,0.41067 -1.25067,1.15733 h -0.0373 v -1.30666 z m 19.18937,4.83467 q 0,-0.57867 0.112,-1.13867 0.112,-0.56 0.37333,-0.98933 0.28,-0.42934 0.728,-0.69067 0.448,-0.28 1.12001,-0.28 0.672,0 1.12,0.28 0.46666,0.26133 0.728,0.69067 0.28,0.42933 0.392,0.98933 0.112,0.56 0.112,1.13867 0,0.57867 -0.112,1.13867 -0.112,0.54133 -0.392,0.98933 -0.26134,0.42934 -0.728,0.69067 -0.448,0.26134 -1.12,0.26134 -0.67201,0 -1.12001,-0.26134 -0.448,-0.26133 -0.728,-0.69067 -0.26133,-0.448 -0.37333,-0.98933 -0.112,-0.56 -0.112,-1.13867 z m -2.65067,0 q 0,1.15734 0.35466,2.09067 0.35467,0.93334 1.00801,1.60534 0.65333,0.65333 1.568,1.008 0.91467,0.35467 2.05334,0.35467 1.13866,0 2.05333,-0.35467 0.93334,-0.35467 1.58667,-1.008 0.65334,-0.672 1.008,-1.60534 0.35467,-0.93333 0.35467,-2.09067 0,-1.15733 -0.35467,-2.09067 -0.35466,-0.952 -1.008,-1.60534 -0.65333,-0.672 -1.58667,-1.02666 -0.91467,-0.37334 -2.05333,-0.37334 -1.13867,0 -2.05334,0.37334 -0.91467,0.35466 -1.568,1.02666 -0.65334,0.65334 -1.00801,1.60534 -0.35466,0.93334 -0.35466,2.09067 z m 11.70403,-4.83467 v 9.65068 h 2.65067 v -5.05868 q 0,-1.47467 0.48533,-2.10933 0.48534,-0.65334 1.56801,-0.65334 0.952,0 1.32533,0.59734 0.37334,0.57866 0.37334,1.77333 v 5.45068 h 2.65067 v -5.93601 q 0,-0.896 -0.168,-1.624 -0.14934,-0.74667 -0.54134,-1.25067 -0.392,-0.52267 -1.08267,-0.80267 -0.672,-0.29867 -1.736,-0.29867 -0.84,0 -1.64267,0.392 -0.80267,0.37334 -1.30667,1.21334 h -0.056 v -1.344 z"
     id="text4"
     style="font-weight:bold;font-size:18.6667px;font-family:'Helvetica Neue';-inkscape-font-specification:'Helvetica Neue Bold';fill:#481212;stroke-width:0.8"
     aria-label="Taylor Hummon" /></svg>
