<?xml version="1.0" encoding="UTF-8" standalone="no"?>
<svg
   width="400"
   height="475"
   viewBox="0 0 400 475"
   id="svg2"
   version="1.1"
   xml:space="preserve"
   sodipodi:docname="taylors_guide_to_scales_cover.svg"
   inkscape:version="1.4.3 (0d15f75, 2025-12-25)"
   xmlns:inkscape="http://www.inkscape.org/namespaces/inkscape"
   xmlns:sodipodi="http://sodipodi.sourceforge.net/DTD/sodipodi-0.dtd"
   xmlns="http://www.w3.org/2000/svg"
   xmlns:svg="http://www.w3.org/2000/svg"
   xmlns:rdf="http://www.w3.org/1999/02/22-rdf-syntax-ns#"
   xmlns:cc="http://creativecommons.org/ns#"
   xmlns:dc="http://purl.org/dc/elements/1.1/"><sodipodi:namedview
     id="namedview1"
     pagecolor="#ffffff"
     bordercolor="#000000"
     borderopacity="0.25"
     inkscape:showpageshadow="2"
     inkscape:pageopacity="0.0"
     inkscape:pagecheckerboard="0"
     inkscape:deskcolor="#d1d1d1"
     inkscape:zoom="1.0000001"
     inkscape:cx="194.99998"
     inkscape:cy="283.99997"
     inkscape:window-width="1512"
     inkscape:window-height="921"
     inkscape:window-x="0"
     inkscape:window-y="33"
     inkscape:window-maximized="0"
     inkscape:current-layer="svg2"
     showgrid="false"><inkscape:grid
       id="grid1"
       units="px"
       originx="0"
       originy="0"
       spacingx="1"
       spacingy="1"
       empcolor="#0099e5"
       empopacity="0.30196078"
       color="#0099e5"
       opacity="0.14901961"
       empspacing="5"
       enabled="true"
       visible="false" /></sodipodi:namedview><defs
     id="defs4"><filter
       style="color-interpolation-filters:sRGB"
       id="filter8603"
       x="-0.013048176"
       width="1.0260964"
       y="-0.011107704"
       height="1.0222154"><feGaussianBlur
         stdDeviation="2.164541"
         id="feGaussianBlur8605" /></filter></defs><metadata
     id="metadata7"><rdf:RDF><cc:Work
         rdf:about=""><dc:format>image/svg+xml</dc:format><dc:type
           rdf:resource="http://purl.org/dc/dcmitype/StillImage" /></cc:Work></rdf:RDF></metadata><rect
     y="7.3157396"
     x="-1.1132812e-06"
     height="467.68427"
     width="398.13214"
     id="rect4502"
     style="color:#000000;clip-rule:nonzero;display:inline;overflow:visible;visibility:visible;isolation:auto;mix-blend-mode:normal;color-interpolation:sRGB;color-interpolation-filters:linearRGB;solid-color:#000000;solid-opacity:1;fill:#e1e6f1;fill-opacity:1;fill-rule:nonzero;stroke:none;stroke-width:2;stroke-linecap:butt;stroke-linejoin:miter;stroke-miterlimit:4;stroke-dasharray:none;stroke-dashoffset:0;stroke-opacity:1;filter:url(#filter8603);color-rendering:auto;image-rendering:auto;shape-rendering:auto;text-rendering:auto;enable-background:accumulate"
     ry="2.2321417"
     transform="matrix(0.98728367,0,0,0.98913373,5.1288392,0.02304565)" /><rect
     y="0.21581759"
     x="10.434875"
     height="459.78418"
     width="389.56512"
     id="rect4504"
     style="color:#000000;clip-rule:nonzero;display:inline;overflow:visible;visibility:visible;isolation:auto;mix-blend-mode:normal;color-interpolation:sRGB;color-interpolation-filters:linearRGB;solid-color:#000000;solid-opacity:1;fill:#f6f2ed;fill-opacity:1;fill-rule:nonzero;stroke:#000000;stroke-width:0.8;stroke-linecap:butt;stroke-linejoin:miter;stroke-miterlimit:4;stroke-dasharray:none;stroke-dashoffset:0;stroke-opacity:1;color-rendering:auto;image-rendering:auto;shape-rendering:auto;text-rendering:auto;enable-background:accumulate" /><g
     aria-label="Taylor Hummon"
     style="font-style:normal;font-variant:normal;font-weight:normal;font-stretch:normal;font-size:9.6px;line-height:0%;font-family:'Latin Modern Sans';-inkscape-font-specification:'Latin Modern Sans, Normal';text-align:start;letter-spacing:0px;word-spacing:0px;writing-mode:lr-tb;text-anchor:start;fill:#493746;fill-opacity:1;stroke:none;stroke-width:0.8px;stroke-linecap:butt;stroke-linejoin:miter;stroke-opacity:1"
     id="text4508"
     transform="translate(558.71856,20.17611)"><path
       style="font-weight:bold;font-size:12px;line-height:1.25;font-family:'Helvetica Neue';-inkscape-font-specification:'Helvetica Neue, Bold'"
       d="m -395.24896,335.52992 v 6.984 h 1.884 v -6.984 h 2.568 v -1.584 h -7.02 v 1.584 z m 3.852,2.688 q 0.036,-0.6 0.3,-0.996 0.264,-0.396 0.672,-0.636 0.408,-0.24 0.912,-0.336 0.516,-0.108 1.032,-0.108 0.468,0 0.948,0.072 0.48,0.06 0.876,0.252 0.396,0.192 0.648,0.54 0.252,0.336 0.252,0.9 v 3.228 q 0,0.42 0.048,0.804 0.048,0.384 0.168,0.576 h -1.728 q -0.048,-0.144 -0.084,-0.288 -0.024,-0.156 -0.036,-0.312 -0.408,0.42 -0.96,0.588 -0.552,0.168 -1.128,0.168 -0.444,0 -0.828,-0.108 -0.384,-0.108 -0.672,-0.336 -0.288,-0.228 -0.456,-0.576 -0.156,-0.348 -0.156,-0.828 0,-0.528 0.18,-0.864 0.192,-0.348 0.48,-0.552 0.3,-0.204 0.672,-0.3 0.384,-0.108 0.768,-0.168 0.384,-0.06 0.756,-0.096 0.372,-0.036 0.66,-0.108 0.288,-0.072 0.456,-0.204 0.168,-0.144 0.156,-0.408 0,-0.276 -0.096,-0.432 -0.084,-0.168 -0.24,-0.252 -0.144,-0.096 -0.348,-0.12 -0.192,-0.036 -0.42,-0.036 -0.504,0 -0.792,0.216 -0.288,0.216 -0.336,0.72 z m 3.936,1.26 q -0.108,0.096 -0.276,0.156 -0.156,0.048 -0.348,0.084 -0.18,0.036 -0.384,0.06 -0.204,0.024 -0.408,0.06 -0.192,0.036 -0.384,0.096 -0.18,0.06 -0.324,0.168 -0.132,0.096 -0.216,0.252 -0.084,0.156 -0.084,0.396 0,0.228 0.084,0.384 0.084,0.156 0.228,0.252 0.144,0.084 0.336,0.12 0.192,0.036 0.396,0.036 0.504,0 0.78,-0.168 0.276,-0.168 0.408,-0.396 0.132,-0.24 0.156,-0.48 0.036,-0.24 0.036,-0.384 z m 6.08399,3.804 2.592,-6.972 h -1.764 l -1.356,4.248 h -0.024 l -1.404,-4.248 h -1.812 l 2.172,5.82 q 0.072,0.18 0.072,0.384 0,0.276 -0.168,0.504 -0.156,0.228 -0.492,0.264 -0.252,0.012 -0.504,-0.012 -0.252,-0.024 -0.492,-0.048 v 1.404 q 0.264,0.024 0.516,0.036 0.264,0.024 0.528,0.024 0.876,0 1.368,-0.324 0.492,-0.324 0.768,-1.08 z m 3.21599,-9.336 v 8.568 h 1.704 v -8.568 z m 4.55999,5.472 q 0,-0.372 0.072,-0.732 0.072,-0.36 0.24,-0.636 0.18,-0.276 0.468,-0.444 0.288,-0.18 0.72,-0.18 0.432,0 0.72,0.18 0.3,0.168 0.468,0.444 0.18,0.276 0.252,0.636 0.072,0.36 0.072,0.732 0,0.372 -0.072,0.732 -0.072,0.348 -0.252,0.636 -0.168,0.276 -0.468,0.444 -0.288,0.168 -0.72,0.168 -0.432,0 -0.72,-0.168 -0.288,-0.168 -0.468,-0.444 -0.168,-0.288 -0.24,-0.636 -0.072,-0.36 -0.072,-0.732 z m -1.704,0 q 0,0.744 0.228,1.344 0.228,0.6 0.648,1.032 0.42,0.42 1.008,0.648 0.588,0.228 1.32,0.228 0.732,0 1.32,-0.228 0.6,-0.228 1.02,-0.648 0.42,-0.432 0.648,-1.032 0.228,-0.6 0.228,-1.344 0,-0.744 -0.228,-1.344 -0.228,-0.612 -0.648,-1.032 -0.42,-0.432 -1.02,-0.66 -0.588,-0.24 -1.32,-0.24 -0.732,0 -1.32,0.24 -0.588,0.228 -1.008,0.66 -0.42,0.42 -0.648,1.032 -0.228,0.6 -0.228,1.344 z m 7.524,-3.108 v 6.204 h 1.704 v -2.796 q 0,-0.42 0.084,-0.78 0.084,-0.36 0.276,-0.624 0.204,-0.276 0.528,-0.432 0.324,-0.156 0.792,-0.156 0.156,0 0.324,0.024 0.168,0.012 0.288,0.036 v -1.584 q -0.204,-0.06 -0.372,-0.06 -0.324,0 -0.624,0.096 -0.3,0.096 -0.564,0.276 -0.264,0.168 -0.468,0.42 -0.204,0.24 -0.324,0.528 h -0.024 v -1.152 z m 8.184,-2.364 v 8.568 h 1.884 v -3.696 h 3.468 v 3.696 h 1.884 v -8.568 h -1.884 v 3.288 h -3.468 v -3.288 z m 14.53199,8.568 v -6.204 h -1.704 v 3.252 q 0,0.948 -0.312,1.368 -0.312,0.408 -1.008,0.408 -0.612,0 -0.852,-0.372 -0.24,-0.384 -0.24,-1.152 v -3.504 h -1.704 v 3.816 q 0,0.576 0.096,1.056 0.108,0.468 0.36,0.804 0.252,0.324 0.684,0.504 0.444,0.18 1.128,0.18 0.54,0 1.056,-0.24 0.516,-0.24 0.84,-0.78 h 0.036 v 0.864 z m 1.34401,-6.204 v 6.204 h 1.704 v -3.6 q 0,-0.456 0.132,-0.732 0.132,-0.288 0.312,-0.432 0.192,-0.156 0.384,-0.204 0.204,-0.06 0.324,-0.06 0.408,0 0.612,0.144 0.216,0.132 0.3,0.36 0.096,0.228 0.108,0.504 0.012,0.264 0.012,0.54 v 3.48 h 1.704 v -3.456 q 0,-0.288 0.036,-0.564 0.048,-0.288 0.168,-0.504 0.132,-0.228 0.348,-0.36 0.228,-0.144 0.588,-0.144 0.36,0 0.564,0.12 0.216,0.12 0.324,0.324 0.108,0.204 0.132,0.48 0.024,0.276 0.024,0.588 v 3.516 h 1.704 v -4.152 q 0,-0.6 -0.168,-1.02 -0.168,-0.432 -0.468,-0.696 -0.3,-0.264 -0.72,-0.384 -0.42,-0.12 -0.912,-0.12 -0.648,0 -1.128,0.312 -0.468,0.312 -0.744,0.72 -0.252,-0.576 -0.744,-0.804 -0.48,-0.228 -1.068,-0.228 -0.612,0 -1.092,0.264 -0.468,0.264 -0.804,0.744 h -0.024 v -0.84 z m 10.872,0 v 6.204 h 1.704 v -3.6 q 0,-0.456 0.132,-0.732 0.132,-0.288 0.312,-0.432 0.192,-0.156 0.384,-0.204 0.204,-0.06 0.324,-0.06 0.408,0 0.612,0.144 0.216,0.132 0.3,0.36 0.096,0.228 0.108,0.504 0.012,0.264 0.012,0.54 v 3.48 h 1.704 v -3.456 q 0,-0.288 0.036,-0.564 0.048,-0.288 0.168,-0.504 0.132,-0.228 0.348,-0.36 0.228,-0.144 0.588,-0.144 0.36,0 0.564,0.12 0.216,0.12 0.324,0.324 0.108,0.204 0.132,0.48 0.024,0.276 0.024,0.588 v 3.516 h 1.704 v -4.152 q 0,-0.6 -0.168,-1.02 -0.168,-0.432 -0.468,-0.696 -0.3,-0.264 -0.72,-0.384 -0.42,-0.12 -0.912,-0.12 -0.648,0 -1.128,0.312 -0.468,0.312 -0.744,0.72 -0.252,-0.576 -0.744,-0.804 -0.48,-0.228 -1.068,-0.228 -0.612,0 -1.092,0.264 -0.468,0.264 -0.804,0.744 h -0.024 v -0.84 z m 12.336,3.108 q 0,-0.372 0.072,-0.732 0.072,-0.36 0.24,-0.636 0.18,-0.276 0.468,-0.444 0.288,-0.18 0.72,-0.18 0.432,0 0.72,0.18 0.3,0.168 0.468,0.444 0.18,0.276 0.252,0.636 0.072,0.36 0.072,0.732 0,0.372 -0.072,0.732 -0.072,0.348 -0.252,0.636 -0.168,0.276 -0.468,0.444 -0.288,0.168 -0.72,0.168 -0.432,0 -0.72,-0.168 -0.288,-0.168 -0.468,-0.444 -0.168,-0.288 -0.24,-0.636 -0.072,-0.36 -0.072,-0.732 z m -1.704,0 q 0,0.744 0.228,1.344 0.228,0.6 0.648,1.032 0.42,0.42 1.008,0.648 0.588,0.228 1.32,0.228 0.732,0 1.32,-0.228 0.6,-0.228 1.02,-0.648 0.42,-0.432 0.648,-1.032 0.228,-0.6 0.228,-1.344 0,-0.744 -0.228,-1.344 -0.228,-0.612 -0.648,-1.032 -0.42,-0.432 -1.02,-0.66 -0.588,-0.24 -1.32,-0.24 -0.732,0 -1.32,0.24 -0.588,0.228 -1.008,0.66 -0.42,0.42 -0.648,1.032 -0.228,0.6 -0.228,1.344 z m 7.524,-3.108 v 6.204 h 1.704 v -3.252 q 0,-0.948 0.312,-1.356 0.312,-0.42 1.008,-0.42 0.612,0 0.852,0.384 0.24,0.372 0.24,1.14 v 3.504 h 1.704 v -3.816 q 0,-0.576 -0.108,-1.044 -0.096,-0.48 -0.348,-0.804 -0.252,-0.336 -0.696,-0.516 -0.432,-0.192 -1.116,-0.192 -0.54,0 -1.056,0.252 -0.516,0.24 -0.84,0.78 h -0.036 v -0.864 z"
       id="text3890"
       aria-label="Taylor Hummon" /></g><circle
     style="fill:#493746;fill-opacity:1;stroke:none;stroke-width:0.639304;stroke-dasharray:none;stroke-opacity:1"
     id="circle4"
     cx="277.01794"
     cy="234.40648"
     r="2.8720195" /><circle
     style="fill:#493746;fill-opacity:1;stroke:none;stroke-width:0.639304;stroke-dasharray:none;stroke-opacity:1"
     id="circle6"
     cx="240.31035"
     cy="103.95115"
     r="2.8720198"
     transform="rotate(15)" /><circle
     style="fill:#493746;fill-opacity:1;stroke:none;stroke-width:0.639304;stroke-dasharray:none;stroke-opacity:1"
     id="circle7"
     cx="205.21744"
     cy="306.20694"
     r="2.8720195" /><circle
     style="fill:#493746;fill-opacity:1;stroke:none;stroke-width:0.639304;stroke-dasharray:none;stroke-opacity:1"
     id="circle8"
     cx="133.41696"
     cy="234.40648"
     r="2.8720195" /><circle
     style="fill:#493746;fill-opacity:1;stroke:none;stroke-width:0.639304;stroke-dasharray:none;stroke-opacity:1"
     id="circle10"
     cx="366.72729"
     cy="100.39324"
     r="2.8720198"
     transform="rotate(29.999999)" /><circle
     style="fill:#493746;fill-opacity:1;stroke:none;stroke-width:0.639304;stroke-dasharray:none;stroke-opacity:1"
     id="circle11"
     cx="294.92679"
     cy="28.592762"
     r="2.8720198"
     transform="rotate(29.999999)" /><circle
     style="fill:#493746;fill-opacity:1;stroke:none;stroke-width:0.639304;stroke-dasharray:none;stroke-opacity:1"
     id="circle12"
     cx="294.92679"
     cy="172.19377"
     r="2.8720198"
     transform="rotate(29.999999)" /><circle
     style="fill:#493746;fill-opacity:1;stroke:none;stroke-width:0.639304;stroke-dasharray:none;stroke-opacity:1"
     id="circle13"
     cx="223.12631"
     cy="100.39324"
     r="2.8720198"
     transform="rotate(29.999999)" /><circle
     style="fill:#493746;fill-opacity:1;stroke:none;stroke-width:0.639304;stroke-dasharray:none;stroke-opacity:1"
     id="circle15"
     cx="132.32083"
     cy="305.61069"
     r="2.8720198"
     transform="rotate(-29.999999)" /><circle
     style="fill:#493746;fill-opacity:1;stroke:none;stroke-width:0.639304;stroke-dasharray:none;stroke-opacity:1"
     id="circle16"
     cx="60.520348"
     cy="233.8102"
     r="2.8720198"
     transform="rotate(-29.999999)" /><circle
     style="fill:#493746;fill-opacity:1;stroke:none;stroke-width:0.639304;stroke-dasharray:none;stroke-opacity:1"
     id="circle17"
     cx="60.520348"
     cy="377.41119"
     r="2.8720198"
     transform="rotate(-29.999999)" /><circle
     style="fill:#493746;fill-opacity:1;stroke:none;stroke-width:0.639304;stroke-dasharray:none;stroke-opacity:1"
     id="circle18"
     cx="-11.280189"
     cy="305.61069"
     r="2.8720198"
     transform="rotate(-29.999999)" /><circle
     style="fill:none;fill-opacity:0.99511;stroke:#493746;stroke-width:1.43601;stroke-dasharray:none;stroke-opacity:1"
     id="path7"
     cx="205.21744"
     cy="234.40648"
     r="71.800491" /><path
     style="fill:none;fill-opacity:1;stroke:#b32050;stroke-width:1.43601;stroke-opacity:1"
     d="m 205.21744,162.60598 -35.90023,133.98154 98.08129,-98.0813 -133.98154,35.90025 133.98154,35.90024 -98.08129,-98.08129 35.90024,133.98154 35.90025,-133.98154 -98.08129,98.08129 133.98153,-35.90024 -133.98153,-35.90025 98.08129,98.0813 z"
     id="path17" /><path
     d="M 66.319889,93.701489 H 62.053217 V 110.98151 H 59.733214 V 93.701489 h -4.293339 v -2.240003 h 10.880014 z"
     id="text23"
     style="font-size:26.6667px;font-family:'Heiti TC';-inkscape-font-specification:'Heiti TC';fill:#411818"
     aria-label="T" /><path
     d="m 82.879927,110.98151 h -2.160003 v -2.13334 q -2.373336,2.61334 -5.466674,2.61334 -3.093337,0 -5.306673,-2.26667 -2.186669,-2.29333 -2.186669,-5.44001 0,-3.17333 2.213336,-5.413336 2.213336,-2.266669 5.386673,-2.266669 3.200004,0 5.360007,2.58667 v -2.213336 h 2.160003 z m -7.466676,-1.57333 q 2.213336,0 3.813338,-1.60001 1.600002,-1.6 1.600002,-3.97334 0,-2.4 -1.573336,-4 -1.573335,-1.626669 -3.866671,-1.626669 -2.26667,0 -3.840005,1.680002 -1.573335,1.653337 -1.573335,3.920007 0,2.26667 1.600002,3.94667 1.600002,1.65334 3.840005,1.65334 z"
     id="text22"
     style="font-size:26.6667px;font-family:'Heiti TC';-inkscape-font-specification:'Heiti TC';fill:#411818"
     aria-label="a" /><path
     d="m 99.013295,96.448159 -8.613344,19.680021 h -2.293336 l 2.800003,-6.4 -5.89334,-13.280021 h 2.293336 l 4.773339,10.640011 4.613339,-10.640011 z"
     id="text21"
     style="font-size:26.6667px;font-family:'Heiti TC';-inkscape-font-specification:'Heiti TC';fill:#411818"
     aria-label="y" /><path
     d="m 102.82661,110.98151 h -2.18667 V 90.981485 h 2.18667 z"
     id="text20"
     style="font-size:26.6667px;font-family:'Heiti TC';-inkscape-font-specification:'Heiti TC';fill:#411818"
     aria-label="l" /><path
     d="m 113.14665,96.074825 q 3.14667,0 5.33334,2.266669 2.21333,2.266666 2.21333,5.440006 0,3.17334 -2.18666,5.44001 -2.16001,2.24 -5.36001,2.24 -3.20001,0 -5.38667,-2.24 -2.18667,-2.26667 -2.18667,-5.44001 0,-3.17334 2.18667,-5.440006 2.21333,-2.266669 5.38667,-2.266669 z m 0,13.280015 q 2.21333,0 3.76,-1.6 1.57334,-1.62667 1.57334,-3.89334 0,-2.29333 -1.6,-3.94667 -1.57334,-1.680002 -3.76001,-1.680002 -2.16,0 -3.73334,1.680002 -1.57333,1.65334 -1.57333,3.94667 0,2.29334 1.52,3.89334 1.52,1.6 3.81334,1.6 z"
     id="text19"
     style="font-size:26.6667px;font-family:'Heiti TC';-inkscape-font-specification:'Heiti TC';fill:#411818"
     aria-label="o" /><path
     d="m 129.84002,96.661492 -1.14667,1.866669 q -0.45333,-0.24 -0.88,-0.24 -0.82667,0 -1.49333,0.826668 -0.66667,0.800001 -1.01334,2.133331 -0.32,1.30667 -0.32,4.74668 v 4.98667 h -2.24 V 96.448159 h 2.24 v 1.573335 q 0.66667,-0.986668 1.33334,-1.466668 0.69333,-0.480001 1.54666,-0.480001 0.88001,0 1.97334,0.586667 z"
     id="text18"
     style="font-size:26.6667px;font-family:'Heiti TC';-inkscape-font-specification:'Heiti TC';fill:#411818"
     aria-label="r" /><path
     d="m 133.68004,89.64815 -0.29333,6.400008 h -1.70667 l -0.29333,-6.400008 z"
     id="text17"
     style="font-size:26.6667px;font-family:'Heiti TC';-inkscape-font-specification:'Heiti TC';fill:#411818"
     aria-label="'" /><path
     d="m 144.58673,98.154828 -1.41333,1.466668 q -1.57334,-1.466668 -2.88001,-1.466668 -0.82667,0 -1.38667,0.533334 -0.56,0.506667 -0.56,1.280001 0,0.746667 0.61334,1.333337 0.64,0.56 2.24,1.41333 1.6,0.82667 2.45334,1.84001 0.88,1.01333 0.88,2.48 0,1.86667 -1.30667,3.14667 -1.28,1.28 -3.17334,1.28 -2.64,0 -4.4,-2.24 l 1.38666,-1.54667 q 1.44001,1.68 2.93334,1.68 1.01334,0 1.73334,-0.66667 0.72,-0.66666 0.72,-1.54666 0,-0.90667 -0.66667,-1.49334 -0.64,-0.61333 -2.24,-1.41333 -1.57334,-0.80001 -2.40001,-1.76001 -0.8,-0.98666 -0.8,-2.56 0,-1.600002 1.14667,-2.720004 1.17334,-1.120001 3.06667,-1.120001 1.92,0 4.05334,2.080003 z"
     id="text16"
     style="font-size:26.6667px;font-family:'Heiti TC';-inkscape-font-specification:'Heiti TC';fill:#411818"
     aria-label="s" /><path
     d="m 174.37343,101.43483 q -0.08,4.74667 -2.77334,7.38668 -2.66667,2.64 -7.04,2.64 -5.01334,0 -8.00001,-3.06667 -2.98667,-3.09334 -2.98667,-7.22668 0,-4.133334 2.98667,-7.146671 2.98667,-3.040004 7.70667,-3.040004 2.56001,0 4.74667,0.960001 2.21334,0.933335 4.32001,2.880004 l -1.76,1.680002 q -1.62667,-1.573335 -3.52001,-2.400003 -1.89333,-0.853334 -3.89333,-0.853334 -2.00001,0 -3.97334,1.066668 -1.97334,1.066668 -3.09334,2.880003 -1.12,1.813336 -1.12,3.920004 0,3.28001 2.45333,5.73334 2.48001,2.42667 6.18668,2.42667 2.74667,0 4.74667,-1.49333 2,-1.52001 2.45334,-4.13334 h -6.08001 v -2.21334 z"
     id="text15"
     style="font-size:26.6667px;font-family:'Heiti TC';-inkscape-font-specification:'Heiti TC';fill:#411818"
     aria-label="G" /><path
     d="m 189.81345,110.98151 h -2.21334 v -2.18667 q -2.16,2.56 -5.12001,2.56 -1.57333,0 -2.85333,-0.8 -1.28001,-0.82666 -1.92001,-2.24 -0.64,-1.44 -0.64,-4.40001 v -7.466671 h 2.18667 v 6.933341 q 0,2.4 0.21334,3.28 0.24,0.85334 0.66666,1.46667 0.45334,0.58667 1.12,0.88 0.69334,0.29334 1.65334,0.29334 0.98667,0 1.92,-0.48 0.93334,-0.48 1.6,-1.33334 0.66667,-0.85333 0.90667,-1.81333 0.26667,-0.96 0.26667,-3.84001 v -5.386671 h 2.21334 z"
     id="text14"
     style="font-size:26.6667px;font-family:'Heiti TC';-inkscape-font-specification:'Heiti TC';fill:#411818"
     aria-label="u" /><path
     d="m 194.32011,90.981485 q 0.72,0 1.2,0.506667 0.50667,0.480001 0.50667,1.200002 0,0.693334 -0.50667,1.200001 -0.48,0.480001 -1.2,0.480001 -0.69333,0 -1.2,-0.506667 -0.48,-0.506668 -0.48,-1.173335 0,-0.693334 0.48,-1.200002 0.50667,-0.506667 1.2,-0.506667 z m 1.12,20.000025 h -2.21333 V 96.448159 h 2.21333 z"
     id="text13"
     style="font-size:26.6667px;font-family:'Heiti TC';-inkscape-font-specification:'Heiti TC';fill:#411818"
     aria-label="i" /><path
     d="m 213.33349,110.98151 h -2.16 v -2.13334 q -2.37334,2.61334 -5.49334,2.61334 -3.09334,0 -5.28001,-2.26667 -2.18667,-2.26667 -2.18667,-5.44001 0,-3.17333 2.21334,-5.413336 2.21333,-2.266669 5.38667,-2.266669 3.2,0 5.36001,2.58667 v -7.68001 h 2.16 z m -7.46668,-1.57333 q 2.10667,0 3.76001,-1.57334 1.65333,-1.57334 1.65333,-3.97334 0,-2.42667 -1.54667,-4.02667 -1.52,-1.626669 -3.86667,-1.626669 -2.32,0 -3.89334,1.680002 -1.54666,1.653337 -1.54666,3.920007 0,2.24 1.6,3.92 1.6,1.68001 3.84,1.68001 z"
     id="text12"
     style="font-size:26.6667px;font-family:'Heiti TC';-inkscape-font-specification:'Heiti TC';fill:#411818"
     aria-label="d" /><path
     d="m 231.4135,104.1015 h -12.74668 q 0.13333,2.4 1.6,3.86667 1.49333,1.44001 3.54667,1.44001 3.49334,0 5.33334,-3.44001 l 1.86667,0.96 q -1.25334,2.32 -2.96,3.44001 -1.70667,1.09333 -4.08001,1.09333 -3.28,0 -5.41334,-2.24 -2.13334,-2.26667 -2.13334,-5.44001 0,-3.17334 2.13334,-5.440006 2.16,-2.266669 5.33334,-2.266669 3.17334,0 5.30667,2.160003 2.13334,2.133332 2.21334,5.866672 z m -2.45334,-1.94667 q -0.4,-1.86667 -1.81333,-2.906668 -1.41334,-1.040001 -3.25334,-1.040001 -3.73334,0 -4.96001,3.946669 z"
     id="text11"
     style="font-size:26.6667px;font-family:'Heiti TC';-inkscape-font-specification:'Heiti TC';fill:#411818"
     aria-label="e" /><path
     d="m 247.78685,98.368161 h -2.88 v 10.186679 q 0,0.56 0.16,0.69333 0.16,0.10667 0.8,0.10667 h 1.28 v 1.89334 q -1.28,0.21333 -1.94667,0.21333 -1.28,0 -1.89333,-0.61333 -0.61334,-0.64 -0.61334,-2.00001 V 98.368161 h -2.50667 v -1.920002 h 2.50667 v -5.466674 h 2.21334 v 5.466674 h 2.88 z"
     id="text10"
     style="font-size:26.6667px;font-family:'Heiti TC';-inkscape-font-specification:'Heiti TC';fill:#411818"
     aria-label="t" /><path
     d="m 257.04021,96.074825 q 3.14667,0 5.33334,2.266669 2.21334,2.266666 2.21334,5.440006 0,3.17334 -2.18667,5.44001 -2.16,2.24 -5.36001,2.24 -3.2,0 -5.38667,-2.24 -2.18667,-2.26667 -2.18667,-5.44001 0,-3.17334 2.18667,-5.440006 2.21333,-2.266669 5.38667,-2.266669 z m 0,13.280015 q 2.21334,0 3.76001,-1.6 1.57333,-1.62667 1.57333,-3.89334 0,-2.29333 -1.6,-3.94667 -1.57334,-1.680002 -3.76001,-1.680002 -2.16,0 -3.73333,1.680002 -1.57334,1.65334 -1.57334,3.94667 0,2.29334 1.52,3.89334 1.52,1.6 3.81334,1.6 z"
     id="text9"
     style="font-size:26.6667px;font-family:'Heiti TC';-inkscape-font-specification:'Heiti TC';fill:#411818"
     aria-label="o" /><path
     d="m 282.08026,95.754825 q -1.06667,-1.440002 -1.81334,-1.920003 -0.74667,-0.506667 -1.76,-0.506667 -0.98667,0 -1.68,0.640001 -0.66667,0.64 -0.66667,1.653335 0,0.986668 0.64,1.733336 0.64,0.746667 2.93334,2.453336 2.32,1.680007 3.38667,3.173337 1.06667,1.49334 1.06667,3.14667 0,2.16 -1.68001,3.76001 -1.65333,1.57333 -3.86667,1.57333 -3.89334,0 -6.10667,-4.34667 l 1.94667,-1.12 q 1.73333,3.22667 3.89333,3.22667 1.38667,0 2.37334,-0.88 0.98667,-0.88 0.98667,-2.05334 0,-1.17333 -0.82667,-2.21333 -0.82667,-1.06667 -2.85334,-2.58667 -2.02667,-1.546674 -2.8,-2.346675 -0.74667,-0.800001 -1.09333,-1.706668 -0.34667,-0.906668 -0.34667,-1.813336 0,-1.946669 1.33333,-3.280004 1.36001,-1.360002 3.49334,-1.360002 1.65334,0 2.88001,0.853335 1.22666,0.826667 2.4,2.480003 z"
     id="text8"
     style="font-size:26.6667px;font-family:'Heiti TC';-inkscape-font-specification:'Heiti TC';fill:#411818"
     aria-label="S" /><path
     d="m 301.76026,108.02151 q -1.14667,1.68 -3.01333,2.56 -1.84001,0.88 -4.00001,0.88 -3.36,0 -5.62667,-2.21334 -2.24001,-2.21333 -2.24001,-5.41334 0,-3.2 2.26667,-5.466669 2.26667,-2.293336 5.86668,-2.293336 2.13333,0 3.92,0.933334 1.81334,0.933335 2.82667,2.613337 l -1.73333,1.093334 q -1.94667,-2.533336 -5.09334,-2.533336 -2.48001,0 -4.16001,1.600002 -1.68,1.573334 -1.68,3.920004 0,2.34667 1.65334,4.02667 1.65333,1.68001 4.18667,1.68001 3.04,0 5.12,-2.56001 z"
     id="text7"
     style="font-size:26.6667px;font-family:'Heiti TC';-inkscape-font-specification:'Heiti TC';fill:#411818"
     aria-label="c" /><path
     d="m 319.28026,110.98151 h -2.16001 v -2.13334 q -2.37333,2.61334 -5.46667,2.61334 -3.09334,0 -5.30667,-2.26667 -2.18667,-2.29333 -2.18667,-5.44001 0,-3.17333 2.21333,-5.413336 2.21334,-2.266669 5.38668,-2.266669 3.2,0 5.36,2.58667 v -2.213336 h 2.16001 z m -7.46668,-1.57333 q 2.21334,0 3.81334,-1.60001 1.6,-1.6 1.6,-3.97334 0,-2.4 -1.57334,-4 -1.57333,-1.626669 -3.86667,-1.626669 -2.26667,0 -3.84,1.680002 -1.57334,1.653337 -1.57334,3.920007 0,2.26667 1.60001,3.94667 1.6,1.65334 3.84,1.65334 z"
     id="text6"
     style="font-size:26.6667px;font-family:'Heiti TC';-inkscape-font-specification:'Heiti TC';fill:#411818"
     aria-label="a" /><path
     d="m 324.93365,110.98151 h -2.18667 V 90.981485 h 2.18667 z"
     id="text5"
     style="font-size:26.6667px;font-family:'Heiti TC';-inkscape-font-specification:'Heiti TC';fill:#411818"
     aria-label="l" /><path
     d="M 342.66698,104.1015 H 329.9203 q 0.13333,2.4 1.6,3.86667 1.49333,1.44001 3.54667,1.44001 3.49334,0 5.33334,-3.44001 l 1.86667,0.96 q -1.25334,2.32 -2.96001,3.44001 -1.70666,1.09333 -4.08,1.09333 -3.28001,0 -5.41334,-2.24 -2.13334,-2.26667 -2.13334,-5.44001 0,-3.17334 2.13334,-5.440006 2.16,-2.266669 5.33334,-2.266669 3.17334,0 5.30667,2.160003 2.13334,2.133332 2.21334,5.866672 z m -2.45334,-1.94667 q -0.4,-1.86667 -1.81333,-2.906668 -1.41334,-1.040001 -3.25334,-1.040001 -3.73334,0 -4.96001,3.946669 z"
     id="text4"
     style="font-size:26.6667px;font-family:'Heiti TC';-inkscape-font-specification:'Heiti TC';fill:#411818"
     aria-label="e" /><path
     d="m 353.25368,98.154828 -1.41334,1.466668 q -1.57333,-1.466668 -2.88,-1.466668 -0.82667,0 -1.38667,0.533334 -0.56,0.506667 -0.56,1.280001 0,0.746667 0.61333,1.333337 0.64,0.56 2.24001,1.41333 1.6,0.82667 2.45333,1.84001 0.88,1.01333 0.88,2.48 0,1.86667 -1.30666,3.14667 -1.28001,1.28 -3.17334,1.28 -2.64001,0 -4.40001,-2.24 l 1.38667,-1.54667 q 1.44,1.68 2.93334,1.68 1.01333,0 1.73333,-0.66667 0.72,-0.66666 0.72,-1.54666 0,-0.90667 -0.66666,-1.49334 -0.64,-0.61333 -2.24001,-1.41333 -1.57333,-0.80001 -2.4,-1.76001 -0.8,-0.98666 -0.8,-2.56 0,-1.600002 1.14667,-2.720004 1.17333,-1.120001 3.06667,-1.120001 1.92,0 4.05334,2.080003 z"
     id="text3"
     style="font-size:26.6667px;font-family:'Heiti TC';-inkscape-font-specification:'Heiti TC';fill:#411818"
     aria-label="s" /></svg>
