<?xml version="1.0" encoding="UTF-8" standalone="no"?>
<svg
   width="400"
   height="475"
   viewBox="0 0 400 475"
   id="svg2"
   version="1.1"
   xml:space="preserve"
   sodipodi:docname="taylors_guide_to_scales_cover.svg"
   inkscape:version="1.4.3 (0d15f75, 2025-12-25)"
   xmlns:inkscape="http://www.inkscape.org/namespaces/inkscape"
   xmlns:sodipodi="http://sodipodi.sourceforge.net/DTD/sodipodi-0.dtd"
   xmlns:xlink="http://www.w3.org/1999/xlink"
   xmlns="http://www.w3.org/2000/svg"
   xmlns:svg="http://www.w3.org/2000/svg"
   xmlns:rdf="http://www.w3.org/1999/02/22-rdf-syntax-ns#"
   xmlns:cc="http://creativecommons.org/ns#"
   xmlns:dc="http://purl.org/dc/elements/1.1/"><sodipodi:namedview
     id="namedview1"
     pagecolor="#ffffff"
     bordercolor="#000000"
     borderopacity="0.25"
     inkscape:showpageshadow="2"
     inkscape:pageopacity="0.0"
     inkscape:pagecheckerboard="0"
     inkscape:deskcolor="#d1d1d1"
     inkscape:zoom="1.0000001"
     inkscape:cx="194.99999"
     inkscape:cy="283.99999"
     inkscape:window-width="1512"
     inkscape:window-height="921"
     inkscape:window-x="0"
     inkscape:window-y="33"
     inkscape:window-maximized="0"
     inkscape:current-layer="svg2"
     showgrid="false"><inkscape:grid
       id="grid1"
       units="px"
       originx="0"
       originy="0"
       spacingx="1"
       spacingy="1"
       empcolor="#0099e5"
       empopacity="0.30196078"
       color="#0099e5"
       opacity="0.14901961"
       empspacing="5"
       enabled="true"
       visible="false" /></sodipodi:namedview><defs
     id="defs4"><linearGradient
       id="linearGradient1"><stop
         style="stop-color:#f8efcf;stop-opacity:1;"
         offset="0.08761905"
         id="stop1" /><stop
         style="stop-color:#f8def8;stop-opacity:1;"
         offset="0.83990467"
         id="stop2" /></linearGradient><filter
       style="color-interpolation-filters:sRGB"
       id="filter8603"
       x="-0.013048176"
       width="1.0260964"
       y="-0.011107704"
       height="1.0222154"><feGaussianBlur
         stdDeviation="2.164541"
         id="feGaussianBlur8605" /></filter><linearGradient
       xlink:href="#linearGradient1"
       id="linearGradient2"
       x1="-406.16321"
       y1="496.73807"
       x2="-411.29651"
       y2="123.23853"
       gradientUnits="userSpaceOnUse"
       spreadMethod="pad"
       gradientTransform="translate(615.91339,-116.74483)" /></defs><metadata
     id="metadata7"><rdf:RDF><cc:Work
         rdf:about=""><dc:format>image/svg+xml</dc:format><dc:type
           rdf:resource="http://purl.org/dc/dcmitype/StillImage" /></cc:Work></rdf:RDF></metadata><rect
     y="7.3157396"
     x="-1.1132812e-06"
     height="467.68427"
     width="398.13214"
     id="rect4502"
     style="color:#000000;clip-rule:nonzero;display:inline;overflow:visible;visibility:visible;isolation:auto;mix-blend-mode:normal;color-interpolation:sRGB;color-interpolation-filters:linearRGB;solid-color:#000000;solid-opacity:1;fill:#e1e6f1;fill-opacity:1;fill-rule:nonzero;stroke:none;stroke-width:2;stroke-linecap:butt;stroke-linejoin:miter;stroke-miterlimit:4;stroke-dasharray:none;stroke-dashoffset:0;stroke-opacity:1;filter:url(#filter8603);color-rendering:auto;image-rendering:auto;shape-rendering:auto;text-rendering:auto;enable-background:accumulate"
     ry="2.2321417"
     transform="matrix(0.98728367,0,0,0.98913373,5.1288392,0.02304565)" /><rect
     y="0.21581759"
     x="10.434875"
     height="459.78418"
     width="389.56512"
     id="rect4504"
     style="color:#000000;clip-rule:nonzero;display:inline;overflow:visible;visibility:visible;isolation:auto;mix-blend-mode:normal;color-interpolation:sRGB;color-interpolation-filters:linearRGB;solid-color:#000000;solid-opacity:1;fill:#fffbf5;fill-opacity:1;fill-rule:nonzero;stroke:#000000;stroke-width:0.8;stroke-linecap:butt;stroke-linejoin:miter;stroke-miterlimit:4;stroke-dasharray:none;stroke-dashoffset:0;stroke-opacity:1;color-rendering:auto;image-rendering:auto;shape-rendering:auto;text-rendering:auto;enable-background:accumulate" /><g
     aria-label="Taylor Hummon"
     style="font-style:normal;font-variant:normal;font-weight:normal;font-stretch:normal;font-size:9.6px;line-height:0%;font-family:'Latin Modern Sans';-inkscape-font-specification:'Latin Modern Sans, Normal';text-align:start;letter-spacing:0px;word-spacing:0px;writing-mode:lr-tb;text-anchor:start;fill:#493746;fill-opacity:1;stroke:none;stroke-width:0.8px;stroke-linecap:butt;stroke-linejoin:miter;stroke-opacity:1"
     id="text4508"
     transform="translate(558.71856,20.17611)"><path
       style="font-weight:bold;font-size:12px;line-height:1.25;font-family:'Helvetica Neue';-inkscape-font-specification:'Helvetica Neue, Bold'"
       d="m -395.24896,335.52992 v 6.984 h 1.884 v -6.984 h 2.568 v -1.584 h -7.02 v 1.584 z m 3.852,2.688 q 0.036,-0.6 0.3,-0.996 0.264,-0.396 0.672,-0.636 0.408,-0.24 0.912,-0.336 0.516,-0.108 1.032,-0.108 0.468,0 0.948,0.072 0.48,0.06 0.876,0.252 0.396,0.192 0.648,0.54 0.252,0.336 0.252,0.9 v 3.228 q 0,0.42 0.048,0.804 0.048,0.384 0.168,0.576 h -1.728 q -0.048,-0.144 -0.084,-0.288 -0.024,-0.156 -0.036,-0.312 -0.408,0.42 -0.96,0.588 -0.552,0.168 -1.128,0.168 -0.444,0 -0.828,-0.108 -0.384,-0.108 -0.672,-0.336 -0.288,-0.228 -0.456,-0.576 -0.156,-0.348 -0.156,-0.828 0,-0.528 0.18,-0.864 0.192,-0.348 0.48,-0.552 0.3,-0.204 0.672,-0.3 0.384,-0.108 0.768,-0.168 0.384,-0.06 0.756,-0.096 0.372,-0.036 0.66,-0.108 0.288,-0.072 0.456,-0.204 0.168,-0.144 0.156,-0.408 0,-0.276 -0.096,-0.432 -0.084,-0.168 -0.24,-0.252 -0.144,-0.096 -0.348,-0.12 -0.192,-0.036 -0.42,-0.036 -0.504,0 -0.792,0.216 -0.288,0.216 -0.336,0.72 z m 3.936,1.26 q -0.108,0.096 -0.276,0.156 -0.156,0.048 -0.348,0.084 -0.18,0.036 -0.384,0.06 -0.204,0.024 -0.408,0.06 -0.192,0.036 -0.384,0.096 -0.18,0.06 -0.324,0.168 -0.132,0.096 -0.216,0.252 -0.084,0.156 -0.084,0.396 0,0.228 0.084,0.384 0.084,0.156 0.228,0.252 0.144,0.084 0.336,0.12 0.192,0.036 0.396,0.036 0.504,0 0.78,-0.168 0.276,-0.168 0.408,-0.396 0.132,-0.24 0.156,-0.48 0.036,-0.24 0.036,-0.384 z m 6.08399,3.804 2.592,-6.972 h -1.764 l -1.356,4.248 h -0.024 l -1.404,-4.248 h -1.812 l 2.172,5.82 q 0.072,0.18 0.072,0.384 0,0.276 -0.168,0.504 -0.156,0.228 -0.492,0.264 -0.252,0.012 -0.504,-0.012 -0.252,-0.024 -0.492,-0.048 v 1.404 q 0.264,0.024 0.516,0.036 0.264,0.024 0.528,0.024 0.876,0 1.368,-0.324 0.492,-0.324 0.768,-1.08 z m 3.21599,-9.336 v 8.568 h 1.704 v -8.568 z m 4.55999,5.472 q 0,-0.372 0.072,-0.732 0.072,-0.36 0.24,-0.636 0.18,-0.276 0.468,-0.444 0.288,-0.18 0.72,-0.18 0.432,0 0.72,0.18 0.3,0.168 0.468,0.444 0.18,0.276 0.252,0.636 0.072,0.36 0.072,0.732 0,0.372 -0.072,0.732 -0.072,0.348 -0.252,0.636 -0.168,0.276 -0.468,0.444 -0.288,0.168 -0.72,0.168 -0.432,0 -0.72,-0.168 -0.288,-0.168 -0.468,-0.444 -0.168,-0.288 -0.24,-0.636 -0.072,-0.36 -0.072,-0.732 z m -1.704,0 q 0,0.744 0.228,1.344 0.228,0.6 0.648,1.032 0.42,0.42 1.008,0.648 0.588,0.228 1.32,0.228 0.732,0 1.32,-0.228 0.6,-0.228 1.02,-0.648 0.42,-0.432 0.648,-1.032 0.228,-0.6 0.228,-1.344 0,-0.744 -0.228,-1.344 -0.228,-0.612 -0.648,-1.032 -0.42,-0.432 -1.02,-0.66 -0.588,-0.24 -1.32,-0.24 -0.732,0 -1.32,0.24 -0.588,0.228 -1.008,0.66 -0.42,0.42 -0.648,1.032 -0.228,0.6 -0.228,1.344 z m 7.524,-3.108 v 6.204 h 1.704 v -2.796 q 0,-0.42 0.084,-0.78 0.084,-0.36 0.276,-0.624 0.204,-0.276 0.528,-0.432 0.324,-0.156 0.792,-0.156 0.156,0 0.324,0.024 0.168,0.012 0.288,0.036 v -1.584 q -0.204,-0.06 -0.372,-0.06 -0.324,0 -0.624,0.096 -0.3,0.096 -0.564,0.276 -0.264,0.168 -0.468,0.42 -0.204,0.24 -0.324,0.528 h -0.024 v -1.152 z m 8.184,-2.364 v 8.568 h 1.884 v -3.696 h 3.468 v 3.696 h 1.884 v -8.568 h -1.884 v 3.288 h -3.468 v -3.288 z m 14.53199,8.568 v -6.204 h -1.704 v 3.252 q 0,0.948 -0.312,1.368 -0.312,0.408 -1.008,0.408 -0.612,0 -0.852,-0.372 -0.24,-0.384 -0.24,-1.152 v -3.504 h -1.704 v 3.816 q 0,0.576 0.096,1.056 0.108,0.468 0.36,0.804 0.252,0.324 0.684,0.504 0.444,0.18 1.128,0.18 0.54,0 1.056,-0.24 0.516,-0.24 0.84,-0.78 h 0.036 v 0.864 z m 1.34401,-6.204 v 6.204 h 1.704 v -3.6 q 0,-0.456 0.132,-0.732 0.132,-0.288 0.312,-0.432 0.192,-0.156 0.384,-0.204 0.204,-0.06 0.324,-0.06 0.408,0 0.612,0.144 0.216,0.132 0.3,0.36 0.096,0.228 0.108,0.504 0.012,0.264 0.012,0.54 v 3.48 h 1.704 v -3.456 q 0,-0.288 0.036,-0.564 0.048,-0.288 0.168,-0.504 0.132,-0.228 0.348,-0.36 0.228,-0.144 0.588,-0.144 0.36,0 0.564,0.12 0.216,0.12 0.324,0.324 0.108,0.204 0.132,0.48 0.024,0.276 0.024,0.588 v 3.516 h 1.704 v -4.152 q 0,-0.6 -0.168,-1.02 -0.168,-0.432 -0.468,-0.696 -0.3,-0.264 -0.72,-0.384 -0.42,-0.12 -0.912,-0.12 -0.648,0 -1.128,0.312 -0.468,0.312 -0.744,0.72 -0.252,-0.576 -0.744,-0.804 -0.48,-0.228 -1.068,-0.228 -0.612,0 -1.092,0.264 -0.468,0.264 -0.804,0.744 h -0.024 v -0.84 z m 10.872,0 v 6.204 h 1.704 v -3.6 q 0,-0.456 0.132,-0.732 0.132,-0.288 0.312,-0.432 0.192,-0.156 0.384,-0.204 0.204,-0.06 0.324,-0.06 0.408,0 0.612,0.144 0.216,0.132 0.3,0.36 0.096,0.228 0.108,0.504 0.012,0.264 0.012,0.54 v 3.48 h 1.704 v -3.456 q 0,-0.288 0.036,-0.564 0.048,-0.288 0.168,-0.504 0.132,-0.228 0.348,-0.36 0.228,-0.144 0.588,-0.144 0.36,0 0.564,0.12 0.216,0.12 0.324,0.324 0.108,0.204 0.132,0.48 0.024,0.276 0.024,0.588 v 3.516 h 1.704 v -4.152 q 0,-0.6 -0.168,-1.02 -0.168,-0.432 -0.468,-0.696 -0.3,-0.264 -0.72,-0.384 -0.42,-0.12 -0.912,-0.12 -0.648,0 -1.128,0.312 -0.468,0.312 -0.744,0.72 -0.252,-0.576 -0.744,-0.804 -0.48,-0.228 -1.068,-0.228 -0.612,0 -1.092,0.264 -0.468,0.264 -0.804,0.744 h -0.024 v -0.84 z m 12.336,3.108 q 0,-0.372 0.072,-0.732 0.072,-0.36 0.24,-0.636 0.18,-0.276 0.468,-0.444 0.288,-0.18 0.72,-0.18 0.432,0 0.72,0.18 0.3,0.168 0.468,0.444 0.18,0.276 0.252,0.636 0.072,0.36 0.072,0.732 0,0.372 -0.072,0.732 -0.072,0.348 -0.252,0.636 -0.168,0.276 -0.468,0.444 -0.288,0.168 -0.72,0.168 -0.432,0 -0.72,-0.168 -0.288,-0.168 -0.468,-0.444 -0.168,-0.288 -0.24,-0.636 -0.072,-0.36 -0.072,-0.732 z m -1.704,0 q 0,0.744 0.228,1.344 0.228,0.6 0.648,1.032 0.42,0.42 1.008,0.648 0.588,0.228 1.32,0.228 0.732,0 1.32,-0.228 0.6,-0.228 1.02,-0.648 0.42,-0.432 0.648,-1.032 0.228,-0.6 0.228,-1.344 0,-0.744 -0.228,-1.344 -0.228,-0.612 -0.648,-1.032 -0.42,-0.432 -1.02,-0.66 -0.588,-0.24 -1.32,-0.24 -0.732,0 -1.32,0.24 -0.588,0.228 -1.008,0.66 -0.42,0.42 -0.648,1.032 -0.228,0.6 -0.228,1.344 z m 7.524,-3.108 v 6.204 h 1.704 v -3.252 q 0,-0.948 0.312,-1.356 0.312,-0.42 1.008,-0.42 0.612,0 0.852,0.384 0.24,0.372 0.24,1.14 v 3.504 h 1.704 v -3.816 q 0,-0.576 -0.108,-1.044 -0.096,-0.48 -0.348,-0.804 -0.252,-0.336 -0.696,-0.516 -0.432,-0.192 -1.116,-0.192 -0.54,0 -1.056,0.252 -0.516,0.24 -0.84,0.78 h -0.036 v -0.864 z"
       id="text3890"
       aria-label="Taylor Hummon" /></g><circle
     style="fill:#493746;fill-opacity:1;stroke:none;stroke-width:0.639304;stroke-dasharray:none;stroke-opacity:1"
     id="circle4"
     cx="277.01794"
     cy="234.40648"
     r="2.8720195" /><circle
     style="fill:#493746;fill-opacity:1;stroke:none;stroke-width:0.639304;stroke-dasharray:none;stroke-opacity:1"
     id="circle6"
     cx="240.31035"
     cy="103.95115"
     r="2.8720198"
     transform="rotate(15)" /><circle
     style="fill:#493746;fill-opacity:1;stroke:none;stroke-width:0.639304;stroke-dasharray:none;stroke-opacity:1"
     id="circle7"
     cx="205.21744"
     cy="306.20694"
     r="2.8720195" /><circle
     style="fill:#493746;fill-opacity:1;stroke:none;stroke-width:0.639304;stroke-dasharray:none;stroke-opacity:1"
     id="circle8"
     cx="133.41696"
     cy="234.40648"
     r="2.8720195" /><circle
     style="fill:#493746;fill-opacity:1;stroke:none;stroke-width:0.639304;stroke-dasharray:none;stroke-opacity:1"
     id="circle10"
     cx="366.72729"
     cy="100.39324"
     r="2.8720198"
     transform="rotate(29.999999)" /><circle
     style="fill:#493746;fill-opacity:1;stroke:none;stroke-width:0.639304;stroke-dasharray:none;stroke-opacity:1"
     id="circle11"
     cx="294.92679"
     cy="28.592762"
     r="2.8720198"
     transform="rotate(29.999999)" /><circle
     style="fill:#493746;fill-opacity:1;stroke:none;stroke-width:0.639304;stroke-dasharray:none;stroke-opacity:1"
     id="circle12"
     cx="294.92679"
     cy="172.19377"
     r="2.8720198"
     transform="rotate(29.999999)" /><circle
     style="fill:#493746;fill-opacity:1;stroke:none;stroke-width:0.639304;stroke-dasharray:none;stroke-opacity:1"
     id="circle13"
     cx="223.12631"
     cy="100.39324"
     r="2.8720198"
     transform="rotate(29.999999)" /><circle
     style="fill:#493746;fill-opacity:1;stroke:none;stroke-width:0.639304;stroke-dasharray:none;stroke-opacity:1"
     id="circle15"
     cx="132.32083"
     cy="305.61069"
     r="2.8720198"
     transform="rotate(-29.999999)" /><circle
     style="fill:#493746;fill-opacity:1;stroke:none;stroke-width:0.639304;stroke-dasharray:none;stroke-opacity:1"
     id="circle16"
     cx="60.520348"
     cy="233.8102"
     r="2.8720198"
     transform="rotate(-29.999999)" /><circle
     style="fill:#493746;fill-opacity:1;stroke:none;stroke-width:0.639304;stroke-dasharray:none;stroke-opacity:1"
     id="circle17"
     cx="60.520348"
     cy="377.41119"
     r="2.8720198"
     transform="rotate(-29.999999)" /><circle
     style="fill:#493746;fill-opacity:1;stroke:none;stroke-width:0.639304;stroke-dasharray:none;stroke-opacity:1"
     id="circle18"
     cx="-11.280189"
     cy="305.61069"
     r="2.8720198"
     transform="rotate(-29.999999)" /><circle
     style="fill:none;fill-opacity:0.99511;stroke:#493746;stroke-width:1.43601;stroke-dasharray:none;stroke-opacity:1"
     id="path7"
     cx="205.21744"
     cy="234.40648"
     r="71.800491" /><path
     style="fill:none;fill-opacity:1;stroke:#b32050;stroke-width:1.43601;stroke-opacity:1"
     d="m 205.21744,162.60598 -35.90023,133.98154 98.08129,-98.0813 -133.98154,35.90025 133.98154,35.90024 -98.08129,-98.08129 35.90024,133.98154 35.90025,-133.98154 -98.08129,98.08129 133.98153,-35.90024 -133.98153,-35.90025 98.08129,98.0813 z"
     id="path17" /><text
     style="font-size:26.6667px;font-family:'Heiti TC';-inkscape-font-specification:'Heiti TC';fill:#411818"
     x="55.199875"
     y="112.58151"
     id="text23">T</text><text
     style="font-size:26.6667px;font-family:'Heiti TC';-inkscape-font-specification:'Heiti TC';fill:#411818"
     x="66.559905"
     y="112.58151"
     id="text22">a</text><text
     style="font-size:26.6667px;font-family:'Heiti TC';-inkscape-font-specification:'Heiti TC';fill:#411818"
     x="84.773277"
     y="112.58151"
     id="text21">y</text><text
     style="font-size:26.6667px;font-family:'Heiti TC';-inkscape-font-specification:'Heiti TC';fill:#411818"
     x="99.066608"
     y="112.58151"
     id="text20">l</text><text
     style="font-size:26.6667px;font-family:'Heiti TC';-inkscape-font-specification:'Heiti TC';fill:#411818"
     x="104.39997"
     y="112.58151"
     id="text19">o</text><text
     style="font-size:26.6667px;font-family:'Heiti TC';-inkscape-font-specification:'Heiti TC';fill:#411818"
     x="121.86668"
     y="112.58151"
     id="text18">r</text><text
     style="font-size:26.6667px;font-family:'Heiti TC';-inkscape-font-specification:'Heiti TC';fill:#411818"
     x="129.89337"
     y="112.58151"
     id="text17">'</text><text
     style="font-size:26.6667px;font-family:'Heiti TC';-inkscape-font-specification:'Heiti TC';fill:#411818"
     x="135.17338"
     y="112.58151"
     id="text16">s</text><text
     style="font-size:26.6667px;font-family:'Heiti TC';-inkscape-font-specification:'Heiti TC';fill:#411818"
     x="152.18674"
     y="112.58151"
     id="text15">G</text><text
     style="font-size:26.6667px;font-family:'Heiti TC';-inkscape-font-specification:'Heiti TC';fill:#411818"
     x="175.44009"
     y="112.58151"
     id="text14">u</text><text
     style="font-size:26.6667px;font-family:'Heiti TC';-inkscape-font-specification:'Heiti TC';fill:#411818"
     x="191.65344"
     y="112.58151"
     id="text13">i</text><text
     style="font-size:26.6667px;font-family:'Heiti TC';-inkscape-font-specification:'Heiti TC';fill:#411818"
     x="196.9868"
     y="112.58151"
     id="text12">d</text><text
     style="font-size:26.6667px;font-family:'Heiti TC';-inkscape-font-specification:'Heiti TC';fill:#411818"
     x="215.25348"
     y="112.58151"
     id="text11">e</text><text
     style="font-size:26.6667px;font-family:'Heiti TC';-inkscape-font-specification:'Heiti TC';fill:#411818"
     x="239.25351"
     y="112.58151"
     id="text10">t</text><text
     style="font-size:26.6667px;font-family:'Heiti TC';-inkscape-font-specification:'Heiti TC';fill:#411818"
     x="248.29353"
     y="112.58151"
     id="text9">o</text><text
     style="font-size:26.6667px;font-family:'Heiti TC';-inkscape-font-specification:'Heiti TC';fill:#411818"
     x="272.42691"
     y="112.58151"
     id="text8">S</text><text
     style="font-size:26.6667px;font-family:'Heiti TC';-inkscape-font-specification:'Heiti TC';fill:#411818"
     x="285.70691"
     y="112.58151"
     id="text7">c</text><text
     style="font-size:26.6667px;font-family:'Heiti TC';-inkscape-font-specification:'Heiti TC';fill:#411818"
     x="302.96025"
     y="112.58151"
     id="text6">a</text><text
     style="font-size:26.6667px;font-family:'Heiti TC';-inkscape-font-specification:'Heiti TC';fill:#411818"
     x="321.17363"
     y="112.58151"
     id="text5">l</text><text
     style="font-size:26.6667px;font-family:'Heiti TC';-inkscape-font-specification:'Heiti TC';fill:#411818"
     x="326.50697"
     y="112.58151"
     id="text4">e</text><text
     style="font-size:26.6667px;font-family:'Heiti TC';-inkscape-font-specification:'Heiti TC';fill:#411818"
     x="343.84032"
     y="112.58151"
     id="text3">s</text></svg>
