<?xml version="1.0" encoding="UTF-8" standalone="no"?>
<svg
   width="400"
   height="475"
   viewBox="0 0 400 475"
   id="svg2"
   version="1.1"
   xml:space="preserve"
   sodipodi:docname="taylors_guide_to_scales_cover.svg"
   inkscape:version="1.4.3 (0d15f75, 2025-12-25)"
   xmlns:inkscape="http://www.inkscape.org/namespaces/inkscape"
   xmlns:sodipodi="http://sodipodi.sourceforge.net/DTD/sodipodi-0.dtd"
   xmlns:xlink="http://www.w3.org/1999/xlink"
   xmlns="http://www.w3.org/2000/svg"
   xmlns:svg="http://www.w3.org/2000/svg"
   xmlns:rdf="http://www.w3.org/1999/02/22-rdf-syntax-ns#"
   xmlns:cc="http://creativecommons.org/ns#"
   xmlns:dc="http://purl.org/dc/elements/1.1/"><sodipodi:namedview
     id="namedview1"
     pagecolor="#ffffff"
     bordercolor="#000000"
     borderopacity="0.25"
     inkscape:showpageshadow="2"
     inkscape:pageopacity="0.0"
     inkscape:pagecheckerboard="0"
     inkscape:deskcolor="#d1d1d1"
     inkscape:zoom="1.4142136"
     inkscape:cx="106.06601"
     inkscape:cy="83.792151"
     inkscape:window-width="1289"
     inkscape:window-height="740"
     inkscape:window-x="0"
     inkscape:window-y="33"
     inkscape:window-maximized="0"
     inkscape:current-layer="svg2" /><defs
     id="defs4"><linearGradient
       id="linearGradient1"><stop
         style="stop-color:#f8cff7;stop-opacity:1;"
         offset="0.08761905"
         id="stop1" /><stop
         style="stop-color:#f8def8;stop-opacity:1;"
         offset="0.83990467"
         id="stop2" /></linearGradient><filter
       style="color-interpolation-filters:sRGB"
       id="filter8603"
       x="-0.013048176"
       width="1.0260964"
       y="-0.011107704"
       height="1.0222154"><feGaussianBlur
         stdDeviation="2.164541"
         id="feGaussianBlur8605" /></filter><linearGradient
       xlink:href="#linearGradient1"
       id="linearGradient2"
       x1="-406.16321"
       y1="496.73807"
       x2="-411.29651"
       y2="123.23853"
       gradientUnits="userSpaceOnUse"
       spreadMethod="pad"
       gradientTransform="translate(615.91339,-116.74483)" /></defs><metadata
     id="metadata7"><rdf:RDF><cc:Work
         rdf:about=""><dc:format>image/svg+xml</dc:format><dc:type
           rdf:resource="http://purl.org/dc/dcmitype/StillImage" /></cc:Work></rdf:RDF></metadata><rect
     y="7.3157396"
     x="-1.1132812e-06"
     height="467.68427"
     width="398.13214"
     id="rect4502"
     style="color:#000000;clip-rule:nonzero;display:inline;overflow:visible;visibility:visible;isolation:auto;mix-blend-mode:normal;color-interpolation:sRGB;color-interpolation-filters:linearRGB;solid-color:#000000;solid-opacity:1;fill:#e4e5e7;fill-opacity:1;fill-rule:nonzero;stroke:none;stroke-width:2;stroke-linecap:butt;stroke-linejoin:miter;stroke-miterlimit:4;stroke-dasharray:none;stroke-dashoffset:0;stroke-opacity:1;filter:url(#filter8603);color-rendering:auto;image-rendering:auto;shape-rendering:auto;text-rendering:auto;enable-background:accumulate"
     ry="2.2321417" /><rect
     y="0.21581759"
     x="10.434875"
     height="468.38126"
     width="389.1644"
     id="rect4504"
     style="color:#000000;clip-rule:nonzero;display:inline;overflow:visible;visibility:visible;isolation:auto;mix-blend-mode:normal;color-interpolation:sRGB;color-interpolation-filters:linearRGB;solid-color:#000000;solid-opacity:1;fill:url(#linearGradient2);fill-opacity:1;fill-rule:nonzero;stroke:none;stroke-width:0.8;stroke-linecap:butt;stroke-linejoin:miter;stroke-miterlimit:4;stroke-dasharray:none;stroke-dashoffset:0;stroke-opacity:1;color-rendering:auto;image-rendering:auto;shape-rendering:auto;text-rendering:auto;enable-background:accumulate" /><g
     aria-label="Taylor Hummon"
     style="font-style:normal;font-variant:normal;font-weight:normal;font-stretch:normal;font-size:9.6px;line-height:0%;font-family:'Latin Modern Sans';-inkscape-font-specification:'Latin Modern Sans, Normal';text-align:start;letter-spacing:0px;word-spacing:0px;writing-mode:lr-tb;text-anchor:start;fill:#493746;fill-opacity:1;stroke:none;stroke-width:0.8px;stroke-linecap:butt;stroke-linejoin:miter;stroke-opacity:1"
     id="text4508"
     transform="translate(558.71856,20.17611)"><path
       style="font-weight:bold;font-size:12px;line-height:1.25;font-family:'Helvetica Neue';-inkscape-font-specification:'Helvetica Neue, Bold'"
       d="m -395.24896,335.52992 v 6.984 h 1.884 v -6.984 h 2.568 v -1.584 h -7.02 v 1.584 z m 3.852,2.688 q 0.036,-0.6 0.3,-0.996 0.264,-0.396 0.672,-0.636 0.408,-0.24 0.912,-0.336 0.516,-0.108 1.032,-0.108 0.468,0 0.948,0.072 0.48,0.06 0.876,0.252 0.396,0.192 0.648,0.54 0.252,0.336 0.252,0.9 v 3.228 q 0,0.42 0.048,0.804 0.048,0.384 0.168,0.576 h -1.728 q -0.048,-0.144 -0.084,-0.288 -0.024,-0.156 -0.036,-0.312 -0.408,0.42 -0.96,0.588 -0.552,0.168 -1.128,0.168 -0.444,0 -0.828,-0.108 -0.384,-0.108 -0.672,-0.336 -0.288,-0.228 -0.456,-0.576 -0.156,-0.348 -0.156,-0.828 0,-0.528 0.18,-0.864 0.192,-0.348 0.48,-0.552 0.3,-0.204 0.672,-0.3 0.384,-0.108 0.768,-0.168 0.384,-0.06 0.756,-0.096 0.372,-0.036 0.66,-0.108 0.288,-0.072 0.456,-0.204 0.168,-0.144 0.156,-0.408 0,-0.276 -0.096,-0.432 -0.084,-0.168 -0.24,-0.252 -0.144,-0.096 -0.348,-0.12 -0.192,-0.036 -0.42,-0.036 -0.504,0 -0.792,0.216 -0.288,0.216 -0.336,0.72 z m 3.936,1.26 q -0.108,0.096 -0.276,0.156 -0.156,0.048 -0.348,0.084 -0.18,0.036 -0.384,0.06 -0.204,0.024 -0.408,0.06 -0.192,0.036 -0.384,0.096 -0.18,0.06 -0.324,0.168 -0.132,0.096 -0.216,0.252 -0.084,0.156 -0.084,0.396 0,0.228 0.084,0.384 0.084,0.156 0.228,0.252 0.144,0.084 0.336,0.12 0.192,0.036 0.396,0.036 0.504,0 0.78,-0.168 0.276,-0.168 0.408,-0.396 0.132,-0.24 0.156,-0.48 0.036,-0.24 0.036,-0.384 z m 6.08399,3.804 2.592,-6.972 h -1.764 l -1.356,4.248 h -0.024 l -1.404,-4.248 h -1.812 l 2.172,5.82 q 0.072,0.18 0.072,0.384 0,0.276 -0.168,0.504 -0.156,0.228 -0.492,0.264 -0.252,0.012 -0.504,-0.012 -0.252,-0.024 -0.492,-0.048 v 1.404 q 0.264,0.024 0.516,0.036 0.264,0.024 0.528,0.024 0.876,0 1.368,-0.324 0.492,-0.324 0.768,-1.08 z m 3.21599,-9.336 v 8.568 h 1.704 v -8.568 z m 4.55999,5.472 q 0,-0.372 0.072,-0.732 0.072,-0.36 0.24,-0.636 0.18,-0.276 0.468,-0.444 0.288,-0.18 0.72,-0.18 0.432,0 0.72,0.18 0.3,0.168 0.468,0.444 0.18,0.276 0.252,0.636 0.072,0.36 0.072,0.732 0,0.372 -0.072,0.732 -0.072,0.348 -0.252,0.636 -0.168,0.276 -0.468,0.444 -0.288,0.168 -0.72,0.168 -0.432,0 -0.72,-0.168 -0.288,-0.168 -0.468,-0.444 -0.168,-0.288 -0.24,-0.636 -0.072,-0.36 -0.072,-0.732 z m -1.704,0 q 0,0.744 0.228,1.344 0.228,0.6 0.648,1.032 0.42,0.42 1.008,0.648 0.588,0.228 1.32,0.228 0.732,0 1.32,-0.228 0.6,-0.228 1.02,-0.648 0.42,-0.432 0.648,-1.032 0.228,-0.6 0.228,-1.344 0,-0.744 -0.228,-1.344 -0.228,-0.612 -0.648,-1.032 -0.42,-0.432 -1.02,-0.66 -0.588,-0.24 -1.32,-0.24 -0.732,0 -1.32,0.24 -0.588,0.228 -1.008,0.66 -0.42,0.42 -0.648,1.032 -0.228,0.6 -0.228,1.344 z m 7.524,-3.108 v 6.204 h 1.704 v -2.796 q 0,-0.42 0.084,-0.78 0.084,-0.36 0.276,-0.624 0.204,-0.276 0.528,-0.432 0.324,-0.156 0.792,-0.156 0.156,0 0.324,0.024 0.168,0.012 0.288,0.036 v -1.584 q -0.204,-0.06 -0.372,-0.06 -0.324,0 -0.624,0.096 -0.3,0.096 -0.564,0.276 -0.264,0.168 -0.468,0.42 -0.204,0.24 -0.324,0.528 h -0.024 v -1.152 z m 8.184,-2.364 v 8.568 h 1.884 v -3.696 h 3.468 v 3.696 h 1.884 v -8.568 h -1.884 v 3.288 h -3.468 v -3.288 z m 14.53199,8.568 v -6.204 h -1.704 v 3.252 q 0,0.948 -0.312,1.368 -0.312,0.408 -1.008,0.408 -0.612,0 -0.852,-0.372 -0.24,-0.384 -0.24,-1.152 v -3.504 h -1.704 v 3.816 q 0,0.576 0.096,1.056 0.108,0.468 0.36,0.804 0.252,0.324 0.684,0.504 0.444,0.18 1.128,0.18 0.54,0 1.056,-0.24 0.516,-0.24 0.84,-0.78 h 0.036 v 0.864 z m 1.34401,-6.204 v 6.204 h 1.704 v -3.6 q 0,-0.456 0.132,-0.732 0.132,-0.288 0.312,-0.432 0.192,-0.156 0.384,-0.204 0.204,-0.06 0.324,-0.06 0.408,0 0.612,0.144 0.216,0.132 0.3,0.36 0.096,0.228 0.108,0.504 0.012,0.264 0.012,0.54 v 3.48 h 1.704 v -3.456 q 0,-0.288 0.036,-0.564 0.048,-0.288 0.168,-0.504 0.132,-0.228 0.348,-0.36 0.228,-0.144 0.588,-0.144 0.36,0 0.564,0.12 0.216,0.12 0.324,0.324 0.108,0.204 0.132,0.48 0.024,0.276 0.024,0.588 v 3.516 h 1.704 v -4.152 q 0,-0.6 -0.168,-1.02 -0.168,-0.432 -0.468,-0.696 -0.3,-0.264 -0.72,-0.384 -0.42,-0.12 -0.912,-0.12 -0.648,0 -1.128,0.312 -0.468,0.312 -0.744,0.72 -0.252,-0.576 -0.744,-0.804 -0.48,-0.228 -1.068,-0.228 -0.612,0 -1.092,0.264 -0.468,0.264 -0.804,0.744 h -0.024 v -0.84 z m 10.872,0 v 6.204 h 1.704 v -3.6 q 0,-0.456 0.132,-0.732 0.132,-0.288 0.312,-0.432 0.192,-0.156 0.384,-0.204 0.204,-0.06 0.324,-0.06 0.408,0 0.612,0.144 0.216,0.132 0.3,0.36 0.096,0.228 0.108,0.504 0.012,0.264 0.012,0.54 v 3.48 h 1.704 v -3.456 q 0,-0.288 0.036,-0.564 0.048,-0.288 0.168,-0.504 0.132,-0.228 0.348,-0.36 0.228,-0.144 0.588,-0.144 0.36,0 0.564,0.12 0.216,0.12 0.324,0.324 0.108,0.204 0.132,0.48 0.024,0.276 0.024,0.588 v 3.516 h 1.704 v -4.152 q 0,-0.6 -0.168,-1.02 -0.168,-0.432 -0.468,-0.696 -0.3,-0.264 -0.72,-0.384 -0.42,-0.12 -0.912,-0.12 -0.648,0 -1.128,0.312 -0.468,0.312 -0.744,0.72 -0.252,-0.576 -0.744,-0.804 -0.48,-0.228 -1.068,-0.228 -0.612,0 -1.092,0.264 -0.468,0.264 -0.804,0.744 h -0.024 v -0.84 z m 12.336,3.108 q 0,-0.372 0.072,-0.732 0.072,-0.36 0.24,-0.636 0.18,-0.276 0.468,-0.444 0.288,-0.18 0.72,-0.18 0.432,0 0.72,0.18 0.3,0.168 0.468,0.444 0.18,0.276 0.252,0.636 0.072,0.36 0.072,0.732 0,0.372 -0.072,0.732 -0.072,0.348 -0.252,0.636 -0.168,0.276 -0.468,0.444 -0.288,0.168 -0.72,0.168 -0.432,0 -0.72,-0.168 -0.288,-0.168 -0.468,-0.444 -0.168,-0.288 -0.24,-0.636 -0.072,-0.36 -0.072,-0.732 z m -1.704,0 q 0,0.744 0.228,1.344 0.228,0.6 0.648,1.032 0.42,0.42 1.008,0.648 0.588,0.228 1.32,0.228 0.732,0 1.32,-0.228 0.6,-0.228 1.02,-0.648 0.42,-0.432 0.648,-1.032 0.228,-0.6 0.228,-1.344 0,-0.744 -0.228,-1.344 -0.228,-0.612 -0.648,-1.032 -0.42,-0.432 -1.02,-0.66 -0.588,-0.24 -1.32,-0.24 -0.732,0 -1.32,0.24 -0.588,0.228 -1.008,0.66 -0.42,0.42 -0.648,1.032 -0.228,0.6 -0.228,1.344 z m 7.524,-3.108 v 6.204 h 1.704 v -3.252 q 0,-0.948 0.312,-1.356 0.312,-0.42 1.008,-0.42 0.612,0 0.852,0.384 0.24,0.372 0.24,1.14 v 3.504 h 1.704 v -3.816 q 0,-0.576 -0.108,-1.044 -0.096,-0.48 -0.348,-0.804 -0.252,-0.336 -0.696,-0.516 -0.432,-0.192 -1.116,-0.192 -0.54,0 -1.056,0.252 -0.516,0.24 -0.84,0.78 h -0.036 v -0.864 z"
       id="text3890"
       aria-label="Taylor Hummon" /></g><rect
     y="0.40240204"
     x="10.835631"
     height="468.00812"
     width="388.76367"
     id="rect4930"
     style="color:#000000;clip-rule:nonzero;display:inline;overflow:visible;visibility:visible;isolation:auto;mix-blend-mode:normal;color-interpolation:sRGB;color-interpolation-filters:linearRGB;solid-color:#000000;solid-opacity:1;fill:none;fill-opacity:1;fill-rule:nonzero;stroke:#000000;stroke-width:0.8;stroke-linecap:butt;stroke-linejoin:miter;stroke-miterlimit:4;stroke-dasharray:none;stroke-dashoffset:0;stroke-opacity:1;color-rendering:auto;image-rendering:auto;shape-rendering:auto;text-rendering:auto;enable-background:accumulate" /><circle
     style="fill:#493746;fill-opacity:1;stroke:none;stroke-width:0.639304;stroke-dasharray:none;stroke-opacity:1"
     id="circle4"
     cx="277.01794"
     cy="234.40648"
     r="2.8720195" /><circle
     style="fill:#493746;fill-opacity:1;stroke:none;stroke-width:0.639304;stroke-dasharray:none;stroke-opacity:1"
     id="circle6"
     cx="240.31035"
     cy="103.95115"
     r="2.8720198"
     transform="rotate(15)" /><circle
     style="fill:#493746;fill-opacity:1;stroke:none;stroke-width:0.639304;stroke-dasharray:none;stroke-opacity:1"
     id="circle7"
     cx="205.21744"
     cy="306.20694"
     r="2.8720195" /><circle
     style="fill:#493746;fill-opacity:1;stroke:none;stroke-width:0.639304;stroke-dasharray:none;stroke-opacity:1"
     id="circle8"
     cx="133.41696"
     cy="234.40648"
     r="2.8720195" /><circle
     style="fill:#493746;fill-opacity:1;stroke:none;stroke-width:0.639304;stroke-dasharray:none;stroke-opacity:1"
     id="circle10"
     cx="366.72729"
     cy="100.39324"
     r="2.8720198"
     transform="rotate(29.999999)" /><circle
     style="fill:#493746;fill-opacity:1;stroke:none;stroke-width:0.639304;stroke-dasharray:none;stroke-opacity:1"
     id="circle11"
     cx="294.92679"
     cy="28.592762"
     r="2.8720198"
     transform="rotate(29.999999)" /><circle
     style="fill:#493746;fill-opacity:1;stroke:none;stroke-width:0.639304;stroke-dasharray:none;stroke-opacity:1"
     id="circle12"
     cx="294.92679"
     cy="172.19377"
     r="2.8720198"
     transform="rotate(29.999999)" /><circle
     style="fill:#493746;fill-opacity:1;stroke:none;stroke-width:0.639304;stroke-dasharray:none;stroke-opacity:1"
     id="circle13"
     cx="223.12631"
     cy="100.39324"
     r="2.8720198"
     transform="rotate(29.999999)" /><circle
     style="fill:#493746;fill-opacity:1;stroke:none;stroke-width:0.639304;stroke-dasharray:none;stroke-opacity:1"
     id="circle15"
     cx="132.32083"
     cy="305.61069"
     r="2.8720198"
     transform="rotate(-29.999999)" /><circle
     style="fill:#493746;fill-opacity:1;stroke:none;stroke-width:0.639304;stroke-dasharray:none;stroke-opacity:1"
     id="circle16"
     cx="60.520348"
     cy="233.8102"
     r="2.8720198"
     transform="rotate(-29.999999)" /><circle
     style="fill:#493746;fill-opacity:1;stroke:none;stroke-width:0.639304;stroke-dasharray:none;stroke-opacity:1"
     id="circle17"
     cx="60.520348"
     cy="377.41119"
     r="2.8720198"
     transform="rotate(-29.999999)" /><circle
     style="fill:#493746;fill-opacity:1;stroke:none;stroke-width:0.639304;stroke-dasharray:none;stroke-opacity:1"
     id="circle18"
     cx="-11.280189"
     cy="305.61069"
     r="2.8720198"
     transform="rotate(-29.999999)" /><circle
     style="fill:none;fill-opacity:0.99511;stroke:#493746;stroke-width:1.43601;stroke-dasharray:none;stroke-opacity:1"
     id="path7"
     cx="205.21744"
     cy="234.40648"
     r="71.800491" /><path
     style="fill:none;fill-opacity:1;stroke:#b32050;stroke-width:1.43601;stroke-opacity:1"
     d="m 205.21744,162.60598 -35.90023,133.98154 98.08129,-98.0813 -133.98154,35.90025 133.98154,35.90024 -98.08129,-98.08129 35.90024,133.98154 35.90025,-133.98154 -98.08129,98.08129 133.98153,-35.90024 -133.98153,-35.90025 98.08129,98.0813 z"
     id="path17" /><path
     style="font-size:26.6667px;font-family:'Myanmar MN';-inkscape-font-specification:'Myanmar MN';fill:#493746"
     d="m 71.065808,97.992759 v 1.11979 H 64.8158 V 115.25841 H 61.91215 V 99.112549 h -6.250008 v -1.11979 z m 11.132827,17.265651 q -0.520834,-0.26042 -0.885418,-0.72917 -0.351563,-0.48177 -0.351563,-1.09375 -0.468751,0.35156 -0.924481,0.72916 -0.442708,0.37761 -0.976563,0.69011 -0.520834,0.29948 -1.171877,0.49479 -0.638021,0.19531 -1.484377,0.19531 -0.781251,0 -1.419272,-0.26041 -0.625001,-0.2474 -1.06771,-0.69011 -0.429688,-0.44271 -0.677084,-1.05469 -0.234375,-0.61198 -0.234375,-1.3151 0,-0.85938 0.338542,-1.54948 0.338542,-0.69011 0.92448,-1.22396 0.598959,-0.54688 1.38021,-0.96355 0.781251,-0.42968 1.666669,-0.7552 0.885418,-0.33855 1.822919,-0.59896 0.937501,-0.26042 1.822919,-0.48178 v -0.83333 q 0,-0.91146 -0.130209,-1.53646 -0.130208,-0.625 -0.403646,-1.00261 -0.273438,-0.39062 -0.703126,-0.54687 -0.416667,-0.16927 -1.002605,-0.16927 -0.559897,0 -1.028647,0.22135 -0.468751,0.22136 -0.833335,0.59896 -0.351563,0.36458 -0.585938,0.8724 -0.221355,0.49479 -0.29948,1.05469 H 73.55279 q 0.104167,-0.85938 0.585939,-1.53646 0.494792,-0.67709 1.23698,-1.13282 0.742189,-0.46875 1.67969,-0.71614 0.950522,-0.2474 1.966148,-0.2474 1.302085,0 2.187503,0.26042 0.885418,0.24739 1.419273,0.70312 0.533854,0.45573 0.755209,1.1198 0.234375,0.65104 0.234375,1.44531 v 8.22918 q 0,0.61198 0.351563,1.09375 0.364584,0.46875 0.885418,0.72917 z m -1.236981,-7.76043 q -0.572918,0.18229 -1.184898,0.41667 -0.611979,0.23437 -1.197918,0.53385 -0.585938,0.28646 -1.119793,0.625 -0.533855,0.33854 -0.937501,0.72917 -0.403646,0.39063 -0.638022,0.82031 -0.234375,0.42969 -0.234375,0.89844 0,0.49479 0.182292,0.9375 0.182292,0.42969 0.481771,0.76823 0.29948,0.32552 0.690105,0.52084 0.390626,0.18229 0.807293,0.18229 0.442709,0 0.846355,-0.11719 0.403647,-0.11719 0.781251,-0.3125 0.377605,-0.20833 0.75521,-0.46875 0.377604,-0.26042 0.76823,-0.5599 z m 6.471362,10.91147 q 0.15625,0.0651 0.338542,0.16927 0.195313,0.10417 0.416668,0.19532 0.234375,0.10416 0.507813,0.16927 0.273438,0.0651 0.61198,0.0651 0.416667,0 0.781251,-0.23437 0.364583,-0.23438 0.664063,-0.58594 0.29948,-0.35157 0.533855,-0.76823 0.234371,-0.41667 0.390621,-0.78125 l 0.89844,-2.00521 -6.809901,-12.70835 h 3.007816 l 5.130215,9.63542 4.20573,-9.63542 h 1.41928 l -6.80991,15.6771 q -0.42969,0.97656 -0.98958,1.69271 -0.546878,0.71615 -1.171879,1.1849 -0.625001,0.46875 -1.289064,0.6901 -0.664063,0.23438 -1.289064,0.23438 -0.468751,0 -0.91146,-0.14323 -0.442708,-0.14323 -0.742188,-0.37761 z m 17.343774,-3.15104 h -2.65625 V 95.883379 l 1.88802,-0.75521 h 0.76823 z m 10.82032,0.28645 q -1.53646,0 -2.82552,-0.53385 -1.28906,-0.53385 -2.22657,-1.44531 -0.9375,-0.92448 -1.47135,-2.14844 -0.52084,-1.23699 -0.52084,-2.64324 0,-1.47135 0.52084,-2.76042 0.53385,-1.30208 1.47135,-2.26563 0.93751,-0.96354 2.22657,-1.51041 1.28906,-0.5599 2.82552,-0.5599 1.52344,0 2.79949,0.50781 1.28906,0.50782 2.22656,1.39323 0.9375,0.88542 1.45834,2.08334 0.53385,1.1849 0.53385,2.55209 0,1.51042 -0.53385,2.85156 -0.52084,1.32813 -1.45834,2.33073 -0.9375,0.98959 -2.22656,1.57553 -1.27605,0.57291 -2.79949,0.57291 z m 0.50782,-0.97656 q 0.78125,0 1.43229,-0.40365 0.65104,-0.40364 1.11979,-1.08073 0.46875,-0.6901 0.72917,-1.58854 0.26042,-0.89844 0.26042,-1.90104 0,-1.44532 -0.2474,-2.70834 -0.24739,-1.26302 -0.80729,-2.20052 -0.5599,-0.93751 -1.45834,-1.47136 -0.89843,-0.54688 -2.1875,-0.54688 -0.66406,0 -1.28906,0.39063 -0.625,0.3776 -1.10677,1.04167 -0.46876,0.66406 -0.75521,1.5625 -0.28646,0.88542 -0.28646,1.88802 0,1.45834 0.29948,2.73438 0.3125,1.27604 0.89844,2.22657 0.59895,0.95052 1.44531,1.51042 0.85938,0.54687 1.95313,0.54687 z m 12.16147,-12.89064 h 0.40365 l 0.35156,2.72136 q 0.3125,-0.59896 0.78125,-1.09375 0.46875,-0.4948 1.02865,-0.85938 0.57292,-0.36458 1.19792,-0.5599 0.63802,-0.20833 1.28906,-0.20833 0.58594,0 1.14584,0.15625 0.57291,0.15625 1.06771,0.49479 l -0.83334,2.22657 q -0.26042,-0.28646 -0.54687,-0.45573 -0.28646,-0.18229 -0.58594,-0.27344 -0.29948,-0.10417 -0.61198,-0.13021 -0.3125,-0.026 -0.625,-0.026 -0.4948,0 -0.97657,0.14323 -0.46875,0.14323 -0.89844,0.42969 -0.42968,0.27344 -0.79427,0.71614 -0.36458,0.42969 -0.63802,1.01563 v 9.28387 h -2.64323 v -12.85158 z m 9.24481,3.33334 q -0.11719,-0.95052 -0.29948,-1.71875 -0.16928,-0.78126 -0.33855,-1.48438 -0.15625,-0.71615 -0.27343,-1.40625 -0.10417,-0.690111 -0.10417,-1.484381 0,-0.27344 0.10417,-0.50781 0.10416,-0.2474 0.27343,-0.41667 0.1823,-0.18229 0.41667,-0.28646 0.2474,-0.10417 0.52083,-0.10417 0.5599,0 0.93751,0.37761 0.39062,0.3776 0.39062,0.9375 0,0.79427 -0.11719,1.484381 -0.11718,0.6901 -0.28645,1.40625 -0.15626,0.70312 -0.32553,1.48438 -0.16927,0.76823 -0.28645,1.71875 z m 8.91928,9.60938 q 0.53386,0 0.98959,-0.15625 0.45573,-0.16927 0.78125,-0.4427 0.33854,-0.27344 0.52083,-0.62501 0.18229,-0.36458 0.18229,-0.74218 0,-0.61198 -0.3125,-1.06771 -0.29948,-0.45573 -0.80729,-0.8073 -0.49479,-0.36458 -1.13281,-0.66406 -0.63803,-0.29948 -1.30209,-0.61198 -0.66406,-0.32552 -1.30208,-0.67708 -0.63803,-0.36459 -1.14584,-0.84636 -0.49479,-0.48177 -0.80729,-1.10677 -0.29948,-0.63802 -0.29948,-1.48438 0,-0.79427 0.33854,-1.47135 0.33854,-0.69011 0.9375,-1.1849 0.61198,-0.49479 1.44532,-0.76823 0.83333,-0.28646 1.82292,-0.28646 0.66406,0 1.23698,0.0911 0.57291,0.0911 1.11979,0.35156 0.5599,0.26042 1.10677,0.75521 0.54688,0.48177 1.15886,1.26302 l -0.97657,0.8724 q -0.75521,-1.23698 -1.69271,-1.83594 -0.92448,-0.61198 -1.97917,-0.61198 -0.57291,0 -1.04166,0.14323 -0.46875,0.13021 -0.8073,0.3776 -0.32552,0.23438 -0.52083,0.5599 -0.18229,0.32552 -0.18229,0.6901 0,0.59896 0.32552,1.04167 0.33854,0.44271 0.88542,0.80729 0.54687,0.35157 1.23698,0.65105 0.70312,0.29948 1.41927,0.61198 0.72917,0.3125 1.41927,0.67708 0.70313,0.36458 1.25,0.84636 0.54688,0.46875 0.8724,1.09375 0.33854,0.625 0.33854,1.45833 0,0.84636 -0.3125,1.58855 -0.3125,0.72916 -0.95052,1.27604 -0.625,0.53385 -1.57552,0.84635 -0.95052,0.3125 -2.23959,0.3125 -0.58594,0 -1.21094,-0.0911 -0.61198,-0.0911 -1.23698,-0.35156 -0.625,-0.27344 -1.25,-0.75521 -0.625,-0.48177 -1.22396,-1.26303 l 1.08073,-0.97656 q 0.48177,0.67708 0.92448,1.15886 0.44271,0.46875 0.89844,0.78125 0.46875,0.29948 0.95052,0.44271 0.49479,0.1302 1.06771,0.1302 z M 170.5451,98.839109 q -1.5625,0 -2.89063,0.5599 -1.31511,0.54688 -2.27865,1.588541 -0.95052,1.02865 -1.48438,2.50001 -0.53385,1.45833 -0.53385,3.26823 0,1.82292 0.57292,3.29428 0.58593,1.45833 1.58854,2.48698 1.01563,1.02865 2.38282,1.58854 1.36718,0.54688 2.92969,0.54688 1.13281,0 2.04427,-0.29948 0.91146,-0.3125 1.64063,-0.88542 v -6.05469 h -3.26824 v -1.02865 h 6.17189 v 7.59115 q -0.75521,0.40365 -1.52344,0.71615 -0.76823,0.3125 -1.66667,0.52083 -0.88542,0.20834 -1.95313,0.3125 -1.06771,0.11719 -2.42188,0.11719 -1.43229,0 -2.72135,-0.32552 -1.28907,-0.3125 -2.39584,-0.89844 -1.09375,-0.58594 -1.97917,-1.39323 -0.88542,-0.82031 -1.51042,-1.8099 -0.61198,-0.98958 -0.95052,-2.12239 -0.33854,-1.13282 -0.33854,-2.35678 0,-1.21094 0.3125,-2.35677 0.32552,-1.15886 0.92448,-2.17448 0.59896,-1.02865 1.45833,-1.87501 0.85938,-0.846351 1.94011,-1.458331 1.08073,-0.61198 2.35677,-0.95052 1.27605,-0.33855 2.70834,-0.33855 1.36719,0 2.52604,0.37761 1.17188,0.36458 2.1224,0.97656 0.96355,0.61198 1.70573,1.419271 0.74219,0.79428 1.27605,1.66667 l -1.25,0.83334 q -1.09375,-2.09636 -2.4349,-3.059901 -1.32813,-0.97657 -3.0599,-0.97657 z m 13.95835,3.085951 v 9.4922 q 0,0.49479 0.22135,0.9375 0.23438,0.44271 0.63803,0.76823 0.40364,0.32552 0.92448,0.52083 0.53385,0.18229 1.14583,0.18229 0.39063,0 0.83334,-0.16927 0.45573,-0.16927 0.88541,-0.45573 0.42969,-0.29948 0.79428,-0.6901 0.3776,-0.40365 0.63802,-0.84636 v -9.73959 h 2.63021 v 13.33335 h -2.63021 v -2.50001 q -0.35157,0.57292 -0.88542,1.08073 -0.52083,0.50782 -1.13281,0.88542 -0.61198,0.37761 -1.26303,0.59896 -0.65104,0.22135 -1.23698,0.22135 -0.87239,0 -1.64063,-0.32552 -0.76823,-0.32552 -1.34114,-0.88541 -0.57292,-0.5599 -0.91146,-1.31511 -0.32552,-0.75521 -0.32552,-1.60156 v -9.4922 z m 13.60679,0.50781 1.86198,-0.75521 h 0.76823 v 13.58075 h -2.63021 z m -0.20833,-5.611991 q 0,-0.3125 0.11718,-0.58594 0.11719,-0.27343 0.32553,-0.48177 0.20833,-0.20833 0.48177,-0.32552 0.27344,-0.11719 0.58594,-0.11719 0.3125,0 0.58593,0.11719 0.27344,0.11719 0.48178,0.32552 0.20833,0.20834 0.32552,0.48177 0.11718,0.27344 0.11718,0.58594 0,0.3125 -0.11718,0.58594 -0.11719,0.27344 -0.32552,0.48177 -0.20834,0.20834 -0.48178,0.32552 -0.27343,0.11719 -0.58593,0.11719 -0.3125,0 -0.58594,-0.11719 -0.27344,-0.11718 -0.48177,-0.32552 -0.20834,-0.20833 -0.32553,-0.48177 -0.11718,-0.27344 -0.11718,-0.58594 z m 16.84898,17.148461 q -0.45573,0.36459 -0.98959,0.66407 -0.53385,0.28645 -1.11979,0.49479 -0.57292,0.19531 -1.15886,0.29948 -0.58593,0.11718 -1.14583,0.11718 -1.17188,0 -2.20052,-0.54687 -1.01563,-0.54688 -1.78386,-1.47136 -0.75521,-0.92448 -1.19792,-2.14844 -0.44271,-1.23698 -0.44271,-2.60417 0,-1.35417 0.54688,-2.63021 0.55989,-1.27604 1.51042,-2.26563 0.95052,-1.0026 2.21354,-1.60156 1.27604,-0.59896 2.72136,-0.59896 0.97656,0 1.69271,0.33854 0.72917,0.33854 1.35417,0.89844 v -7.031261 l 1.86198,-0.75521 h 0.76823 v 20.130241 h -2.63021 z m 0,-7.79949 q 0,-0.78125 -0.29948,-1.41927 -0.28646,-0.65104 -0.75521,-1.10677 -0.46875,-0.46875 -1.06771,-0.71615 -0.58594,-0.26042 -1.1849,-0.26042 -0.79427,0 -1.48438,0.39063 -0.6901,0.39063 -1.21093,1.10677 -0.50782,0.70313 -0.8073,1.69271 -0.29948,0.97657 -0.29948,2.16146 0,1.27605 0.32552,2.38282 0.32553,1.10677 0.88542,1.94011 0.57292,0.82031 1.32813,1.30208 0.76823,0.46875 1.64063,0.46875 0.41666,0 0.83333,-0.10417 0.42969,-0.11718 0.80729,-0.29947 0.37761,-0.19532 0.70313,-0.44271 0.33854,-0.2474 0.58594,-0.52084 z m 12.9297,9.37501 q -1.35417,0 -2.55209,-0.50781 -1.18489,-0.50781 -2.07031,-1.38021 -0.88542,-0.8724 -1.40625,-2.04427 -0.50782,-1.1849 -0.50782,-2.51303 0,-1.60156 0.46875,-2.95573 0.46876,-1.36719 1.32813,-2.35677 0.85938,-0.98959 2.0573,-1.54948 1.21093,-0.5599 2.69531,-0.5599 1.30209,0 2.39584,0.46875 1.09375,0.45573 1.875,1.23698 0.79427,0.76823 1.22396,1.78386 0.44271,1.01562 0.44271,2.1224 h -9.93491 q 0,1.34114 0.33854,2.48698 0.35157,1.14583 0.97657,1.97917 0.625,0.83333 1.48437,1.30208 0.85938,0.46875 1.88803,0.46875 0.85937,0 1.65364,-0.27343 0.79428,-0.28646 1.4323,-0.74219 0.65104,-0.45573 1.10677,-1.04167 0.45573,-0.58594 0.63802,-1.21094 l 0.76823,0.33854 q -0.28646,1.02865 -0.92448,1.92709 -0.63802,0.89844 -1.4974,1.57552 -0.84635,0.66406 -1.84896,1.05469 -1.0026,0.39062 -2.03125,0.39062 z m 2.63021,-9.32292 q 0,-0.75521 -0.27344,-1.40626 -0.26041,-0.65104 -0.72916,-1.11979 -0.46875,-0.48177 -1.09375,-0.75521 -0.62501,-0.27344 -1.34115,-0.27344 -0.59896,0 -1.14584,0.27344 -0.54687,0.26042 -0.97656,0.74219 -0.42969,0.46875 -0.71615,1.11979 -0.27344,0.65105 -0.32552,1.40626 z m 15.70315,-8.828141 h 0.75521 v 4.531261 h 2.96875 v 1.13281 h -2.96875 v 9.38803 q 0,0.29948 0.10417,0.5599 0.11718,0.26042 0.29948,0.45573 0.19531,0.19531 0.45573,0.3125 0.26041,0.10417 0.57291,0.10417 0.44271,0 0.8073,-0.22136 0.36458,-0.22135 0.63802,-0.54687 l 0.66406,0.4427 q -0.54687,0.92449 -1.41927,1.45834 -0.8724,0.53385 -2.16146,0.53385 -0.66407,0 -1.15886,-0.23437 -0.49479,-0.22135 -0.82031,-0.625 -0.3125,-0.41667 -0.46875,-0.97656 -0.15625,-0.57292 -0.15625,-1.26303 v -9.38803 h -2.31771 v -0.49479 l 2.31771,-0.63802 v -3.789071 z m 13.93231,18.151061 q -1.53646,0 -2.82552,-0.53385 -1.28907,-0.53385 -2.22657,-1.44531 -0.9375,-0.92448 -1.47135,-2.14844 -0.52084,-1.23699 -0.52084,-2.64324 0,-1.47135 0.52084,-2.76042 0.53385,-1.30208 1.47135,-2.26563 0.9375,-0.96354 2.22657,-1.51041 1.28906,-0.5599 2.82552,-0.5599 1.52344,0 2.79948,0.50781 1.28907,0.50782 2.22657,1.39323 0.9375,0.88542 1.45834,2.08334 0.53385,1.1849 0.53385,2.55209 0,1.51042 -0.53385,2.85156 -0.52084,1.32813 -1.45834,2.33073 -0.9375,0.98959 -2.22657,1.57553 -1.27604,0.57291 -2.79948,0.57291 z m 0.50782,-0.97656 q 0.78125,0 1.43229,-0.40365 0.65104,-0.40364 1.11979,-1.08073 0.46875,-0.6901 0.72917,-1.58854 0.26042,-0.89844 0.26042,-1.90104 0,-1.44532 -0.2474,-2.70834 -0.2474,-1.26302 -0.80729,-2.20052 -0.5599,-0.93751 -1.45834,-1.47136 -0.89844,-0.54688 -2.1875,-0.54688 -0.66406,0 -1.28906,0.39063 -0.62501,0.3776 -1.10678,1.04167 -0.46875,0.66406 -0.75521,1.5625 -0.28645,0.88542 -0.28645,1.88802 0,1.45834 0.29947,2.73438 0.31251,1.27604 0.89844,2.22657 0.59896,0.95052 1.44532,1.51042 0.85937,0.54687 1.95313,0.54687 z m 21.39325,0 q 0.63802,0 1.26302,-0.16927 0.625,-0.18229 1.11979,-0.52083 0.4948,-0.35157 0.79428,-0.84636 0.29948,-0.50781 0.29948,-1.17188 0,-0.79427 -0.41667,-1.40625 -0.40365,-0.625 -1.06771,-1.13281 -0.66406,-0.52084 -1.52344,-0.97657 -0.84636,-0.45572 -1.73177,-0.91145 -0.88542,-0.45573 -1.7448,-0.95053 -0.84635,-0.50781 -1.51042,-1.11979 -0.66406,-0.625 -1.08073,-1.38021 -0.40364,-0.76823 -0.40364,-1.75781 0,-0.98959 0.36458,-1.83594 0.37761,-0.846361 1.09375,-1.458341 0.71615,-0.625 1.75782,-0.97656 1.05469,-0.35157 2.40885,-0.35157 1.22396,0 2.18751,0.26042 0.96354,0.26042 1.69271,0.76823 0.72916,0.50781 1.23698,1.25 0.50781,0.742191 0.82031,1.718751 l -1.48438,0.67709 q -0.26041,-0.79427 -0.66406,-1.44532 -0.40365,-0.66406 -0.96354,-1.132811 -0.5599,-0.46875 -1.30209,-0.71615 -0.72916,-0.26041 -1.65364,-0.26041 -0.82032,0 -1.4323,0.23437 -0.61198,0.22136 -1.02865,0.59896 -0.40364,0.36459 -0.61198,0.833341 -0.19531,0.45573 -0.19531,0.9375 0,0.67708 0.41667,1.25 0.41667,0.5599 1.10677,1.06771 0.69011,0.49479 1.5625,0.96354 0.88542,0.46875 1.79688,0.95052 0.91146,0.48177 1.78386,1.00261 0.88541,0.52083 1.57552,1.14583 0.6901,0.61198 1.10677,1.35417 0.41667,0.72917 0.41667,1.64063 0,1.02865 -0.39063,1.94011 -0.39062,0.89843 -1.17187,1.57552 -0.78125,0.66406 -1.94011,1.05469 -1.15885,0.39062 -2.69532,0.39062 -1.25,0 -2.22656,-0.27344 -0.97656,-0.27343 -1.73177,-0.79427 -0.74219,-0.52083 -1.27605,-1.26302 -0.53385,-0.75521 -0.87239,-1.71875 l 1.54948,-0.63802 q 0.27344,0.84635 0.72917,1.51042 0.46875,0.66406 1.08073,1.13281 0.61198,0.45573 1.35416,0.70313 0.75521,0.24739 1.60157,0.24739 z m 18.77605,-8.89324 q -0.14323,-0.52083 -0.39062,-1.05469 -0.2474,-0.53385 -0.63802,-0.96354 -0.37761,-0.44271 -0.89844,-0.71615 -0.52084,-0.27344 -1.22396,-0.27344 -0.89844,0 -1.61459,0.36459 -0.71614,0.36458 -1.21094,0.98958 -0.49479,0.625 -0.75521,1.45834 -0.26041,0.83333 -0.26041,1.77083 0,1.27605 0.32552,2.42188 0.33854,1.13282 0.9375,1.99219 0.61198,0.85938 1.45834,1.36719 0.85937,0.49479 1.91406,0.49479 0.92448,0 1.60156,-0.28646 0.69011,-0.29948 1.1849,-0.79427 0.50782,-0.49479 0.8724,-1.14583 0.36458,-0.66407 0.65104,-1.39323 l 0.79427,0.32552 q -0.33854,1.25 -0.91146,2.23958 -0.57291,0.98959 -1.35416,1.67969 -0.76823,0.67709 -1.7448,1.04167 -0.96354,0.35156 -2.09636,0.35156 -1.3151,0 -2.46094,-0.50781 -1.14583,-0.52083 -1.99219,-1.41927 -0.84635,-0.89844 -1.34114,-2.09636 -0.4948,-1.19792 -0.4948,-2.56511 0,-1.0026 0.2474,-1.92708 0.2474,-0.9375 0.69011,-1.74479 0.45573,-0.8073 1.08073,-1.47136 0.63802,-0.66406 1.40625,-1.13281 0.76823,-0.48178 1.64063,-0.74219 0.88541,-0.26042 1.83593,-0.26042 0.79428,0 1.52344,0.18229 0.72917,0.18229 1.34115,0.52084 0.61198,0.32552 1.08073,0.82031 0.46875,0.48177 0.72917,1.08073 z m 14.7917,9.58335 q -0.52084,-0.26042 -0.88542,-0.72917 -0.35156,-0.48177 -0.35156,-1.09375 -0.46876,0.35156 -0.92449,0.72916 -0.4427,0.37761 -0.97656,0.69011 -0.52083,0.29948 -1.17188,0.49479 -0.63802,0.19531 -1.48437,0.19531 -0.78125,0 -1.41928,-0.26041 -0.625,-0.2474 -1.0677,-0.69011 -0.42969,-0.44271 -0.67709,-1.05469 -0.23437,-0.61198 -0.23437,-1.3151 0,-0.85938 0.33854,-1.54948 0.33854,-0.69011 0.92448,-1.22396 0.59896,-0.54688 1.38021,-0.96355 0.78125,-0.42968 1.66667,-0.7552 0.88541,-0.33855 1.82292,-0.59896 0.9375,-0.26042 1.82292,-0.48178 v -0.83333 q 0,-0.91146 -0.13021,-1.53646 -0.13021,-0.625 -0.40365,-1.00261 -0.27344,-0.39062 -0.70313,-0.54687 -0.41666,-0.16927 -1.0026,-0.16927 -0.5599,0 -1.02865,0.22135 -0.46875,0.22136 -0.83333,0.59896 -0.35157,0.36458 -0.58594,0.8724 -0.22136,0.49479 -0.29948,1.05469 h -2.42188 q 0.10417,-0.85938 0.58594,-1.53646 0.49479,-0.67709 1.23698,-1.13282 0.74219,-0.46875 1.67969,-0.71614 0.95052,-0.2474 1.96615,-0.2474 1.30208,0 2.1875,0.26042 0.88542,0.24739 1.41927,0.70312 0.53386,0.45573 0.75521,1.1198 0.23438,0.65104 0.23438,1.44531 v 8.22918 q 0,0.61198 0.35156,1.09375 0.36459,0.46875 0.88542,0.72917 z m -1.23698,-7.76043 q -0.57292,0.18229 -1.1849,0.41667 -0.61198,0.23437 -1.19792,0.53385 -0.58594,0.28646 -1.11979,0.625 -0.53386,0.33854 -0.9375,0.72917 -0.40365,0.39063 -0.63803,0.82031 -0.23437,0.42969 -0.23437,0.89844 0,0.49479 0.18229,0.9375 0.18229,0.42969 0.48177,0.76823 0.29948,0.32552 0.69011,0.52084 0.39062,0.18229 0.80729,0.18229 0.44271,0 0.84635,-0.11719 0.40365,-0.11719 0.78126,-0.3125 0.3776,-0.20833 0.7552,-0.46875 0.37761,-0.26042 0.76824,-0.5599 z m 9.59635,7.76043 H 321.1182 V 95.883379 l 1.88802,-0.75521 h 0.76823 z m 10.31253,0.28645 q -1.35417,0 -2.55209,-0.50781 -1.1849,-0.50781 -2.07031,-1.38021 -0.88542,-0.8724 -1.40626,-2.04427 -0.50781,-1.1849 -0.50781,-2.51303 0,-1.60156 0.46875,-2.95573 0.46875,-1.36719 1.32813,-2.35677 0.85937,-0.98959 2.05729,-1.54948 1.21094,-0.5599 2.69532,-0.5599 1.30208,0 2.39584,0.46875 1.09375,0.45573 1.875,1.23698 0.79427,0.76823 1.22396,1.78386 0.44271,1.01562 0.44271,2.1224 h -9.93491 q 0,1.34114 0.33854,2.48698 0.35156,1.14583 0.97656,1.97917 0.625,0.83333 1.48438,1.30208 0.85938,0.46875 1.88802,0.46875 0.85938,0 1.65365,-0.27343 0.79427,-0.28646 1.4323,-0.74219 0.65104,-0.45573 1.10677,-1.04167 0.45573,-0.58594 0.63802,-1.21094 l 0.76823,0.33854 q -0.28646,1.02865 -0.92448,1.92709 -0.63802,0.89844 -1.4974,1.57552 -0.84635,0.66406 -1.84896,1.05469 -1.0026,0.39062 -2.03125,0.39062 z m 2.63021,-9.32292 q 0,-0.75521 -0.27344,-1.40626 -0.26042,-0.65104 -0.72917,-1.11979 -0.46875,-0.48177 -1.09375,-0.75521 -0.625,-0.27344 -1.34114,-0.27344 -0.59896,0 -1.14584,0.27344 -0.54688,0.26042 -0.97656,0.74219 -0.42969,0.46875 -0.71615,1.11979 -0.27344,0.65105 -0.32552,1.40626 z m 11.45836,8.39844 q 0.53385,0 0.98958,-0.15625 0.45573,-0.16927 0.78125,-0.4427 0.33855,-0.27344 0.52084,-0.62501 0.18229,-0.36458 0.18229,-0.74218 0,-0.61198 -0.3125,-1.06771 -0.29948,-0.45573 -0.80729,-0.8073 -0.4948,-0.36458 -1.13282,-0.66406 -0.63802,-0.29948 -1.30208,-0.61198 -0.66407,-0.32552 -1.30209,-0.67708 -0.63802,-0.36459 -1.14583,-0.84636 -0.49479,-0.48177 -0.80729,-1.10677 -0.29948,-0.63802 -0.29948,-1.48438 0,-0.79427 0.33854,-1.47135 0.33854,-0.69011 0.9375,-1.1849 0.61198,-0.49479 1.44531,-0.76823 0.83334,-0.28646 1.82292,-0.28646 0.66407,0 1.23698,0.0911 0.57292,0.0911 1.1198,0.35156 0.55989,0.26042 1.10677,0.75521 0.54687,0.48177 1.15885,1.26302 l -0.97656,0.8724 q -0.75521,-1.23698 -1.69271,-1.83594 -0.92448,-0.61198 -1.97917,-0.61198 -0.57292,0 -1.04167,0.14323 -0.46875,0.13021 -0.80729,0.3776 -0.32552,0.23438 -0.52083,0.5599 -0.1823,0.32552 -0.1823,0.6901 0,0.59896 0.32553,1.04167 0.33854,0.44271 0.88541,0.80729 0.54688,0.35157 1.23698,0.65105 0.70313,0.29948 1.41928,0.61198 0.72916,0.3125 1.41927,0.67708 0.70312,0.36458 1.25,0.84636 0.54688,0.46875 0.8724,1.09375 0.33854,0.625 0.33854,1.45833 0,0.84636 -0.3125,1.58855 -0.3125,0.72916 -0.95052,1.27604 -0.625,0.53385 -1.57553,0.84635 -0.95052,0.3125 -2.23958,0.3125 -0.58594,0 -1.21094,-0.0911 -0.61198,-0.0911 -1.23698,-0.35156 -0.625,-0.27344 -1.25,-0.75521 -0.625,-0.48177 -1.22396,-1.26303 l 1.08073,-0.97656 q 0.48177,0.67708 0.92448,1.15886 0.44271,0.46875 0.89844,0.78125 0.46875,0.29948 0.95052,0.44271 0.49479,0.1302 1.06771,0.1302 z"
     id="text1"
     aria-label="Taylor's Guide to Scales" /></svg>
