<?xml version="1.0" encoding="UTF-8" standalone="no"?>
<svg
   width="400"
   height="475"
   viewBox="0 0 400 475"
   id="svg2"
   version="1.1"
   xml:space="preserve"
   sodipodi:docname="taylors_guide_to_scales_cover.svg"
   inkscape:version="1.4.3 (0d15f75, 2025-12-25)"
   xmlns:inkscape="http://www.inkscape.org/namespaces/inkscape"
   xmlns:sodipodi="http://sodipodi.sourceforge.net/DTD/sodipodi-0.dtd"
   xmlns:xlink="http://www.w3.org/1999/xlink"
   xmlns="http://www.w3.org/2000/svg"
   xmlns:svg="http://www.w3.org/2000/svg"
   xmlns:rdf="http://www.w3.org/1999/02/22-rdf-syntax-ns#"
   xmlns:cc="http://creativecommons.org/ns#"
   xmlns:dc="http://purl.org/dc/elements/1.1/"><sodipodi:namedview
     id="namedview1"
     pagecolor="#ffffff"
     bordercolor="#000000"
     borderopacity="0.25"
     inkscape:showpageshadow="2"
     inkscape:pageopacity="0.0"
     inkscape:pagecheckerboard="0"
     inkscape:deskcolor="#d1d1d1"
     inkscape:zoom="1.0000001"
     inkscape:cx="265.99997"
     inkscape:cy="195.99998"
     inkscape:window-width="1512"
     inkscape:window-height="921"
     inkscape:window-x="0"
     inkscape:window-y="33"
     inkscape:window-maximized="0"
     inkscape:current-layer="svg2"
     showgrid="false"><inkscape:grid
       id="grid1"
       units="px"
       originx="0"
       originy="0"
       spacingx="1"
       spacingy="1"
       empcolor="#0099e5"
       empopacity="0.30196078"
       color="#0099e5"
       opacity="0.14901961"
       empspacing="5"
       enabled="true"
       visible="false" /></sodipodi:namedview><defs
     id="defs4"><linearGradient
       id="linearGradient1"
       inkscape:collect="always"><stop
         style="stop-color:#f8bc7c;stop-opacity:1;"
         offset="0.14733543"
         id="stop1" /><stop
         style="stop-color:#f6a87e;stop-opacity:1;"
         offset="0.92946708"
         id="stop2" /></linearGradient><filter
       style="color-interpolation-filters:sRGB"
       id="filter8603"
       x="-0.013048176"
       width="1.0260964"
       y="-0.011107704"
       height="1.0222154"><feGaussianBlur
         stdDeviation="2.164541"
         id="feGaussianBlur8605" /></filter><linearGradient
       inkscape:collect="always"
       xlink:href="#linearGradient1"
       id="linearGradient2"
       x1="205.44968"
       y1="54.360893"
       x2="205.44968"
       y2="404.97623"
       gradientUnits="userSpaceOnUse" /></defs><metadata
     id="metadata7"><rdf:RDF><cc:Work
         rdf:about=""><dc:format>image/svg+xml</dc:format><dc:type
           rdf:resource="http://purl.org/dc/dcmitype/StillImage" /></cc:Work></rdf:RDF></metadata><rect
     y="7.3157396"
     x="-1.1132812e-06"
     height="467.68427"
     width="398.13214"
     id="rect4502"
     style="color:#000000;clip-rule:nonzero;display:inline;overflow:visible;visibility:visible;isolation:auto;mix-blend-mode:normal;color-interpolation:sRGB;color-interpolation-filters:linearRGB;solid-color:#000000;solid-opacity:1;fill:#b4c1de;fill-opacity:1;fill-rule:nonzero;stroke:none;stroke-width:2;stroke-linecap:butt;stroke-linejoin:miter;stroke-miterlimit:4;stroke-dasharray:none;stroke-dashoffset:0;stroke-opacity:1;filter:url(#filter8603);color-rendering:auto;image-rendering:auto;shape-rendering:auto;text-rendering:auto;enable-background:accumulate"
     ry="2.2321417"
     transform="matrix(0.98728367,0,0,0.98913373,5.1288392,0.02304565)" /><rect
     y="0.21581759"
     x="10.434875"
     height="459.78418"
     width="389.56512"
     id="rect4504"
     style="color:#000000;clip-rule:nonzero;display:inline;overflow:visible;visibility:visible;isolation:auto;mix-blend-mode:normal;color-interpolation:sRGB;color-interpolation-filters:linearRGB;solid-color:#000000;solid-opacity:1;fill:#971b45;fill-opacity:1;fill-rule:nonzero;stroke:#000000;stroke-width:0.8;stroke-linecap:butt;stroke-linejoin:miter;stroke-miterlimit:4;stroke-dasharray:none;stroke-dashoffset:0;stroke-opacity:1;color-rendering:auto;image-rendering:auto;shape-rendering:auto;text-rendering:auto;enable-background:accumulate" /><rect
     y="25.128267"
     x="30.14201"
     height="409.0806"
     width="350.61533"
     id="rect1"
     style="color:#000000;clip-rule:nonzero;display:inline;overflow:visible;visibility:visible;isolation:auto;mix-blend-mode:normal;color-interpolation:sRGB;color-interpolation-filters:linearRGB;solid-color:#000000;solid-opacity:1;fill:url(#linearGradient2);fill-opacity:1;fill-rule:nonzero;stroke:none;stroke-width:0.715884;stroke-linecap:butt;stroke-linejoin:miter;stroke-miterlimit:4;stroke-dasharray:none;stroke-dashoffset:0;stroke-opacity:1;color-rendering:auto;image-rendering:auto;shape-rendering:auto;text-rendering:auto;enable-background:accumulate" /><g
     aria-label="Taylor Hummon"
     style="font-style:normal;font-variant:normal;font-weight:normal;font-stretch:normal;font-size:9.6px;line-height:0%;font-family:'Latin Modern Sans';-inkscape-font-specification:'Latin Modern Sans, Normal';text-align:start;letter-spacing:0px;word-spacing:0px;writing-mode:lr-tb;text-anchor:start;fill:#493746;fill-opacity:1;stroke:none;stroke-width:0.8;stroke-linecap:butt;stroke-linejoin:miter;stroke-opacity:1;stroke-dasharray:none"
     id="text4508"
     transform="translate(558.71856,20.17611)"><path
       style="font-weight:bold;font-size:12px;line-height:1.25;font-family:'Helvetica Neue';-inkscape-font-specification:'Helvetica Neue, Bold';stroke-width:0.8;stroke-dasharray:none"
       d="m -395.24896,335.52992 v 6.984 h 1.884 v -6.984 h 2.568 v -1.584 h -7.02 v 1.584 z m 3.852,2.688 q 0.036,-0.6 0.3,-0.996 0.264,-0.396 0.672,-0.636 0.408,-0.24 0.912,-0.336 0.516,-0.108 1.032,-0.108 0.468,0 0.948,0.072 0.48,0.06 0.876,0.252 0.396,0.192 0.648,0.54 0.252,0.336 0.252,0.9 v 3.228 q 0,0.42 0.048,0.804 0.048,0.384 0.168,0.576 h -1.728 q -0.048,-0.144 -0.084,-0.288 -0.024,-0.156 -0.036,-0.312 -0.408,0.42 -0.96,0.588 -0.552,0.168 -1.128,0.168 -0.444,0 -0.828,-0.108 -0.384,-0.108 -0.672,-0.336 -0.288,-0.228 -0.456,-0.576 -0.156,-0.348 -0.156,-0.828 0,-0.528 0.18,-0.864 0.192,-0.348 0.48,-0.552 0.3,-0.204 0.672,-0.3 0.384,-0.108 0.768,-0.168 0.384,-0.06 0.756,-0.096 0.372,-0.036 0.66,-0.108 0.288,-0.072 0.456,-0.204 0.168,-0.144 0.156,-0.408 0,-0.276 -0.096,-0.432 -0.084,-0.168 -0.24,-0.252 -0.144,-0.096 -0.348,-0.12 -0.192,-0.036 -0.42,-0.036 -0.504,0 -0.792,0.216 -0.288,0.216 -0.336,0.72 z m 3.936,1.26 q -0.108,0.096 -0.276,0.156 -0.156,0.048 -0.348,0.084 -0.18,0.036 -0.384,0.06 -0.204,0.024 -0.408,0.06 -0.192,0.036 -0.384,0.096 -0.18,0.06 -0.324,0.168 -0.132,0.096 -0.216,0.252 -0.084,0.156 -0.084,0.396 0,0.228 0.084,0.384 0.084,0.156 0.228,0.252 0.144,0.084 0.336,0.12 0.192,0.036 0.396,0.036 0.504,0 0.78,-0.168 0.276,-0.168 0.408,-0.396 0.132,-0.24 0.156,-0.48 0.036,-0.24 0.036,-0.384 z m 6.08399,3.804 2.592,-6.972 h -1.764 l -1.356,4.248 h -0.024 l -1.404,-4.248 h -1.812 l 2.172,5.82 q 0.072,0.18 0.072,0.384 0,0.276 -0.168,0.504 -0.156,0.228 -0.492,0.264 -0.252,0.012 -0.504,-0.012 -0.252,-0.024 -0.492,-0.048 v 1.404 q 0.264,0.024 0.516,0.036 0.264,0.024 0.528,0.024 0.876,0 1.368,-0.324 0.492,-0.324 0.768,-1.08 z m 3.21599,-9.336 v 8.568 h 1.704 v -8.568 z m 4.55999,5.472 q 0,-0.372 0.072,-0.732 0.072,-0.36 0.24,-0.636 0.18,-0.276 0.468,-0.444 0.288,-0.18 0.72,-0.18 0.432,0 0.72,0.18 0.3,0.168 0.468,0.444 0.18,0.276 0.252,0.636 0.072,0.36 0.072,0.732 0,0.372 -0.072,0.732 -0.072,0.348 -0.252,0.636 -0.168,0.276 -0.468,0.444 -0.288,0.168 -0.72,0.168 -0.432,0 -0.72,-0.168 -0.288,-0.168 -0.468,-0.444 -0.168,-0.288 -0.24,-0.636 -0.072,-0.36 -0.072,-0.732 z m -1.704,0 q 0,0.744 0.228,1.344 0.228,0.6 0.648,1.032 0.42,0.42 1.008,0.648 0.588,0.228 1.32,0.228 0.732,0 1.32,-0.228 0.6,-0.228 1.02,-0.648 0.42,-0.432 0.648,-1.032 0.228,-0.6 0.228,-1.344 0,-0.744 -0.228,-1.344 -0.228,-0.612 -0.648,-1.032 -0.42,-0.432 -1.02,-0.66 -0.588,-0.24 -1.32,-0.24 -0.732,0 -1.32,0.24 -0.588,0.228 -1.008,0.66 -0.42,0.42 -0.648,1.032 -0.228,0.6 -0.228,1.344 z m 7.524,-3.108 v 6.204 h 1.704 v -2.796 q 0,-0.42 0.084,-0.78 0.084,-0.36 0.276,-0.624 0.204,-0.276 0.528,-0.432 0.324,-0.156 0.792,-0.156 0.156,0 0.324,0.024 0.168,0.012 0.288,0.036 v -1.584 q -0.204,-0.06 -0.372,-0.06 -0.324,0 -0.624,0.096 -0.3,0.096 -0.564,0.276 -0.264,0.168 -0.468,0.42 -0.204,0.24 -0.324,0.528 h -0.024 v -1.152 z m 8.184,-2.364 v 8.568 h 1.884 v -3.696 h 3.468 v 3.696 h 1.884 v -8.568 h -1.884 v 3.288 h -3.468 v -3.288 z m 14.53199,8.568 v -6.204 h -1.704 v 3.252 q 0,0.948 -0.312,1.368 -0.312,0.408 -1.008,0.408 -0.612,0 -0.852,-0.372 -0.24,-0.384 -0.24,-1.152 v -3.504 h -1.704 v 3.816 q 0,0.576 0.096,1.056 0.108,0.468 0.36,0.804 0.252,0.324 0.684,0.504 0.444,0.18 1.128,0.18 0.54,0 1.056,-0.24 0.516,-0.24 0.84,-0.78 h 0.036 v 0.864 z m 1.34401,-6.204 v 6.204 h 1.704 v -3.6 q 0,-0.456 0.132,-0.732 0.132,-0.288 0.312,-0.432 0.192,-0.156 0.384,-0.204 0.204,-0.06 0.324,-0.06 0.408,0 0.612,0.144 0.216,0.132 0.3,0.36 0.096,0.228 0.108,0.504 0.012,0.264 0.012,0.54 v 3.48 h 1.704 v -3.456 q 0,-0.288 0.036,-0.564 0.048,-0.288 0.168,-0.504 0.132,-0.228 0.348,-0.36 0.228,-0.144 0.588,-0.144 0.36,0 0.564,0.12 0.216,0.12 0.324,0.324 0.108,0.204 0.132,0.48 0.024,0.276 0.024,0.588 v 3.516 h 1.704 v -4.152 q 0,-0.6 -0.168,-1.02 -0.168,-0.432 -0.468,-0.696 -0.3,-0.264 -0.72,-0.384 -0.42,-0.12 -0.912,-0.12 -0.648,0 -1.128,0.312 -0.468,0.312 -0.744,0.72 -0.252,-0.576 -0.744,-0.804 -0.48,-0.228 -1.068,-0.228 -0.612,0 -1.092,0.264 -0.468,0.264 -0.804,0.744 h -0.024 v -0.84 z m 10.872,0 v 6.204 h 1.704 v -3.6 q 0,-0.456 0.132,-0.732 0.132,-0.288 0.312,-0.432 0.192,-0.156 0.384,-0.204 0.204,-0.06 0.324,-0.06 0.408,0 0.612,0.144 0.216,0.132 0.3,0.36 0.096,0.228 0.108,0.504 0.012,0.264 0.012,0.54 v 3.48 h 1.704 v -3.456 q 0,-0.288 0.036,-0.564 0.048,-0.288 0.168,-0.504 0.132,-0.228 0.348,-0.36 0.228,-0.144 0.588,-0.144 0.36,0 0.564,0.12 0.216,0.12 0.324,0.324 0.108,0.204 0.132,0.48 0.024,0.276 0.024,0.588 v 3.516 h 1.704 v -4.152 q 0,-0.6 -0.168,-1.02 -0.168,-0.432 -0.468,-0.696 -0.3,-0.264 -0.72,-0.384 -0.42,-0.12 -0.912,-0.12 -0.648,0 -1.128,0.312 -0.468,0.312 -0.744,0.72 -0.252,-0.576 -0.744,-0.804 -0.48,-0.228 -1.068,-0.228 -0.612,0 -1.092,0.264 -0.468,0.264 -0.804,0.744 h -0.024 v -0.84 z m 12.336,3.108 q 0,-0.372 0.072,-0.732 0.072,-0.36 0.24,-0.636 0.18,-0.276 0.468,-0.444 0.288,-0.18 0.72,-0.18 0.432,0 0.72,0.18 0.3,0.168 0.468,0.444 0.18,0.276 0.252,0.636 0.072,0.36 0.072,0.732 0,0.372 -0.072,0.732 -0.072,0.348 -0.252,0.636 -0.168,0.276 -0.468,0.444 -0.288,0.168 -0.72,0.168 -0.432,0 -0.72,-0.168 -0.288,-0.168 -0.468,-0.444 -0.168,-0.288 -0.24,-0.636 -0.072,-0.36 -0.072,-0.732 z m -1.704,0 q 0,0.744 0.228,1.344 0.228,0.6 0.648,1.032 0.42,0.42 1.008,0.648 0.588,0.228 1.32,0.228 0.732,0 1.32,-0.228 0.6,-0.228 1.02,-0.648 0.42,-0.432 0.648,-1.032 0.228,-0.6 0.228,-1.344 0,-0.744 -0.228,-1.344 -0.228,-0.612 -0.648,-1.032 -0.42,-0.432 -1.02,-0.66 -0.588,-0.24 -1.32,-0.24 -0.732,0 -1.32,0.24 -0.588,0.228 -1.008,0.66 -0.42,0.42 -0.648,1.032 -0.228,0.6 -0.228,1.344 z m 7.524,-3.108 v 6.204 h 1.704 v -3.252 q 0,-0.948 0.312,-1.356 0.312,-0.42 1.008,-0.42 0.612,0 0.852,0.384 0.24,0.372 0.24,1.14 v 3.504 h 1.704 v -3.816 q 0,-0.576 -0.108,-1.044 -0.096,-0.48 -0.348,-0.804 -0.252,-0.336 -0.696,-0.516 -0.432,-0.192 -1.116,-0.192 -0.54,0 -1.056,0.252 -0.516,0.24 -0.84,0.78 h -0.036 v -0.864 z"
       id="text3890"
       aria-label="Taylor Hummon" /></g><circle
     style="fill:#493746;fill-opacity:1;stroke:none;stroke-width:0.639304;stroke-dasharray:none;stroke-opacity:1"
     id="circle4"
     cx="277.01794"
     cy="234.40648"
     r="2.8720195" /><circle
     style="fill:#493746;fill-opacity:1;stroke:none;stroke-width:0.639304;stroke-dasharray:none;stroke-opacity:1"
     id="circle6"
     cx="240.31035"
     cy="103.95115"
     r="2.8720198"
     transform="rotate(15)" /><circle
     style="fill:#493746;fill-opacity:1;stroke:none;stroke-width:0.639304;stroke-dasharray:none;stroke-opacity:1"
     id="circle7"
     cx="205.21744"
     cy="306.20694"
     r="2.8720195" /><circle
     style="fill:#493746;fill-opacity:1;stroke:none;stroke-width:0.639304;stroke-dasharray:none;stroke-opacity:1"
     id="circle8"
     cx="133.41696"
     cy="234.40648"
     r="2.8720195" /><circle
     style="fill:#493746;fill-opacity:1;stroke:none;stroke-width:0.639304;stroke-dasharray:none;stroke-opacity:1"
     id="circle10"
     cx="366.72729"
     cy="100.39324"
     r="2.8720198"
     transform="rotate(29.999999)" /><circle
     style="fill:#493746;fill-opacity:1;stroke:none;stroke-width:0.639304;stroke-dasharray:none;stroke-opacity:1"
     id="circle11"
     cx="294.92679"
     cy="28.592762"
     r="2.8720198"
     transform="rotate(29.999999)" /><circle
     style="fill:#493746;fill-opacity:1;stroke:none;stroke-width:0.639304;stroke-dasharray:none;stroke-opacity:1"
     id="circle12"
     cx="294.92679"
     cy="172.19377"
     r="2.8720198"
     transform="rotate(29.999999)" /><circle
     style="fill:#493746;fill-opacity:1;stroke:none;stroke-width:0.639304;stroke-dasharray:none;stroke-opacity:1"
     id="circle13"
     cx="223.12631"
     cy="100.39324"
     r="2.8720198"
     transform="rotate(29.999999)" /><circle
     style="fill:#493746;fill-opacity:1;stroke:none;stroke-width:0.639304;stroke-dasharray:none;stroke-opacity:1"
     id="circle15"
     cx="132.32083"
     cy="305.61069"
     r="2.8720198"
     transform="rotate(-29.999999)" /><circle
     style="fill:#493746;fill-opacity:1;stroke:none;stroke-width:0.639304;stroke-dasharray:none;stroke-opacity:1"
     id="circle16"
     cx="60.520348"
     cy="233.8102"
     r="2.8720198"
     transform="rotate(-29.999999)" /><circle
     style="fill:#493746;fill-opacity:1;stroke:none;stroke-width:0.639304;stroke-dasharray:none;stroke-opacity:1"
     id="circle17"
     cx="60.520348"
     cy="377.41119"
     r="2.8720198"
     transform="rotate(-29.999999)" /><circle
     style="fill:#493746;fill-opacity:1;stroke:none;stroke-width:0.639304;stroke-dasharray:none;stroke-opacity:1"
     id="circle18"
     cx="-11.280189"
     cy="305.61069"
     r="2.8720198"
     transform="rotate(-29.999999)" /><circle
     style="fill:none;fill-opacity:0.99511;stroke:#493746;stroke-width:2;stroke-dasharray:none;stroke-opacity:1"
     id="path7"
     cx="205.21744"
     cy="234.40648"
     r="71.800491" /><path
     style="fill:none;fill-opacity:1;stroke:#b32050;stroke-width:2;stroke-opacity:1;stroke-dasharray:none"
     d="m 205.21744,162.60598 -35.90023,133.98154 98.08129,-98.0813 -133.98154,35.90025 133.98154,35.90024 -98.08129,-98.08129 35.90024,133.98154 35.90025,-133.98154 -98.08129,98.08129 133.98153,-35.90024 -133.98153,-35.90025 98.08129,98.0813 z"
     id="path17" /><path
     style="font-weight:800;font-size:26.6667px;font-family:Avenir;-inkscape-font-specification:'Avenir Ultra-Bold';fill:#481212"
     d="m 60.573337,92.799958 h -5.386674 v -3.680005 h 14.933352 v 3.680005 h -5.386673 v 15.200022 h -4.160005 z m 16.613328,13.573352 h -0.05333 q -0.666667,1.04 -1.786669,1.49333 -1.093334,0.45334 -2.320002,0.45334 -0.906668,0 -1.760003,-0.26667 -0.826667,-0.24 -1.466668,-0.74667 -0.640001,-0.50666 -1.013335,-1.25333 -0.373334,-0.74667 -0.373334,-1.73334 0,-1.12 0.400001,-1.89333 0.426667,-0.77334 1.120001,-1.28 0.720001,-0.50667 1.626669,-0.77334 0.906668,-0.29333 1.866669,-0.426666 0.986668,-0.133334 1.946669,-0.160001 0.986668,-0.02667 1.813336,-0.02667 0,-1.066668 -0.773335,-1.680002 -0.746667,-0.640001 -1.786668,-0.640001 -0.986668,0 -1.813336,0.426667 -0.800001,0.4 -1.440002,1.120001 l -2.133336,-2.186669 q 1.120001,-1.040001 2.613337,-1.546669 1.493335,-0.533334 3.093337,-0.533334 1.760002,0 2.880004,0.453334 1.146668,0.426667 1.813335,1.280002 0.693334,0.853334 0.960001,2.106669 0.266667,1.226668 0.266667,2.853335 v 6.58668 h -3.680004 z m -0.986668,-4.05334 q -0.453334,0 -1.146668,0.0533 -0.666668,0.0267 -1.306669,0.21334 -0.613334,0.18666 -1.066668,0.56 -0.426667,0.37333 -0.426667,1.04 0,0.72 0.613334,1.06667 0.613334,0.34666 1.280002,0.34666 0.586667,0 1.120001,-0.16 0.560001,-0.16 0.986668,-0.45333 0.426667,-0.29333 0.666668,-0.74667 0.266667,-0.45333 0.266667,-1.06667 v -0.85333 z m 14.640036,7.78668 q -0.4,1.04 -0.773334,1.84 -0.373334,0.8 -0.960001,1.33333 -0.560001,0.56 -1.440002,0.82667 -0.880001,0.29334 -2.320003,0.29334 -1.546669,0 -2.986671,-0.48001 l 0.533334,-3.28 q 0.906668,0.4 1.86667,0.4 0.666667,0 1.093334,-0.16 0.426667,-0.13333 0.693334,-0.42667 0.293334,-0.26666 0.480001,-0.66666 0.186667,-0.4 0.400001,-0.93334 l 0.293333,-0.74667 -5.680007,-13.066679 h 4.320006 l 3.333337,8.560009 h 0.05333 l 2.853337,-8.560009 h 4.106672 z M 98.25337,87.839952 h 4 v 20.160028 h -4 z m 6.40002,13.680018 q 0,-1.54667 0.56,-2.800005 0.56,-1.253335 1.52,-2.133336 0.98667,-0.906667 2.29333,-1.386668 1.33334,-0.480001 2.82667,-0.480001 1.49334,0 2.80001,0.480001 1.33333,0.480001 2.29333,1.386668 0.98667,0.880001 1.54667,2.133336 0.56,1.253335 0.56,2.800005 0,1.54667 -0.56,2.8 -0.56,1.25334 -1.54667,2.16001 -0.96,0.88 -2.29333,1.36 -1.30667,0.48 -2.80001,0.48 -1.49333,0 -2.82667,-0.48 -1.30666,-0.48 -2.29333,-1.36 -0.96,-0.90667 -1.52,-2.16001 -0.56,-1.25333 -0.56,-2.8 z m 4,0 q 0,1.46667 0.82667,2.37334 0.85333,0.90666 2.37333,0.90666 1.52001,0 2.34667,-0.90666 0.85334,-0.90667 0.85334,-2.37334 0,-1.46667 -0.85334,-2.373337 -0.82666,-0.906668 -2.34667,-0.906668 -1.52,0 -2.37333,0.906668 -0.82667,0.906667 -0.82667,2.373337 z m 12.7467,-6.480009 h 4 v 2.080002 h 0.0533 q 0.64,-1.200001 1.52,-1.786669 0.88,-0.613334 2.21333,-0.613334 0.34667,0 0.69334,0.02667 0.34666,0.02667 0.64,0.106667 v 3.653338 q -0.42667,-0.133334 -0.85334,-0.186667 -0.4,-0.08 -0.85333,-0.08 -1.14667,0 -1.81334,0.32 -0.66666,0.320001 -1.04,0.906668 -0.34666,0.559997 -0.45333,1.359997 -0.10667,0.80001 -0.10667,1.76001 v 5.41334 h -4 z m 11.70667,-5.920008 h 3.36001 v 7.52001 h -3.36001 z m 14.37334,9.733346 q -0.88001,-1.093335 -2.32001,-1.093335 -0.50667,0 -0.98667,0.24 -0.48,0.240001 -0.48,0.826668 0,0.480001 0.48,0.720001 0.50667,0.213334 1.25334,0.400001 0.77333,0.159996 1.62667,0.373336 0.88,0.18666 1.62667,0.61333 0.77333,0.42667 1.25333,1.17334 0.50667,0.72 0.50667,1.94667 0,1.25333 -0.56,2.08 -0.53334,0.8 -1.38667,1.30667 -0.85333,0.48 -1.92,0.66666 -1.06667,0.21334 -2.10667,0.21334 -1.36,0 -2.74667,-0.37334 -1.38667,-0.4 -2.34667,-1.38666 l 2.42667,-2.69334 q 0.56,0.69333 1.22667,1.06667 0.69333,0.34666 1.6,0.34666 0.69333,0 1.25333,-0.18666 0.56,-0.21334 0.56,-0.74667 0,-0.50667 -0.50666,-0.74667 -0.48,-0.26667 -1.25334,-0.42667 -0.74667,-0.18666 -1.62667,-0.37333 -0.85333,-0.21333 -1.62667,-0.61333 -0.74666,-0.4 -1.25333,-1.12 -0.48,-0.74667 -0.48,-1.973341 0,-1.146668 0.45333,-1.973336 0.48,-0.826667 1.22667,-1.360001 0.77334,-0.533334 1.76,-0.773335 0.98667,-0.266667 2.00001,-0.266667 1.28,0 2.58667,0.373334 1.30666,0.373334 2.21333,1.333335 z m 30.50667,7.813341 q -1.84,0.96 -3.84,1.38667 -2,0.42667 -4.08001,0.42667 -2.21333,0 -4.08,-0.69334 -1.86667,-0.69333 -3.22667,-1.97333 -1.36,-1.30667 -2.13334,-3.14667 -0.74667,-1.84001 -0.74667,-4.106675 0,-2.266669 0.74667,-4.106672 0.77334,-1.840002 2.13334,-3.120004 1.36,-1.306668 3.22667,-2.000002 1.86667,-0.693334 4.08,-0.693334 2.26667,0 4.16001,0.56 1.92,0.533334 3.36,1.866669 l -2.93333,3.200004 q -0.85334,-0.880001 -1.92001,-1.333335 -1.06667,-0.453333 -2.66667,-0.453333 -1.33333,0 -2.42667,0.453333 -1.06667,0.453334 -1.84,1.280002 -0.77333,0.800001 -1.2,1.920002 -0.4,1.120002 -0.4,2.42667 0,1.333335 0.4,2.453335 0.42667,1.09334 1.2,1.92 0.77333,0.80001 1.84,1.25334 1.09334,0.45333 2.42667,0.45333 1.36,0 2.34667,-0.29333 0.98667,-0.32 1.57334,-0.64 v -3.06667 h -3.38667 v -3.840007 h 7.38667 z m 15.62669,1.33334 h -3.84001 v -1.76001 h -0.0533 q -0.21334,0.37334 -0.56,0.74667 -0.32,0.37334 -0.8,0.66667 -0.48001,0.29333 -1.09334,0.48 -0.61333,0.18667 -1.33333,0.18667 -1.52001,0 -2.48001,-0.45334 -0.93333,-0.48 -1.46667,-1.30666 -0.50666,-0.82667 -0.69333,-1.94667 -0.16,-1.12001 -0.16,-2.42667 v -7.146679 h 4 v 6.346679 q 0,0.56 0.0267,1.17333 0.0533,0.58667 0.24,1.09333 0.21333,0.50667 0.61334,0.82667 0.42666,0.32 1.2,0.32 0.77333,0 1.25333,-0.26666 0.48,-0.29334 0.72,-0.74667 0.26667,-0.48 0.34667,-1.06667 0.08,-0.58667 0.08,-1.22667 v -6.453339 h 4.00001 z m 2.87998,-12.960019 h 4.00001 v 12.960019 h -4.00001 z m -0.32,-4.080005 q 0,-0.960002 0.66667,-1.626669 0.69334,-0.693334 1.65334,-0.693334 0.96,0 1.62667,0.693334 0.69333,0.666667 0.69333,1.626669 0,0.960001 -0.69333,1.653335 -0.66667,0.666668 -1.62667,0.666668 -0.96,0 -1.65334,-0.666668 -0.66667,-0.693334 -0.66667,-1.653335 z m 20.80004,17.040024 h -3.68001 v -1.70667 h -0.0533 q -0.24,0.34667 -0.64,0.72 -0.37334,0.34667 -0.90667,0.64 -0.50667,0.29333 -1.14667,0.48 -0.61333,0.18667 -1.28,0.18667 -1.44,0 -2.61334,-0.48 -1.17333,-0.50667 -2.02666,-1.38667 -0.82667,-0.90667 -1.28001,-2.13334 -0.45333,-1.22667 -0.45333,-2.69333 0,-1.36001 0.4,-2.586674 0.42667,-1.253335 1.17333,-2.213336 0.77334,-0.960002 1.86667,-1.520002 1.09334,-0.586668 2.48001,-0.586668 1.25333,0 2.32,0.400001 1.09333,0.373334 1.78667,1.306668 h 0.0533 v -8.586677 h 4.00001 z m -3.68001,-6.48001 q 0,-1.46667 -0.85333,-2.373337 -0.82667,-0.906668 -2.34667,-0.906668 -1.52,0 -2.37334,0.906668 -0.82667,0.906667 -0.82667,2.373337 0,1.46667 0.82667,2.37334 0.85334,0.90666 2.37334,0.90666 1.52,0 2.34667,-0.90666 0.85333,-0.90667 0.85333,-2.37334 z m 19.14668,4.24 q -0.96001,1.22667 -2.42667,1.89334 -1.46667,0.66667 -3.04001,0.66667 -1.49333,0 -2.82667,-0.48 -1.30667,-0.48 -2.29333,-1.36 -0.96001,-0.90667 -1.52001,-2.16001 -0.56,-1.25333 -0.56,-2.8 0,-1.54667 0.56,-2.800005 0.56,-1.253335 1.52001,-2.133336 0.98666,-0.906667 2.29333,-1.386668 1.33334,-0.480001 2.82667,-0.480001 1.38667,0 2.50667,0.480001 1.14667,0.480001 1.92,1.386668 0.80001,0.880001 1.22667,2.133336 0.42667,1.253335 0.42667,2.800005 v 1.25333 h -9.28001 q 0.24,1.14667 1.04,1.84001 0.8,0.66666 1.97333,0.66666 0.98667,0 1.65334,-0.42666 0.69333,-0.45334 1.2,-1.14667 z m -3.38668,-5.70667 q 0.0267,-1.013334 -0.66666,-1.733335 -0.69334,-0.720001 -1.78667,-0.720001 -0.66667,0 -1.17334,0.213334 -0.50666,0.213333 -0.88,0.56 -0.34667,0.320001 -0.56,0.773335 -0.18667,0.426667 -0.21333,0.906667 z m 23.14667,-1.813335 h -3.52001 v 4.320005 q 0,0.53333 0.0533,0.98667 0.0533,0.42667 0.24,0.74667 0.18666,0.32 0.56,0.50666 0.4,0.16 1.04,0.16 0.32,0 0.82667,-0.0533 0.53333,-0.08 0.8,-0.32 v 3.33334 q -0.66667,0.24 -1.38667,0.32 -0.72,0.08 -1.41334,0.08 -1.01333,0 -1.86666,-0.21334 -0.85334,-0.21333 -1.49334,-0.66666 -0.64,-0.48 -1.01333,-1.22667 -0.34667,-0.74667 -0.34667,-1.81334 v -6.160005 h -2.56 v -3.200004 h 2.56 v -3.840005 h 4 v 3.840005 h 3.52001 z m 1.54665,3.280005 q 0,-1.54667 0.56,-2.800005 0.56,-1.253335 1.52,-2.133336 0.98667,-0.906667 2.29334,-1.386668 1.33334,-0.480001 2.82667,-0.480001 1.49334,0 2.8,0.480001 1.33334,0.480001 2.29334,1.386668 0.98667,0.880001 1.54667,2.133336 0.56,1.253335 0.56,2.800005 0,1.54667 -0.56,2.8 -0.56,1.25334 -1.54667,2.16001 -0.96,0.88 -2.29334,1.36 -1.30666,0.48 -2.8,0.48 -1.49333,0 -2.82667,-0.48 -1.30667,-0.48 -2.29334,-1.36 -0.96,-0.90667 -1.52,-2.16001 -0.56,-1.25333 -0.56,-2.8 z m 4.00001,0 q 0,1.46667 0.82666,2.37334 0.85334,0.90666 2.37334,0.90666 1.52,0 2.34667,-0.90666 0.85334,-0.90667 0.85334,-2.37334 0,-1.46667 -0.85334,-2.373337 -0.82667,-0.906668 -2.34667,-0.906668 -1.52,0 -2.37334,0.906668 -0.82666,0.906667 -0.82666,2.373337 z m 30.48004,-7.786678 q -0.50667,-0.64 -1.38667,-0.933334 -0.85333,-0.32 -1.62667,-0.32 -0.45333,0 -0.93333,0.106666 -0.48,0.106667 -0.90667,0.346667 -0.42667,0.213334 -0.69333,0.586668 -0.26667,0.373334 -0.26667,0.906668 0,0.853334 0.64,1.306668 0.64,0.453334 1.6,0.773334 0.98667,0.320001 2.10667,0.640001 1.12,0.32 2.08,0.906668 0.98667,0.586667 1.62667,1.573335 0.64,0.986667 0.64,2.640007 0,1.57333 -0.58666,2.74667 -0.58667,1.17333 -1.60001,1.94667 -0.98666,0.77333 -2.32,1.14666 -1.30667,0.37334 -2.77334,0.37334 -1.84,0 -3.41333,-0.56 -1.57334,-0.56 -2.93334,-1.81334 l 2.96,-3.25334 q 0.64,0.85334 1.6,1.33334 0.98667,0.45333 2.02667,0.45333 0.50667,0 1.01334,-0.10666 0.53333,-0.13334 0.93333,-0.37334 0.42667,-0.24 0.66667,-0.61333 0.26667,-0.37334 0.26667,-0.88 0,-0.85334 -0.66667,-1.33334 -0.64,-0.50667 -1.62667,-0.85333 -0.98667,-0.34667 -2.13333,-0.693337 -1.14667,-0.346667 -2.13334,-0.933334 -0.98667,-0.586668 -1.65334,-1.546669 -0.64,-0.960001 -0.64,-2.533336 0,-1.520002 0.58667,-2.66667 0.61333,-1.146668 1.6,-1.920003 1.01334,-0.773334 2.32001,-1.146668 1.30666,-0.4 2.69333,-0.4 1.6,0 3.09334,0.453334 1.49333,0.453333 2.69334,1.520001 z m 14.24,5.493341 q -0.29333,-0.426668 -0.82667,-0.693335 -0.53333,-0.293333 -1.14666,-0.293333 -1.52001,0 -2.37334,0.906668 -0.82667,0.906667 -0.82667,2.373337 0,1.46667 0.82667,2.37334 0.85333,0.90666 2.37334,0.90666 0.66666,0 1.14666,-0.29333 0.48001,-0.29333 0.82667,-0.69333 l 2.64001,2.77333 q -0.93334,0.96 -2.21334,1.36 -1.25334,0.37334 -2.4,0.37334 -1.49334,0 -2.82667,-0.48 -1.30667,-0.48 -2.29334,-1.36 -0.96,-0.90667 -1.52,-2.16001 -0.56,-1.25333 -0.56,-2.8 0,-1.54667 0.56,-2.800005 0.56,-1.253335 1.52,-2.133336 0.98667,-0.906667 2.29334,-1.386668 1.33333,-0.480001 2.82667,-0.480001 1.14666,0 2.4,0.400001 1.28,0.373334 2.21334,1.333335 z m 12.21336,7.146677 h -0.0533 q -0.66667,1.04 -1.78667,1.49333 -1.09333,0.45334 -2.32,0.45334 -0.90667,0 -1.76,-0.26667 -0.82667,-0.24 -1.46667,-0.74667 -0.64,-0.50666 -1.01334,-1.25333 -0.37333,-0.74667 -0.37333,-1.73334 0,-1.12 0.4,-1.89333 0.42667,-0.77334 1.12,-1.28 0.72,-0.50667 1.62667,-0.77334 0.90667,-0.29333 1.86667,-0.426666 0.98667,-0.133334 1.94667,-0.160001 0.98667,-0.02667 1.81333,-0.02667 0,-1.066668 -0.77333,-1.680002 -0.74667,-0.640001 -1.78667,-0.640001 -0.98667,0 -1.81333,0.426667 -0.80001,0.4 -1.44001,1.120001 l -2.13333,-2.186669 q 1.12,-1.040001 2.61333,-1.546669 1.49334,-0.533334 3.09334,-0.533334 1.76,0 2.88001,0.453334 1.14666,0.426667 1.81333,1.280002 0.69334,0.853334 0.96,2.106669 0.26667,1.226668 0.26667,2.853335 v 6.58668 h -3.68001 z m -0.98666,-4.05334 q -0.45334,0 -1.14667,0.0533 -0.66667,0.0267 -1.30667,0.21334 -0.61333,0.18666 -1.06667,0.56 -0.42666,0.37333 -0.42666,1.04 0,0.72 0.61333,1.06667 0.61333,0.34666 1.28,0.34666 0.58667,0 1.12,-0.16 0.56,-0.16 0.98667,-0.45333 0.42667,-0.29333 0.66667,-0.74667 0.26666,-0.45333 0.26666,-1.06667 v -0.85333 z m 7.22668,-14.480018 h 4 v 20.160028 h -4 z m 19.1467,17.920018 q -0.96001,1.22667 -2.42667,1.89334 -1.46667,0.66667 -3.04001,0.66667 -1.49333,0 -2.82667,-0.48 -1.30667,-0.48 -2.29333,-1.36 -0.96001,-0.90667 -1.52001,-2.16001 -0.56,-1.25333 -0.56,-2.8 0,-1.54667 0.56,-2.800005 0.56,-1.253335 1.52001,-2.133336 0.98666,-0.906667 2.29333,-1.386668 1.33334,-0.480001 2.82667,-0.480001 1.38667,0 2.50667,0.480001 1.14667,0.480001 1.92,1.386668 0.80001,0.880001 1.22667,2.133336 0.42667,1.253335 0.42667,2.800005 v 1.25333 h -9.28001 q 0.24,1.14667 1.04,1.84001 0.8,0.66666 1.97333,0.66666 0.98667,0 1.65334,-0.42666 0.69333,-0.45334 1.2,-1.14667 z m -3.38668,-5.70667 q 0.0267,-1.013334 -0.66666,-1.733335 -0.69334,-0.720001 -1.78667,-0.720001 -0.66667,0 -1.17334,0.213334 -0.50666,0.213333 -0.88,0.56 -0.34667,0.320001 -0.56,0.773335 -0.18667,0.426667 -0.21333,0.906667 z m 13.76001,-1.200001 q -0.88,-1.093335 -2.32001,-1.093335 -0.50666,0 -0.98666,0.24 -0.48,0.240001 -0.48,0.826668 0,0.480001 0.48,0.720001 0.50666,0.213334 1.25333,0.400001 0.77334,0.159996 1.62667,0.373336 0.88,0.18666 1.62667,0.61333 0.77333,0.42667 1.25333,1.17334 0.50667,0.72 0.50667,1.94667 0,1.25333 -0.56,2.08 -0.53333,0.8 -1.38667,1.30667 -0.85333,0.48 -1.92,0.66666 -1.06667,0.21334 -2.10667,0.21334 -1.36,0 -2.74667,-0.37334 -1.38667,-0.4 -2.34667,-1.38666 l 2.42667,-2.69334 q 0.56,0.69333 1.22667,1.06667 0.69333,0.34666 1.6,0.34666 0.69333,0 1.25333,-0.18666 0.56001,-0.21334 0.56001,-0.74667 0,-0.50667 -0.50667,-0.74667 -0.48,-0.26667 -1.25334,-0.42667 -0.74666,-0.18666 -1.62667,-0.37333 -0.85333,-0.21333 -1.62666,-0.61333 -0.74667,-0.4 -1.25334,-1.12 -0.48,-0.74667 -0.48,-1.973341 0,-1.146668 0.45333,-1.973336 0.48,-0.826667 1.22667,-1.360001 0.77334,-0.533334 1.76,-0.773335 0.98667,-0.266667 2.00001,-0.266667 1.28,0 2.58667,0.373334 1.30667,0.373334 2.21333,1.333335 z"
     id="text1"
     aria-label="Taylor's Guide to Scales" /></svg>
