<?xml version="1.0" encoding="UTF-8" standalone="no"?>
<svg
   width="345"
   height="475"
   viewBox="0 0 345 475"
   id="svg2"
   version="1.1"
   xml:space="preserve"
   sodipodi:docname="taylors_guide_to_scales_cover.svg"
   inkscape:version="1.4.3 (0d15f75, 2025-12-25)"
   xmlns:inkscape="http://www.inkscape.org/namespaces/inkscape"
   xmlns:sodipodi="http://sodipodi.sourceforge.net/DTD/sodipodi-0.dtd"
   xmlns:xlink="http://www.w3.org/1999/xlink"
   xmlns="http://www.w3.org/2000/svg"
   xmlns:svg="http://www.w3.org/2000/svg"
   xmlns:rdf="http://www.w3.org/1999/02/22-rdf-syntax-ns#"
   xmlns:cc="http://creativecommons.org/ns#"
   xmlns:dc="http://purl.org/dc/elements/1.1/"><sodipodi:namedview
     id="namedview1"
     pagecolor="#ffffff"
     bordercolor="#000000"
     borderopacity="0.25"
     inkscape:showpageshadow="2"
     inkscape:pageopacity="0.0"
     inkscape:pagecheckerboard="0"
     inkscape:deskcolor="#d1d1d1"
     inkscape:zoom="1.0000001"
     inkscape:cx="164.99998"
     inkscape:cy="225.99998"
     inkscape:window-width="1512"
     inkscape:window-height="921"
     inkscape:window-x="0"
     inkscape:window-y="33"
     inkscape:window-maximized="0"
     inkscape:current-layer="svg2"
     showgrid="false"><inkscape:grid
       id="grid1"
       units="px"
       originx="0"
       originy="0"
       spacingx="1"
       spacingy="1"
       empcolor="#0099e5"
       empopacity="0.30196078"
       color="#0099e5"
       opacity="0.14901961"
       empspacing="5"
       enabled="true"
       visible="false" /></sodipodi:namedview><defs
     id="defs4"><rect
       x="-4.9999995"
       y="0"
       width="245.99998"
       height="117.99999"
       id="rect3" /><linearGradient
       id="linearGradient1"
       inkscape:collect="always"><stop
         style="stop-color:#f8bc7c;stop-opacity:1;"
         offset="0.18025078"
         id="stop1" /><stop
         style="stop-color:#f6a87e;stop-opacity:1;"
         offset="0.72100312"
         id="stop2" /></linearGradient><filter
       style="color-interpolation-filters:sRGB"
       id="filter8603"
       x="-0.013057905"
       width="1.0261158"
       y="-0.011089376"
       height="1.0221788"><feGaussianBlur
         stdDeviation="2.164541"
         id="feGaussianBlur8605" /></filter><linearGradient
       inkscape:collect="always"
       xlink:href="#linearGradient1"
       id="linearGradient2"
       x1="205.44968"
       y1="54.360893"
       x2="205.44968"
       y2="404.97623"
       gradientUnits="userSpaceOnUse"
       gradientTransform="matrix(0.83456622,0,0,0.98361163,12.988301,2.6965807)" /></defs><metadata
     id="metadata7"><rdf:RDF><cc:Work
         rdf:about=""><dc:format>image/svg+xml</dc:format><dc:type
           rdf:resource="http://purl.org/dc/dcmitype/StillImage" /></cc:Work></rdf:RDF></metadata><rect
     y="7.4445648"
     x="-1.9279591"
     height="468.45724"
     width="397.83551"
     id="rect4502"
     style="color:#000000;clip-rule:nonzero;display:inline;overflow:visible;visibility:visible;isolation:auto;mix-blend-mode:normal;color-interpolation:sRGB;color-interpolation-filters:linearRGB;solid-color:#000000;solid-opacity:1;fill:#b4c1de;fill-opacity:1;fill-rule:nonzero;stroke:none;stroke-width:2;stroke-linecap:butt;stroke-linejoin:miter;stroke-miterlimit:4;stroke-dasharray:none;stroke-dashoffset:0;stroke-opacity:1;filter:url(#filter8603);color-rendering:auto;image-rendering:auto;shape-rendering:auto;text-rendering:auto;enable-background:accumulate"
     ry="2.2321417"
     transform="matrix(0.84286059,0,0,0.9703082,6.3785754,8.0629708)" /><rect
     y="0"
     x="13.360042"
     height="452.03195"
     width="331.63995"
     id="rect4504"
     style="color:#000000;clip-rule:nonzero;display:inline;overflow:visible;visibility:visible;isolation:auto;mix-blend-mode:normal;color-interpolation:sRGB;color-interpolation-filters:linearRGB;solid-color:#000000;solid-opacity:1;fill:#971b45;fill-opacity:1;fill-rule:nonzero;stroke:#000000;stroke-width:0.736121;stroke-linecap:butt;stroke-linejoin:miter;stroke-miterlimit:4;stroke-dasharray:none;stroke-dashoffset:0;stroke-opacity:1;color-rendering:auto;image-rendering:auto;shape-rendering:auto;text-rendering:auto;enable-background:accumulate" /><rect
     y="25.413038"
     x="35.143806"
     height="403.37643"
     width="289.61169"
     id="rect1"
     style="color:#000000;clip-rule:nonzero;display:inline;overflow:visible;visibility:visible;isolation:auto;mix-blend-mode:normal;color-interpolation:sRGB;color-interpolation-filters:linearRGB;solid-color:#000000;solid-opacity:1;fill:url(#linearGradient2);fill-opacity:1;fill-rule:nonzero;stroke:none;stroke-width:0.648611;stroke-linecap:butt;stroke-linejoin:miter;stroke-miterlimit:4;stroke-dasharray:none;stroke-dashoffset:0;stroke-opacity:1;color-rendering:auto;image-rendering:auto;shape-rendering:auto;text-rendering:auto;enable-background:accumulate" /><circle
     style="fill:#493746;fill-opacity:1;stroke:none;stroke-width:0.639304;stroke-dasharray:none;stroke-opacity:1"
     id="circle4"
     cx="248.01794"
     cy="251.40648"
     r="2.8720195" /><circle
     style="fill:#493746;fill-opacity:1;stroke:none;stroke-width:0.639304;stroke-dasharray:none;stroke-opacity:1"
     id="circle6"
     cx="216.69841"
     cy="127.87764"
     r="2.8720198"
     transform="rotate(15)" /><circle
     style="fill:#493746;fill-opacity:1;stroke:none;stroke-width:0.639304;stroke-dasharray:none;stroke-opacity:1"
     id="circle7"
     cx="176.21744"
     cy="323.20694"
     r="2.8720195" /><circle
     style="fill:#493746;fill-opacity:1;stroke:none;stroke-width:0.639304;stroke-dasharray:none;stroke-opacity:1"
     id="circle8"
     cx="104.41696"
     cy="251.40648"
     r="2.8720195" /><circle
     style="fill:#493746;fill-opacity:1;stroke:none;stroke-width:0.639304;stroke-dasharray:none;stroke-opacity:1"
     id="circle10"
     cx="350.11255"
     cy="129.61568"
     r="2.8720198"
     transform="rotate(29.999999)" /><circle
     style="fill:#493746;fill-opacity:1;stroke:none;stroke-width:0.639304;stroke-dasharray:none;stroke-opacity:1"
     id="circle11"
     cx="278.31204"
     cy="57.815189"
     r="2.8720198"
     transform="rotate(29.999999)" /><circle
     style="fill:#493746;fill-opacity:1;stroke:none;stroke-width:0.639304;stroke-dasharray:none;stroke-opacity:1"
     id="circle12"
     cx="278.31204"
     cy="201.4162"
     r="2.8720198"
     transform="rotate(29.999999)" /><circle
     style="fill:#493746;fill-opacity:1;stroke:none;stroke-width:0.639304;stroke-dasharray:none;stroke-opacity:1"
     id="circle13"
     cx="206.51158"
     cy="129.61568"
     r="2.8720198"
     transform="rotate(29.999999)" /><circle
     style="fill:#493746;fill-opacity:1;stroke:none;stroke-width:0.639304;stroke-dasharray:none;stroke-opacity:1"
     id="circle15"
     cx="98.706093"
     cy="305.83313"
     r="2.8720198"
     transform="rotate(-29.999999)" /><circle
     style="fill:#493746;fill-opacity:1;stroke:none;stroke-width:0.639304;stroke-dasharray:none;stroke-opacity:1"
     id="circle16"
     cx="26.905613"
     cy="234.03262"
     r="2.8720198"
     transform="rotate(-29.999999)" /><circle
     style="fill:#493746;fill-opacity:1;stroke:none;stroke-width:0.639304;stroke-dasharray:none;stroke-opacity:1"
     id="circle17"
     cx="26.905613"
     cy="377.63364"
     r="2.8720198"
     transform="rotate(-29.999999)" /><circle
     style="fill:#493746;fill-opacity:1;stroke:none;stroke-width:0.639304;stroke-dasharray:none;stroke-opacity:1"
     id="circle18"
     cx="-44.89492"
     cy="305.83313"
     r="2.8720198"
     transform="rotate(-29.999999)" /><circle
     style="fill:none;fill-opacity:0.99511;stroke:#493746;stroke-width:2;stroke-dasharray:none;stroke-opacity:1"
     id="path7"
     cx="176.21744"
     cy="251.40648"
     r="71.800491" /><path
     style="fill:none;fill-opacity:1;stroke:#b32050;stroke-width:2;stroke-dasharray:none;stroke-opacity:1"
     d="m 176.21744,179.60598 -35.90023,133.98154 98.08129,-98.0813 -133.98154,35.90025 133.98154,35.90024 -98.08129,-98.08129 35.90024,133.98154 35.90025,-133.98154 -98.08129,98.08129 133.98153,-35.90024 -133.98153,-35.90025 98.08129,98.0813 z"
     id="path17" /><text
     xml:space="preserve"
     id="text3"
     style="font-weight:800;font-size:48px;font-family:Avenir;-inkscape-font-specification:'Avenir Ultra-Bold';writing-mode:lr-tb;direction:ltr;white-space:pre;shape-inside:url(#rect3);display:inline;fill:#481212;fill-opacity:1;stroke-width:0.8" /><g
     id="text1"
     style="font-weight:bold;font-size:37.3333px;font-family:'Helvetica Neue';-inkscape-font-specification:'Helvetica Neue Bold';text-align:center;text-anchor:middle;fill:#481212;stroke-width:0.8"
     aria-label="Taylor's Guide&#10;to Scales"><path
       style="font-family:'PT Serif';-inkscape-font-specification:'PT Serif Bold'"
       d="M 69.829257,90.999992 H 56.986601 v -1.418665 q 0.746666,-0.298667 1.679998,-0.597333 0.970666,-0.336 1.941332,-0.485333 V 67.293346 h -4.330663 l -2.389331,6.383994 h -1.530666 q -0.149333,-0.746666 -0.298666,-1.903998 -0.149333,-1.157332 -0.261333,-2.389331 -0.112,-1.231999 -0.186667,-2.426665 -0.07467,-1.231999 -0.07467,-2.090665 h 23.74398 q 0,0.896 -0.07467,2.090665 -0.07467,1.194666 -0.186667,2.426665 -0.111999,1.231999 -0.261333,2.389331 -0.149333,1.119999 -0.298666,1.903998 h -1.530665 l -2.389332,-6.383994 h -4.330663 v 21.205315 q 0.970666,0.186667 1.903999,0.448 0.970666,0.261333 1.717332,0.634666 z m 23.557327,-5.413328 q 0,0.821332 0,1.418665 0.03733,0.597333 0.112,1.269332 l 2.575997,0.373333 v 1.306666 q -0.447999,0.224 -1.231999,0.448 -0.746666,0.223999 -1.605332,0.447999 -0.821332,0.186667 -1.642665,0.298667 -0.821332,0.149333 -1.455999,0.223999 h -1.269332 q -0.373333,-0.858666 -0.447999,-1.717331 -0.07467,-0.858666 -0.112,-2.090665 h -0.186667 q -0.186666,0.746666 -0.634666,1.455998 -0.448,0.672 -1.157332,1.231999 -0.672,0.522667 -1.605332,0.858666 -0.933333,0.336 -2.090665,0.336 -1.231999,0 -2.277332,-0.373333 -1.045332,-0.373333 -1.829331,-1.045332 -0.784,-0.672 -1.231999,-1.605332 -0.448,-0.970666 -0.448,-2.165332 0,-1.679998 0.634666,-2.762664 0.634666,-1.082666 1.978665,-1.754665 1.381332,-0.709333 3.509331,-1.045333 2.165331,-0.336 5.226662,-0.485333 0.298666,-3.210664 -0.261333,-4.703996 -0.56,-1.493332 -2.426665,-1.493332 -1.157332,0 -2.127998,0.373333 l -1.754665,4.479996 H 79.983928 Q 79.685262,78.41867 79.386596,77.85867 79.125262,77.261337 78.863929,76.626671 78.63993,75.954672 78.453263,75.282672 q -0.149333,-0.671999 -0.224,-1.306665 1.418666,-0.970666 3.658664,-1.530665 2.239998,-0.56 4.741329,-0.56 2.127998,0 3.471997,0.485333 1.343999,0.448 2.090665,1.269332 0.783999,0.783999 1.082666,1.866665 0.298666,1.082666 0.298666,2.314665 0,2.239998 -0.112,4.06933 -0.07467,1.791998 -0.07467,3.695997 z m -8.399993,2.874664 q 0.783999,0 1.343999,-0.298667 0.559999,-0.298666 0.933332,-0.709332 0.410667,-0.410667 0.597333,-0.896 0.224,-0.485332 0.336,-0.858665 v -3.733331 q -1.754665,0.03733 -2.874664,0.224 -1.12,0.186667 -1.754666,0.634666 -0.634666,0.410667 -0.895999,1.082666 -0.224,0.634666 -0.224,1.567999 0,1.418665 0.672,2.202665 0.671999,0.783999 1.866665,0.783999 z M 98.053216,74.68534 q -0.56,-0.149334 -1.045332,-0.373333 -0.448,-0.224 -0.933333,-0.522667 v -1.455998 h 9.818659 v 1.418665 q -0.784,0.522666 -2.128,0.933333 l 3.77066,9.370658 0.63467,2.389332 h 0.0747 l 0.59733,-2.426665 2.912,-9.333325 q -1.12,-0.224 -2.05333,-0.896 v -1.455998 h 7.20532 v 1.455998 q -0.784,0.522667 -2.12799,0.896 l -6.08533,16.314652 q -0.896,2.389332 -1.792,3.882664 -0.896,1.530665 -1.792,2.426664 -0.896,0.896 -1.792,1.231999 -0.896,0.373333 -1.792,0.485333 -0.37333,-0.336 -0.672,-0.858666 -0.29866,-0.485333 -0.52266,-1.082665 -0.224,-0.56 -0.373336,-1.157333 -0.149333,-0.597333 -0.186666,-1.119999 l 0.485332,-0.895999 h 4.55466 q 0.336,-0.522666 0.56,-1.119999 0.26134,-0.597333 0.59734,-1.791999 z m 29.754634,16.314652 h -10.30399 v -1.455998 q 1.232,-0.597333 2.464,-0.896 v -22.62398 l -2.83733,-0.298667 v -1.455999 q 0.48533,-0.223999 1.344,-0.447999 0.85866,-0.224 1.82933,-0.373333 1.008,-0.186667 1.97866,-0.298667 1.008,-0.149333 1.792,-0.223999 h 1.26934 v 25.722644 q 1.23199,0.298667 2.46399,0.896 z m 2.0907,-9.333325 q 0,-2.277331 0.672,-4.06933 0.70933,-1.829332 1.97866,-3.098664 1.30667,-1.269332 3.136,-1.941332 1.82933,-0.671999 4.14399,-0.671999 2.61333,0 4.48,0.746666 1.904,0.709333 3.09866,2.015998 1.232,1.269333 1.792,3.098664 0.56,1.791999 0.56,3.919997 0,2.277331 -0.672,4.106663 -0.672,1.791999 -1.97866,3.061331 -1.26933,1.269332 -3.136,1.941332 -1.82933,0.671999 -4.144,0.671999 -2.53866,0 -4.40533,-0.709333 -1.86666,-0.746666 -3.09866,-2.015998 -1.232,-1.306666 -1.82933,-3.098664 -0.59733,-1.829332 -0.59733,-3.95733 z m 5.78666,0 q 0,1.679999 0.18666,3.098664 0.224,1.381332 0.74667,2.351998 0.52267,0.970666 1.41867,1.530665 0.89599,0.522667 2.31466,0.522667 0.82133,0 1.49333,-0.373333 0.672,-0.410667 1.15733,-1.269333 0.48534,-0.895999 0.70934,-2.314664 0.26133,-1.455999 0.26133,-3.546664 0,-1.717332 -0.224,-3.098664 -0.18667,-1.381332 -0.70933,-2.351998 -0.48534,-0.970666 -1.344,-1.493332 -0.85867,-0.56 -2.16533,-0.56 -0.97067,0 -1.68,0.410667 -0.70933,0.373333 -1.19467,1.269332 -0.48533,0.858666 -0.74666,2.314665 -0.224,1.418665 -0.224,3.50933 z m 26.05864,-5.039996 q -0.448,0.224 -1.04533,0.746666 -0.59733,0.522667 -1.08267,1.717332 v 9.557325 q 0.74667,0.07467 1.49333,0.298667 0.74667,0.186666 1.49334,0.597333 v 1.455998 h -10.82666 v -1.455998 q 0.672,-0.373333 1.26933,-0.56 0.59733,-0.186666 1.19467,-0.336 V 74.984006 l -2.464,-0.298666 v -1.455999 q 0.59733,-0.261333 1.456,-0.485333 0.896,-0.224 1.82933,-0.373333 0.93333,-0.186667 1.792,-0.298667 0.896,-0.111999 1.49333,-0.186666 h 1.26933 v 4.965329 h 0.14934 q 0.29866,-0.821333 0.85866,-1.717332 0.59733,-0.895999 1.38133,-1.642665 0.784,-0.746666 1.71734,-1.194666 0.93333,-0.447999 1.94133,-0.410666 0.41066,0.522666 0.70933,1.493332 0.29867,0.933333 0.48533,1.791999 v 1.455998 z m 7.69064,-10.639991 q 0.18667,-0.485333 0.85867,-0.783999 0.70933,-0.336 1.568,-0.336 0.784,0 1.49333,0.298667 0.74667,0.261333 0.93333,0.821332 l -1.71733,6.869328 h -1.41866 z m 17.28531,20.943983 q 0,-0.970666 -0.70933,-1.679999 -0.672,-0.709333 -1.71733,-1.306666 -1.008,-0.597332 -2.24,-1.194665 -1.19466,-0.597333 -2.24,-1.381332 -1.008,-0.821333 -1.71733,-1.903999 -0.672,-1.082666 -0.672,-2.650664 0,-1.119999 0.52267,-2.015998 0.52267,-0.933333 1.41866,-1.567999 0.896,-0.634666 2.128,-0.970666 1.26933,-0.373333 2.72533,-0.373333 2.016,0 3.73333,0.336 1.75467,0.298666 3.06133,0.858666 -0.14933,1.194665 -0.59733,2.575997 -0.448,1.343999 -0.85866,2.463998 h -1.26934 l -1.568,-3.807996 q -0.44799,-0.186667 -0.93333,-0.224 -0.48533,-0.07467 -1.08266,-0.07467 -1.12,0 -1.71734,0.672 -0.55999,0.634666 -0.55999,1.455998 0,0.933333 0.67199,1.642666 0.70934,0.671999 1.71734,1.269332 1.04533,0.597333 2.23999,1.194666 1.232,0.597332 2.24,1.381332 1.04534,0.746666 1.71733,1.791998 0.70934,1.045333 0.70934,2.501331 0,2.575998 -2.09067,4.06933 -2.09066,1.455999 -5.59999,1.455999 -1.792,0 -3.696,-0.373333 -1.904,-0.373333 -3.28533,-1.045332 0.0747,-1.343999 0.63467,-2.725331 0.56,-1.381333 1.19466,-2.463998 h 1.26933 l 1.82934,4.069329 q 0.41066,0.298667 0.89599,0.373333 0.52267,0.03733 0.97067,0.03733 1.08267,0 1.97867,-0.634666 0.89599,-0.634666 0.89599,-1.754665 z m 39.94664,2.426664 q -0.74667,0.373333 -1.82933,0.746666 -1.08267,0.373333 -2.27734,0.672 -1.19466,0.298666 -2.38933,0.485332 -1.19466,0.186667 -2.128,0.186667 -3.21066,0 -5.74932,-0.821333 -2.50134,-0.858666 -4.29333,-2.538664 -1.75467,-1.717332 -2.688,-4.255997 -0.93333,-2.538664 -0.93333,-5.898661 0,-3.658664 1.12,-6.197328 1.15733,-2.575998 3.02399,-4.18133 1.904,-1.642665 4.29333,-2.389331 2.38933,-0.746666 4.89066,-0.746666 2.464,0 4.62933,0.335999 2.16534,0.336 3.43467,0.970666 0,0.56 -0.0747,1.455999 -0.0373,0.858666 -0.14933,1.866665 -0.112,1.007999 -0.29867,2.015998 -0.14933,1.007999 -0.37333,1.829332 h -1.53067 l -2.09066,-5.674662 q -0.41067,-0.186666 -1.232,-0.261333 -0.82133,-0.112 -1.64267,-0.112 -1.53066,0 -2.94933,0.597333 -1.41866,0.597333 -2.50133,1.941332 -1.08266,1.306665 -1.71733,3.434664 -0.63467,2.090664 -0.63467,5.114662 0,2.463998 0.56,4.517329 0.59734,2.015999 1.64267,3.471997 1.04533,1.455999 2.50133,2.277332 1.456,0.821332 3.21066,0.821332 0.56,0 1.15734,-0.07467 0.59733,-0.112 1.12,-0.261333 0.52266,-0.149334 0.89599,-0.336 0.41067,-0.186667 0.56,-0.336 v -7.01866 q -0.97066,-0.07467 -1.82933,-0.373333 -0.85866,-0.298667 -1.60533,-0.709333 v -1.418666 h 10.19199 v 1.418666 q -0.336,0.336 -0.896,0.634666 -0.56,0.261333 -1.41866,0.448 z m 5.37598,-5.749328 q 0,-2.351998 0.112,-4.367997 0.112,-2.015998 0.112,-4.255996 l -2.464,-0.298666 v -1.455999 q 0.59734,-0.224 1.456,-0.448 0.896,-0.224 1.82933,-0.373333 0.93334,-0.186666 1.792,-0.298666 0.896,-0.149333 1.49333,-0.224 h 1.26934 q 0,2.799998 -0.112,5.525329 -0.112,2.687997 -0.112,5.301328 0,3.061331 0.59733,4.40533 0.63467,1.343999 2.31466,1.343999 1.15734,0 2.128,-0.858666 1.008,-0.895999 1.64267,-2.837331 v -9.781325 l -2.42667,-0.298666 v -1.455999 q 0.56,-0.224 1.38133,-0.448 0.85867,-0.224 1.75467,-0.373333 0.93333,-0.186666 1.82933,-0.298666 0.896,-0.149333 1.568,-0.224 h 1.26933 v 16.463986 l 2.464,0.298666 v 1.306666 q -0.52267,0.224 -1.30666,0.448 -0.784,0.223999 -1.64267,0.447999 -0.85867,0.186667 -1.71733,0.298667 -0.82133,0.149333 -1.49333,0.223999 h -1.26934 l -0.26133,-4.442662 h -0.14933 q -0.18667,0.783999 -0.672,1.605331 -0.48534,0.784 -1.26933,1.455999 -0.74667,0.634666 -1.792,1.045333 -1.04534,0.410666 -2.31467,0.410666 -1.41866,0 -2.53866,-0.373333 -1.08267,-0.336 -1.86667,-1.231999 -0.784,-0.895999 -1.19466,-2.389331 -0.41067,-1.530666 -0.41067,-3.84533 z m 32.03197,7.391993 H 253.7704 v -1.455998 q 0.56,-0.298667 1.15733,-0.485333 0.59734,-0.224 1.30667,-0.410667 V 74.984006 l -2.464,-0.298666 v -1.455999 q 0.56,-0.224 1.38133,-0.448 0.85867,-0.224 1.792,-0.373333 0.93334,-0.186666 1.82933,-0.298666 0.896,-0.149333 1.568,-0.224 h 1.26934 v 16.762652 q 0.74666,0.186667 1.34399,0.410667 0.59734,0.186666 1.12,0.485333 z M 255.59973,66.21068 q 0,-1.306665 0.896,-2.053331 0.896,-0.746666 2.31467,-0.746666 1.41866,0 2.31466,0.746666 0.896,0.746666 0.896,2.053331 0,1.269332 -0.896,2.015998 -0.896,0.746666 -2.31466,0.746666 -1.41867,0 -2.31467,-0.746666 -0.896,-0.746666 -0.896,-2.015998 z m 23.29601,21.093316 q -0.18666,0.821332 -0.672,1.567998 -0.48533,0.746666 -1.15733,1.343999 -0.672,0.56 -1.53067,0.895999 -0.85866,0.336 -1.82933,0.336 -3.69599,0 -5.63733,-2.314665 -1.90399,-2.351998 -1.90399,-7.167994 0,-2.463998 0.672,-4.293329 0.672,-1.866665 1.86666,-3.135998 1.232,-1.269332 2.94933,-1.903998 1.71733,-0.634666 3.808,-0.634666 0.672,0 1.12,0.03733 0.48533,0.03733 0.85866,0.112 0.41067,0.03733 0.74667,0.186667 0.37333,0.112 0.82133,0.261333 v -6.570661 l -2.83733,-0.298667 v -1.455999 q 0.52267,-0.223999 1.41867,-0.410666 0.93333,-0.186666 1.94133,-0.336 1.008,-0.186666 1.97866,-0.335999 0.97067,-0.149333 1.60534,-0.261333 h 1.26933 v 25.423978 l 2.464,0.298666 v 1.306666 q -0.52267,0.261333 -1.344,0.485333 -0.82134,0.224 -1.71734,0.410666 -0.89599,0.186667 -1.75466,0.298667 -0.82133,0.149333 -1.38133,0.223999 h -1.26934 l -0.33599,-4.069329 z m -3.39733,1.157332 q 1.30667,0 2.20267,-0.821333 0.896,-0.821332 1.30666,-2.799997 V 74.79734 q -0.48533,-0.298667 -1.232,-0.485333 -0.70933,-0.186667 -1.792,-0.186667 -2.16533,0 -3.09866,1.978665 -0.93333,1.941332 -0.93333,5.674662 0,3.023997 0.82133,4.853329 0.82133,1.829332 2.72533,1.829332 z m 30.016,-0.597333 q -0.29867,0.634666 -0.97067,1.306666 -0.63466,0.634666 -1.60533,1.157332 -0.93333,0.485333 -2.20266,0.783999 -1.232,0.336 -2.688,0.336 -2.31467,0 -4.10666,-0.671999 -1.792,-0.709333 -2.98667,-1.978665 -1.19466,-1.306666 -1.82933,-3.098664 -0.59733,-1.791999 -0.59733,-4.031997 0,-4.778663 2.50133,-7.279994 2.50133,-2.501331 6.94399,-2.501331 1.904,0 3.54667,0.522666 1.67999,0.522666 2.76266,1.717332 1.12,1.194666 1.53067,3.135997 0.448,1.941332 -0.0373,4.74133 h -11.46132 q 0.0373,2.949331 1.49333,4.703996 1.49333,1.754665 4.368,1.754665 1.232,0 2.53866,-0.373333 1.344,-0.373333 2.09067,-0.970666 z M 297.82375,74.01334 q -0.74667,0 -1.344,0.261333 -0.56,0.261333 -1.008,0.970666 -0.41067,0.672 -0.672,1.866665 -0.26133,1.157333 -0.37333,2.949331 h 6.01066 q 0.26133,-2.911998 -0.336,-4.479996 -0.59733,-1.567999 -2.27733,-1.567999 z"
       id="path5" /><path
       style="font-family:'PT Serif';-inkscape-font-specification:'PT Serif Bold'"
       d="m 101.41325,121.68621 q 1.41866,-0.896 2.98666,-1.26933 v -3.024 q 0.29867,-0.224 1.456,-0.63466 1.19466,-0.448 2.65066,-0.70934 h 1.26933 v 4.74133 h 4.928 v 2.352 h -4.928 v 9.66933 q 0,2.31466 0.56,3.21066 0.59734,0.896 1.94134,0.896 0.672,0 1.49333,-0.0747 0.85866,-0.112 1.568,-0.37333 l 0.26133,1.232 q -0.336,0.336 -1.008,0.70933 -0.63467,0.37333 -1.49333,0.70933 -0.82133,0.336 -1.82933,0.56 -0.97067,0.224 -2.05333,0.224 -2.42667,0 -3.62134,-1.26933 -1.19466,-1.26933 -1.19466,-4.10666 v -11.38666 h -2.98666 z m 15.75465,8.43733 q 0,-2.27733 0.672,-4.06933 0.70934,-1.82933 1.97867,-3.09867 1.30666,-1.26933 3.136,-1.94133 1.82933,-0.672 4.14399,-0.672 2.61333,0 4.48,0.74667 1.904,0.70933 3.09866,2.016 1.232,1.26933 1.792,3.09866 0.56,1.792 0.56,3.92 0,2.27733 -0.672,4.10666 -0.672,1.792 -1.97866,3.06133 -1.26934,1.26933 -3.136,1.94133 -1.82933,0.672 -4.144,0.672 -2.53866,0 -4.40533,-0.70933 -1.86666,-0.74667 -3.09866,-2.016 -1.232,-1.30666 -1.82933,-3.09866 -0.59734,-1.82933 -0.59734,-3.95733 z m 5.78667,0 q 0,1.68 0.18666,3.09866 0.224,1.38133 0.74667,2.352 0.52266,0.97067 1.41866,1.53067 0.896,0.52266 2.31467,0.52266 0.82133,0 1.49333,-0.37333 0.672,-0.41067 1.15733,-1.26933 0.48534,-0.896 0.70934,-2.31467 0.26133,-1.456 0.26133,-3.54666 0,-1.71733 -0.224,-3.09867 -0.18667,-1.38133 -0.70933,-2.35199 -0.48534,-0.97067 -1.344,-1.49334 -0.85867,-0.56 -2.16533,-0.56 -0.97067,0 -1.68,0.41067 -0.70934,0.37333 -1.19467,1.26933 -0.48533,0.85867 -0.74666,2.31467 -0.224,1.41866 -0.224,3.50933 z m 31.17331,6.23466 q 0.41067,0.41067 1.15734,0.784 0.74666,0.336 1.97866,0.336 2.05333,0 3.39733,-1.04533 1.38133,-1.08267 1.38133,-2.98667 0,-1.38133 -0.89599,-2.31466 -0.85867,-0.93333 -2.20267,-1.71733 -1.344,-0.784 -2.87466,-1.53067 -1.53067,-0.784 -2.87467,-1.82933 -1.344,-1.04533 -2.24,-2.464 -0.85866,-1.456 -0.85866,-3.584 0,-1.82933 0.672,-3.17333 0.672,-1.344 1.82933,-2.20266 1.19466,-0.896 2.8,-1.30667 1.60533,-0.448 3.47199,-0.448 2.27734,0 4.21867,0.336 1.97866,0.29867 3.54666,0.97067 -0.0373,0.74666 -0.14933,1.71733 -0.0747,0.97067 -0.224,1.94133 -0.14934,0.93333 -0.336,1.792 -0.14934,0.82133 -0.29867,1.38133 h -1.53066 l -1.71734,-5.11466 q -0.448,-0.224 -1.34399,-0.41067 -0.85867,-0.18666 -1.792,-0.18666 -1.568,0 -2.65067,0.82133 -1.08266,0.82133 -1.08266,2.38933 0,1.41867 0.896,2.42667 0.896,0.97066 2.23999,1.79199 1.344,0.82134 2.912,1.64267 1.60533,0.784 2.94933,1.82933 1.344,1.04533 2.24,2.464 0.896,1.38133 0.896,3.43466 0,3.73333 -2.53866,5.78667 -2.50134,2.01599 -7.392,2.01599 -1.19466,0 -2.42666,-0.14933 -1.19467,-0.14933 -2.27733,-0.41067 -1.08267,-0.26133 -1.94134,-0.56 -0.82133,-0.29866 -1.232,-0.63466 0.0373,-0.85867 0.18667,-1.82933 0.14933,-1.008 0.29867,-1.97867 0.18666,-1.008 0.37333,-1.904 0.18667,-0.896 0.37333,-1.568 h 1.53067 z m 31.99466,0.0747 q -0.26133,0.74666 -0.85866,1.38133 -0.59734,0.59733 -1.456,1.08266 -0.82133,0.48534 -1.904,0.74667 -1.04533,0.26133 -2.20267,0.26133 -2.46399,0 -4.25599,-0.672 -1.75467,-0.70933 -2.912,-1.97866 -1.15733,-1.30667 -1.71733,-3.09866 -0.56,-1.82934 -0.56,-4.032 0,-4.74133 2.576,-7.24266 2.61333,-2.53867 7.39199,-2.53867 1.82933,0 3.36,0.41067 1.53066,0.37333 2.53866,0.896 -0.0747,0.63467 -0.224,1.41866 -0.112,0.74667 -0.29866,1.53067 -0.14934,0.74667 -0.37334,1.49333 -0.224,0.70933 -0.448,1.19467 h -1.82933 l -1.568,-4.44267 q -0.26133,-0.18666 -0.56,-0.26133 -0.29866,-0.112 -0.896,-0.112 -0.97066,0 -1.67999,0.37333 -0.70934,0.336 -1.232,1.19467 -0.48534,0.85867 -0.74667,2.27733 -0.224,1.41867 -0.224,3.50933 0,1.53067 0.336,2.83733 0.336,1.26934 1.008,2.24 0.70933,0.93333 1.75466,1.49333 1.04534,0.52267 2.464,0.52267 1.30667,0 2.27733,-0.37333 0.97067,-0.37334 1.64267,-0.896 z m 18.59196,-2.38933 q 0,0.82133 0,1.41866 0.0373,0.59733 0.112,1.26933 l 2.576,0.37334 v 1.30666 q -0.448,0.224 -1.232,0.448 -0.74667,0.224 -1.60533,0.448 -0.82134,0.18667 -1.64267,0.29867 -0.82133,0.14933 -1.456,0.224 h -1.26933 q -0.37333,-0.85867 -0.448,-1.71733 -0.0747,-0.85867 -0.112,-2.09067 h -0.18667 q -0.18666,0.74667 -0.63466,1.456 -0.448,0.672 -1.15734,1.232 -0.67199,0.52266 -1.60533,0.85866 -0.93333,0.336 -2.09066,0.336 -1.232,0 -2.27733,-0.37333 -1.04534,-0.37333 -1.82934,-1.04533 -0.78399,-0.672 -1.23199,-1.60533 -0.448,-0.97067 -0.448,-2.16534 0,-1.67999 0.63466,-2.76266 0.63467,-1.08267 1.97867,-1.75466 1.38133,-0.70934 3.50933,-1.04534 2.16533,-0.336 5.22666,-0.48533 0.29867,-3.21066 -0.26133,-4.704 -0.56,-1.49333 -2.42667,-1.49333 -1.15733,0 -2.128,0.37333 l -1.75466,4.48 h -1.64267 q -0.29866,-0.448 -0.59733,-1.008 -0.26133,-0.59733 -0.52267,-1.232 -0.224,-0.672 -0.41066,-1.344 -0.14934,-0.672 -0.224,-1.30666 1.41866,-0.97067 3.65866,-1.53067 2.24,-0.56 4.74133,-0.56 2.128,0 3.472,0.48534 1.344,0.448 2.09066,1.26933 0.784,0.784 1.08267,1.86666 0.29867,1.08267 0.29867,2.31467 0,2.24 -0.112,4.06933 -0.0747,1.792 -0.0747,3.696 z m -8.39999,2.87466 q 0.784,0 1.34399,-0.29867 0.56,-0.29866 0.93334,-0.70933 0.41066,-0.41067 0.59733,-0.896 0.224,-0.48533 0.336,-0.85866 v -3.73334 q -1.75467,0.0373 -2.87466,0.224 -1.12,0.18667 -1.75467,0.63467 -0.63467,0.41067 -0.896,1.08267 -0.224,0.63466 -0.224,1.568 0,1.41866 0.672,2.20266 0.672,0.784 1.86667,0.784 z m 23.10928,2.53866 H 209.1198 v -1.45599 q 1.232,-0.59734 2.46399,-0.896 v -22.62398 l -2.83733,-0.29867 v -1.456 q 0.48534,-0.224 1.344,-0.448 0.85867,-0.224 1.82933,-0.37333 1.008,-0.18667 1.97867,-0.29867 1.008,-0.14933 1.792,-0.224 h 1.26933 v 25.72265 q 1.232,0.29866 2.464,0.896 z m 19.07734,-3.13599 q -0.29866,0.63466 -0.97066,1.30666 -0.63467,0.63467 -1.60534,1.15733 -0.93333,0.48534 -2.20266,0.784 -1.232,0.336 -2.688,0.336 -2.31466,0 -4.10666,-0.672 -1.792,-0.70933 -2.98667,-1.97866 -1.19466,-1.30667 -1.82933,-3.09866 -0.59733,-1.792 -0.59733,-4.032 0,-4.77866 2.50133,-7.28 2.50133,-2.50133 6.944,-2.50133 1.90399,0 3.54666,0.52267 1.68,0.52267 2.76266,1.71733 1.12,1.19467 1.53067,3.136 0.448,1.94133 -0.0373,4.74133 h -11.46133 q 0.0373,2.94933 1.49333,4.70399 1.49334,1.75467 4.368,1.75467 1.232,0 2.53866,-0.37333 1.344,-0.37334 2.09067,-0.97067 z m -7.69066,-13.85066 q -0.74666,0 -1.344,0.26133 -0.56,0.26134 -1.008,0.97067 -0.41066,0.672 -0.672,1.86667 -0.26133,1.15733 -0.37333,2.94933 h 6.01066 q 0.26134,-2.912 -0.336,-4.48 -0.59733,-1.568 -2.27733,-1.568 z m 20.34669,12.91732 q 0,-0.97066 -0.70933,-1.67999 -0.672,-0.70934 -1.71734,-1.30667 -1.008,-0.59733 -2.23999,-1.19467 -1.19467,-0.59733 -2.24,-1.38133 -1.008,-0.82133 -1.71733,-1.904 -0.672,-1.08266 -0.672,-2.65066 0,-1.12 0.52266,-2.016 0.52267,-0.93333 1.41867,-1.568 0.896,-0.63466 2.128,-0.97066 1.26933,-0.37334 2.72533,-0.37334 2.01599,0 3.73333,0.336 1.75466,0.29867 3.06133,0.85867 -0.14934,1.19466 -0.59734,2.576 -0.44799,1.344 -0.85866,2.46399 h -1.26933 l -1.568,-3.80799 q -0.448,-0.18667 -0.93333,-0.224 -0.48534,-0.0747 -1.08267,-0.0747 -1.12,0 -1.71733,0.672 -0.56,0.63467 -0.56,1.456 0,0.93333 0.672,1.64267 0.70933,0.67199 1.71733,1.26933 1.04533,0.59733 2.24,1.19466 1.232,0.59734 2.24,1.38134 1.04533,0.74666 1.71733,1.79199 0.70933,1.04534 0.70933,2.50133 0,2.576 -2.09066,4.06933 -2.09067,1.456 -5.6,1.456 -1.792,0 -3.696,-0.37333 -1.904,-0.37333 -3.28533,-1.04533 0.0747,-1.344 0.63467,-2.72533 0.56,-1.38134 1.19466,-2.464 h 1.26934 l 1.82933,4.06933 q 0.41066,0.29867 0.896,0.37333 0.52266,0.0373 0.97066,0.0373 1.08267,0 1.97867,-0.63467 0.896,-0.63467 0.896,-1.75467 z"
       id="path6" /></g><path
     d="m 114.42668,369.99997 h -6.42135 v -0.70934 q 0.37334,-0.14933 0.84,-0.29866 0.48534,-0.168 0.97067,-0.24267 v -10.60269 h -2.16534 l -1.19467,3.19201 h -0.76533 q -0.0747,-0.37333 -0.14933,-0.952 -0.0747,-0.57867 -0.13067,-1.19467 -0.056,-0.616 -0.0933,-1.21334 -0.0373,-0.616 -0.0373,-1.04533 h 11.87202 q 0,0.448 -0.0373,1.04533 -0.0373,0.59734 -0.0933,1.21334 -0.056,0.616 -0.13067,1.19467 -0.0747,0.56 -0.14933,0.952 h -0.76534 l -1.19467,-3.19201 h -2.16533 v 10.60269 q 0.48533,0.0933 0.952,0.224 0.48533,0.13067 0.85867,0.31733 z m 11.77869,-2.70667 q 0,0.41067 0,0.70933 0.0187,0.29867 0.056,0.63467 l 1.288,0.18667 v 0.65333 q -0.224,0.112 -0.616,0.224 -0.37333,0.112 -0.80267,0.224 -0.41066,0.0933 -0.82133,0.14934 -0.41067,0.0747 -0.728,0.112 h -0.63467 q -0.18667,-0.42934 -0.224,-0.85867 -0.0373,-0.42934 -0.056,-1.04534 h -0.0933 q -0.0933,0.37334 -0.31734,0.728 -0.224,0.336 -0.57867,0.61601 -0.336,0.26133 -0.80266,0.42933 -0.46667,0.168 -1.04534,0.168 -0.616,0 -1.13867,-0.18667 -0.52266,-0.18666 -0.91467,-0.52266 -0.392,-0.33601 -0.616,-0.80267 -0.224,-0.48534 -0.224,-1.08267 0,-0.84 0.31734,-1.38134 0.31733,-0.54133 0.98933,-0.87733 0.69067,-0.35467 1.75467,-0.52267 1.08267,-0.168 2.61334,-0.24267 0.14933,-1.60533 -0.13067,-2.352 -0.28,-0.74667 -1.21333,-0.74667 -0.57867,0 -1.064,0.18667 l -0.87734,2.24 h -0.82133 q -0.14934,-0.224 -0.29867,-0.504 -0.13067,-0.29867 -0.26134,-0.616 -0.112,-0.336 -0.20533,-0.672 -0.0747,-0.336 -0.112,-0.65334 0.70934,-0.48533 1.82934,-0.76533 1.12,-0.28 2.37067,-0.28 1.064,0 1.736,0.24267 0.672,0.224 1.04534,0.63466 0.392,0.392 0.54133,0.93334 0.14933,0.54133 0.14933,1.15733 0,1.12001 -0.056,2.03467 -0.0373,0.89601 -0.0373,1.84801 z m -4.20001,1.43733 q 0.392,0 0.672,-0.14933 0.28001,-0.14933 0.46667,-0.35467 0.20534,-0.20533 0.29867,-0.448 0.112,-0.24266 0.168,-0.42933 v -1.86667 q -0.87734,0.0187 -1.43734,0.112 -0.56,0.0933 -0.87733,0.31733 -0.31733,0.20534 -0.448,0.54134 -0.112,0.31733 -0.112,0.784 0,0.70933 0.336,1.10133 0.336,0.392 0.93333,0.392 z m 6.53333,-6.88801 q -0.28,-0.0747 -0.52266,-0.18667 -0.224,-0.112 -0.46667,-0.26133 v -0.728 h 4.90934 v 0.70933 q -0.392,0.26134 -1.064,0.46667 l 1.88534,4.68534 0.31733,1.19467 h 0.0373 l 0.29867,-1.21333 1.456,-4.66668 q -0.56,-0.112 -1.02667,-0.448 v -0.728 h 3.60268 v 0.728 q -0.392,0.26133 -1.064,0.448 l -3.04268,8.15735 q -0.448,1.19467 -0.896,1.94134 -0.448,0.76533 -0.896,1.21333 -0.448,0.448 -0.896,0.616 -0.448,0.18667 -0.896,0.24267 -0.18667,-0.168 -0.336,-0.42933 -0.14934,-0.24267 -0.26134,-0.54134 -0.112,-0.28 -0.18666,-0.57867 -0.0747,-0.29866 -0.0933,-0.56 l 0.24267,-0.448 h 2.27734 q 0.168,-0.26133 0.28,-0.56 0.13066,-0.29867 0.29866,-0.896 z m 14.87736,8.15735 h -5.15201 v -0.728 q 0.616,-0.29867 1.23201,-0.448 v -11.31202 l -1.41867,-0.14934 v -0.728 q 0.24266,-0.112 0.672,-0.224 0.42933,-0.112 0.91467,-0.18667 0.504,-0.0933 0.98933,-0.14933 0.504,-0.0747 0.896,-0.112 h 0.63467 v 12.86136 q 0.616,0.14933 1.232,0.448 z m 1.04535,-4.66668 q 0,-1.13866 0.336,-2.03467 0.35467,-0.91466 0.98934,-1.54933 0.65333,-0.63467 1.568,-0.97067 0.91467,-0.336 2.072,-0.336 1.30667,0 2.24001,0.37333 0.952,0.35467 1.54933,1.008 0.616,0.63467 0.896,1.54934 0.28,0.896 0.28,1.96 0,1.13867 -0.336,2.05334 -0.336,0.896 -0.98933,1.53067 -0.63467,0.63467 -1.568,0.97067 -0.91467,0.336 -2.07201,0.336 -1.26933,0 -2.20267,-0.35467 -0.93333,-0.37333 -1.54933,-1.008 -0.61601,-0.65333 -0.91467,-1.54934 -0.29867,-0.91466 -0.29867,-1.97867 z m 2.89334,0 q 0,0.84001 0.0933,1.54934 0.112,0.69067 0.37334,1.176 0.26133,0.48534 0.70933,0.76534 0.448,0.26133 1.15734,0.26133 0.41066,0 0.74666,-0.18667 0.336,-0.20533 0.57867,-0.63466 0.24267,-0.448 0.35467,-1.15734 0.13067,-0.728 0.13067,-1.77334 0,-0.85866 -0.112,-1.54933 -0.0933,-0.69067 -0.35467,-1.176 -0.24267,-0.48534 -0.672,-0.74667 -0.42934,-0.28 -1.08267,-0.28 -0.48534,0 -0.84,0.20533 -0.35467,0.18667 -0.59734,0.63467 -0.24266,0.42933 -0.37333,1.15733 -0.112,0.70934 -0.112,1.75467 z m 13.02935,-2.52 q -0.224,0.112 -0.52267,0.37333 -0.29866,0.26134 -0.54133,0.85867 v 4.77868 q 0.37333,0.0373 0.74667,0.14933 0.37333,0.0933 0.74667,0.29867 v 0.728 h -5.41335 v -0.728 q 0.336,-0.18667 0.63467,-0.28 0.29867,-0.0933 0.59734,-0.168 v -6.83201 l -1.23201,-0.14934 v -0.728 q 0.29867,-0.13067 0.728,-0.24267 0.44801,-0.112 0.91467,-0.18666 0.46667,-0.0933 0.896,-0.14934 0.44801,-0.056 0.74667,-0.0933 h 0.63467 v 2.48267 h 0.0747 q 0.14933,-0.41067 0.42933,-0.85867 0.29867,-0.448 0.69067,-0.82133 0.392,-0.37334 0.85867,-0.59734 0.46666,-0.224 0.97067,-0.20533 0.20533,0.26133 0.35466,0.74667 0.14934,0.46666 0.24267,0.896 v 0.728 z m 13.70136,7.18668 h -5.65601 v -0.70934 q 0.31734,-0.168 0.72801,-0.31733 0.42933,-0.14933 0.80266,-0.224 v -10.56535 q -0.448,-0.0747 -0.85866,-0.224 -0.41067,-0.14934 -0.67201,-0.31734 v -0.70933 h 5.65601 v 0.70933 q -0.28,0.18667 -0.63466,0.336 -0.336,0.14934 -0.69067,0.20534 v 4.51734 h 4.94667 v -4.51734 q -0.41066,-0.0747 -0.74666,-0.224 -0.31734,-0.14934 -0.57867,-0.31734 v -0.70933 h 5.65601 v 0.70933 q -0.31733,0.20534 -0.728,0.336 -0.41067,0.13067 -0.80267,0.20534 v 10.56535 q 0.42933,0.0747 0.82133,0.224 0.41067,0.14933 0.70934,0.31733 v 0.70934 h -5.65601 v -0.70934 q 0.28,-0.168 0.616,-0.31733 0.336,-0.14933 0.70933,-0.224 v -4.83467 h -4.94667 v 4.83467 q 0.37333,0.0747 0.69067,0.20533 0.31733,0.13067 0.63466,0.336 z m 9.65068,-3.69601 q 0,-1.176 0.056,-2.184 0.056,-1.008 0.056,-2.128 l -1.23201,-0.14934 v -0.728 q 0.29867,-0.112 0.728,-0.224 0.44801,-0.112 0.91467,-0.18667 0.46667,-0.0933 0.896,-0.14933 0.44801,-0.0747 0.74667,-0.112 h 0.63467 q 0,1.4 -0.056,2.76267 -0.056,1.344 -0.056,2.65067 0,1.53067 0.29867,2.20267 0.31733,0.672 1.15733,0.672 0.57867,0 1.064,-0.42933 0.50401,-0.448 0.82134,-1.41867 v -4.89067 l -1.21334,-0.14934 v -0.728 q 0.28,-0.112 0.69067,-0.224 0.42934,-0.112 0.87734,-0.18667 0.46666,-0.0933 0.91467,-0.14933 0.448,-0.0747 0.784,-0.112 h 0.63466 v 8.23201 l 1.23201,0.14934 v 0.65333 q -0.26134,0.112 -0.65334,0.224 -0.392,0.112 -0.82133,0.224 -0.42934,0.0933 -0.85867,0.14934 -0.41067,0.0747 -0.74667,0.112 h -0.63467 l -0.13066,-2.22134 h -0.0747 q -0.0933,0.392 -0.336,0.80267 -0.24267,0.392 -0.63467,0.728 -0.37333,0.31733 -0.896,0.52267 -0.52267,0.20533 -1.15734,0.20533 -0.70933,0 -1.26933,-0.18667 -0.54134,-0.168 -0.93334,-0.616 -0.392,-0.448 -0.59733,-1.19467 -0.20533,-0.76533 -0.20533,-1.92267 z m 21.37336,3.69601 h -4.66668 v -0.728 q 0.18667,-0.112 0.41067,-0.224 0.24267,-0.13067 0.52267,-0.224 v -3.71468 q 0,-0.85866 -0.056,-1.456 -0.0373,-0.59733 -0.18667,-0.97067 -0.14933,-0.392 -0.41067,-0.56 -0.26133,-0.18667 -0.672,-0.18667 -0.59733,0 -1.04533,0.46667 -0.42934,0.448 -0.63467,1.19467 v 5.22668 q 0.504,0.14933 0.93334,0.448 v 0.728 h -4.85335 v -0.728 q 0.26134,-0.13067 0.57867,-0.24267 0.31733,-0.112 0.65334,-0.20533 v -6.83201 l -1.23201,-0.14934 v -0.728 q 0.29867,-0.13067 0.728,-0.24267 0.44801,-0.112 0.91467,-0.18666 0.46667,-0.0933 0.896,-0.14934 0.44801,-0.056 0.74667,-0.0933 h 0.63467 v 2.10934 h 0.0187 q 0.29866,-0.87734 1.04533,-1.49334 0.76534,-0.616 1.82934,-0.616 0.448,0 0.87733,0.0933 0.42934,0.0933 0.78401,0.35467 0.37333,0.24267 0.63466,0.69067 0.26134,0.448 0.37334,1.15733 0.336,-1.02667 1.12,-1.66133 0.784,-0.63467 1.904,-0.63467 0.69067,0 1.21334,0.18667 0.54133,0.168 0.896,0.616 0.37333,0.448 0.56,1.21333 0.18667,0.76534 0.18667,1.94134 v 4.42401 q 0.63467,0.112 1.232,0.448 v 0.728 h -4.85334 v -0.728 q 0.42933,-0.28 0.93333,-0.448 v -4.05068 q 0,-1.456 -0.28,-2.14667 -0.26133,-0.69067 -1.15733,-0.69067 -0.672,0 -1.06401,0.50401 -0.37333,0.504 -0.56,1.344 v 5.04001 q 0.31734,0.0933 0.56,0.20533 0.26134,0.112 0.48534,0.24267 z m 17.24803,0 h -4.66667 v -0.728 q 0.18666,-0.112 0.41066,-0.224 0.24267,-0.13067 0.52267,-0.224 v -3.71468 q 0,-0.85866 -0.056,-1.456 -0.0373,-0.59733 -0.18667,-0.97067 -0.14933,-0.392 -0.41066,-0.56 -0.26134,-0.18667 -0.67201,-0.18667 -0.59733,0 -1.04533,0.46667 -0.42933,0.448 -0.63467,1.19467 v 5.22668 q 0.504,0.14933 0.93334,0.448 v 0.728 h -4.85335 v -0.728 q 0.26134,-0.13067 0.57867,-0.24267 0.31734,-0.112 0.65334,-0.20533 v -6.83201 l -1.23201,-0.14934 v -0.728 q 0.29867,-0.13067 0.72801,-0.24267 0.448,-0.112 0.91466,-0.18666 0.46667,-0.0933 0.89601,-0.14934 0.448,-0.056 0.74666,-0.0933 h 0.63467 v 2.10934 h 0.0187 q 0.29867,-0.87734 1.04533,-1.49334 0.76534,-0.616 1.82934,-0.616 0.448,0 0.87734,0.0933 0.42933,0.0933 0.784,0.35467 0.37333,0.24267 0.63466,0.69067 0.26134,0.448 0.37334,1.15733 0.336,-1.02667 1.12,-1.66133 0.784,-0.63467 1.904,-0.63467 0.69067,0 1.21334,0.18667 0.54133,0.168 0.896,0.616 0.37334,0.448 0.56,1.21333 0.18667,0.76534 0.18667,1.94134 v 4.42401 q 0.63467,0.112 1.232,0.448 v 0.728 h -4.85334 v -0.728 q 0.42933,-0.28 0.93333,-0.448 v -4.05068 q 0,-1.456 -0.28,-2.14667 -0.26133,-0.69067 -1.15733,-0.69067 -0.672,0 -1.064,0.50401 -0.37334,0.504 -0.56,1.344 v 5.04001 q 0.31733,0.0933 0.56,0.20533 0.26133,0.112 0.48533,0.24267 z m 6.73867,-4.66668 q 0,-1.13866 0.336,-2.03467 0.35467,-0.91466 0.98934,-1.54933 0.65333,-0.63467 1.568,-0.97067 0.91467,-0.336 2.072,-0.336 1.30667,0 2.24001,0.37333 0.952,0.35467 1.54933,1.008 0.61601,0.63467 0.89601,1.54934 0.28,0.896 0.28,1.96 0,1.13867 -0.336,2.05334 -0.336,0.896 -0.98934,1.53067 -0.63467,0.63467 -1.568,0.97067 -0.91467,0.336 -2.07201,0.336 -1.26933,0 -2.20267,-0.35467 -0.93333,-0.37333 -1.54933,-1.008 -0.616,-0.65333 -0.91467,-1.54934 -0.29867,-0.91466 -0.29867,-1.97867 z m 2.89334,0 q 0,0.84001 0.0933,1.54934 0.112,0.69067 0.37334,1.176 0.26133,0.48534 0.70933,0.76534 0.448,0.26133 1.15734,0.26133 0.41067,0 0.74667,-0.18667 0.336,-0.20533 0.57866,-0.63466 0.24267,-0.448 0.35467,-1.15734 0.13067,-0.728 0.13067,-1.77334 0,-0.85866 -0.112,-1.54933 -0.0933,-0.69067 -0.35467,-1.176 -0.24267,-0.48534 -0.672,-0.74667 -0.42933,-0.28 -1.08267,-0.28 -0.48533,0 -0.84,0.20533 -0.35467,0.18667 -0.59733,0.63467 -0.24267,0.42933 -0.37334,1.15733 -0.112,0.70934 -0.112,1.75467 z m 19.41336,4.66668 h -4.94667 v -0.728 q 0.24266,-0.13067 0.46666,-0.224 0.24267,-0.112 0.56,-0.224 v -4.38668 q 0,-1.176 -0.336,-1.82933 -0.336,-0.67201 -1.19466,-0.67201 -0.70934,0 -1.23201,0.46667 -0.504,0.448 -0.76533,1.232 v 5.18935 q 0.29867,0.0747 0.52267,0.18666 0.24266,0.0933 0.504,0.26134 v 0.728 h -4.94668 v -0.728 q 0.46667,-0.24267 1.232,-0.448 v -6.83201 l -1.232,-0.14934 v -0.728 q 0.24267,-0.112 0.63467,-0.20533 0.392,-0.112 0.84,-0.20534 0.46667,-0.0933 0.93334,-0.14933 0.48533,-0.0747 0.87733,-0.112 h 0.63467 v 1.92267 h 0.0187 q 0.392,-0.784 1.176,-1.344 0.784,-0.57867 1.904,-0.57867 0.728,0 1.30667,0.18667 0.57867,0.168 0.97067,0.616 0.41067,0.448 0.616,1.21333 0.224,0.74667 0.224,1.90401 v 4.46134 q 0.74667,0.13066 1.232,0.448 z"
     id="text5"
     style="font-weight:bold;font-size:18.6667px;font-family:'PT Serif';-inkscape-font-specification:'PT Serif Bold';fill:#481212;stroke-width:0.8"
     aria-label="Taylor Hummon" /></svg>
